<?xml version="1.0" encoding="UTF-8"?>
<svg id="Camada_2" data-name="Camada 2" xmlns="http://www.w3.org/2000/svg" viewBox="0 0 932.15 1148.57">
  <defs>
    <style>
      .cls-1 {
        fill: #fff;
      }
    </style>
  </defs>
  <g id="Camada_1-2" data-name="Camada 1">
    <path class="cls-1" d="M807.07,290.88c85.29,156.73,61.63,356.92-70.94,489.49-138.94,138.94-352.21,158.24-511.82,57.9v310.3H0V182.54h165.98c132.36-120.57,324.08-139.73,475.32-57.42,10.9,5.93,21.61,12.39,32.08,19.41L769.86,0l7.95,154.34,154.34,7.95-144.53,96.49-219.11,146.28-50.71,33.85c23.04,34.49,19.37,81.66-11.05,112.08-34.63,34.62-90.96,34.62-125.58,0s-34.62-90.95,0-125.58c30.42-30.41,77.58-34.09,112.07-11.05l33.85-50.72c-10.67-7.09-22.07-12.72-33.83-16.79-52.55-18.23-113.28-6.4-155.16,35.48-58.39,58.38-58.39,153.34,0,211.73,58.38,58.38,153.34,58.38,211.72,0,41.88-41.88,53.74-102.59,35.52-155.14l221.73-148.04Z"/>
  </g>
</svg>