<?xml version="1.0" encoding="UTF-8"?>
<svg id="Camada_2" data-name="Camada 2" xmlns="http://www.w3.org/2000/svg" viewBox="0 0 786.67 1304.41">
  <defs>
    <style>
      .cls-1 {
        fill: gray;
      }

      .cls-2 {
        fill: #4d4d4d;
      }

      .cls-3 {
        fill: #ccc;
      }

      .cls-4 {
        fill: #303030;
      }

      .cls-5 {
        fill: #fff;
      }

      .cls-6 {
        fill: #1a1a1a;
      }
    </style>
  </defs>
  <g id="Camada_1-2" data-name="Camada 1">
    <g>
      <path d="M678.81,1021.23v230.19c0,29.31-24.56,52.99-54.88,52.99h-197.63v-212.65c0-6.35,2.84-12.34,7.99-16.89l62.05-54.22,59.13-51.69h.07c1.12-.94,2.24-1.88,3.36-2.67h.07c1.12-.79,2.31-1.59,3.51-2.31,1.19-.72,2.46-1.37,3.81-1.95h.07c.6-.29,1.27-.51,1.87-.79.15,0,.22-.07.37-.14.3-.14.6-.22.82-.29.22-.14.52-.29.82-.36h.15c.82-.36,1.72-.65,2.69-.87.07,0,.15-.07.22-.07s.22-.07.3-.07c.75-.22,1.42-.36,2.09-.51.15-.07.3-.14.45-.14,1.64-.36,3.21-.65,4.85-.79.9-.14,1.72-.22,2.61-.29,1.19-.07,2.39-.14,3.58-.14,1.05,0,2.02,0,3.06.07.15,0,.3,0,.45.07.6,0,1.27.07,1.87.14,1.87.14,3.73.51,5.6.94.3.07.67.14.97.22h.3c.45.14.82.22,1.19.36.75.14,1.42.36,2.17.65.52.14,1.12.36,1.64.58.22.07.37.14.6.22q.07,0,.15.07c.15.07.22.07.37.14.15,0,.22.07.37.14.07-.07.15-.07.15.07h.07c.37.14.75.29,1.05.43.3.07.6.22.9.29.15.07.22.14.3.14v.07c.75.36,1.57.79,2.31,1.15.15.07.3.14.45.22l.15.07c.22.14.45.29.67.36.22.14.52.29.82.51q.07.07.15.14c.3.14.6.29.9.51.07,0,.15.07.22.14.52.29,1.05.65,1.49,1.01,1.19.79,2.31,1.73,3.43,2.67l25.31,22.16,34.42,30.03.07.07Z"/>
      <g>
        <path class="cls-5" d="M352.22,160.48c-9.83,0-19.36.48-28.88,1.55,2.61-2.04,5.32-3.78,8.12-5.24.1-.1.3-.19.5-.29,1-.58,2.01-1.07,3.01-1.45.8-.39,1.7-.78,2.61-1.16,1.6-.68,3.21-1.26,4.91-1.65.9-.39,1.91-.68,2.81-.87,1.5-.39,3.11-.78,4.61-1.07,1.81-.29,3.61-.58,5.42-.68,1.91-.19,3.81-.29,5.72-.29,5.62,0,11.23.78,16.65,2.23,4.51,1.16,8.83,2.91,13.04,5.24,1,.58,2.11,1.16,3.11,1.75,3.41,2.04,6.62,4.46,9.53,7.27-.3-.29-.6-.48-.9-.68-16.25-3.1-33.1-4.65-50.25-4.65Z"/>
        <path d="M361.04,149.33c-1.91,0-3.81.1-5.72.29-1.81.1-3.61.39-5.42.68-1.5.29-3.11.68-4.61,1.07-.9.19-1.91.48-2.81.87-1.7.39-3.31.97-4.91,1.65-.9.39-1.81.78-2.61,1.16-1,.39-2.01.87-3.01,1.45-.2.1-.4.19-.5.29-2.81,1.45-5.52,3.2-8.12,5.24,9.53-1.07,19.05-1.55,28.88-1.55,17.15,0,34,1.55,50.25,4.65.3.19.6.39.9.68-2.91-2.81-6.12-5.24-9.53-7.27-1-.58-2.11-1.16-3.11-1.75-4.21-2.33-8.52-4.07-13.04-5.24-5.42-1.45-11.03-2.23-16.65-2.23h0Z"/>
      </g>
      <g>
        <path class="cls-5" d="M487.51,343.85c-1.2-1.94-2.51-3.88-3.81-5.82l.1-.1c1.2,1.94,2.51,3.88,3.71,5.92Z"/>
        <path class="cls-5" d="M509.47,424.44v-3.01c0-1.94,0-3.98-.1-5.92.2,1.94.2,3.98.2,5.92,0,.97,0,1.94-.1,3.01Z"/>
        <path d="M151.44,1240.73v58.08c-52.25-11.15-102.9-26.57-151.34-45.87h-.1v-61.67h.1c48.34,20.85,98.89,37.43,151.34,49.45Z"/>
      </g>
      <g>
        <path class="cls-5" d="M487.51,343.85c-1.2-1.94-2.51-3.88-3.81-5.82l.1-.1c1.2,1.94,2.51,3.88,3.71,5.92Z"/>
        <path class="cls-5" d="M509.47,424.44v-3.01c0-1.94,0-3.98-.1-5.92.2,1.94.2,3.98.2,5.92,0,.97,0,1.94-.1,3.01Z"/>
        <path class="cls-4" d="M151.44,1115.83v59.15c-52.75-13.09-103.3-31.13-151.34-53.82h-.1v-64.48s.1,0,.1.1c15.14,7.85,30.59,15.22,46.33,22.11,4.11,1.84,8.32,3.59,12.54,5.33,1.5.58,3.01,1.26,4.51,1.84,5.22,2.23,10.63,4.27,15.95,6.3,1.5.58,3.11,1.16,4.61,1.75,4.91,1.84,9.83,3.68,14.74,5.33,3.61,1.36,7.32,2.62,11.03,3.78,1.4.49,2.81.97,4.31,1.36,5.01,1.75,10.03,3.3,15.14,4.85,2.81.87,5.62,1.75,8.42,2.52,3.91,1.16,7.82,2.23,11.83,3.3.6.19,1.3.39,1.91.58Z"/>
      </g>
      <g>
        <path class="cls-5" d="M487.51,343.85c-1.2-1.94-2.51-3.88-3.81-5.82l.1-.1c1.2,1.94,2.51,3.88,3.71,5.92Z"/>
        <path class="cls-5" d="M509.47,424.44v-3.01c0-1.94,0-3.98-.1-5.92.2,1.94.2,3.98.2,5.92,0,.97,0,1.94-.1,3.01Z"/>
        <path class="cls-2" d="M151.44,989.96v58.86c-53.55-15.9-104.3-38.11-151.34-65.65,0-.1-.1-.1-.1-.1v-67.01s.1,0,.1.1c6.22,4.17,12.54,8.24,18.95,12.12,6.02,3.78,12.14,7.47,18.35,10.96,5.52,3.1,11.03,6.21,16.65,9.12,5.32,2.91,10.63,5.62,16.05,8.24,1.3.68,2.61,1.36,3.91,1.94,5.11,2.52,10.33,4.95,15.54,7.18,1.3.78,2.71,1.36,4.01,1.84,4.61,2.13,9.23,4.17,13.84,5.92,2.61,1.26,5.11,2.33,7.72,3.2,4.01,1.75,8.02,3.3,12.03,4.75,2.41.97,4.81,1.84,7.22,2.62,5.62,2.13,11.33,4.17,17.05,5.92Z"/>
        <path class="cls-5" d="M630.72,961.55c-1-.48-2.11-1.07-3.11-1.55v-.1c1.1.48,2.11,1.07,3.11,1.65Z"/>
      </g>
      <g>
        <path class="cls-5" d="M487.51,343.85c-1.2-1.94-2.51-3.88-3.81-5.82l.1-.1c1.2,1.94,2.51,3.88,3.71,5.92Z"/>
        <path class="cls-5" d="M509.47,424.44v-3.01c0-1.94,0-3.98-.1-5.92.2,1.94.2,3.98.2,5.92,0,.97,0,1.94-.1,3.01Z"/>
        <path d="M.1,763.05l-.1-.1v73.02l.1.1c45.13,35.68,96.08,64.87,151.34,85.53v-58.47c-56.76-24.15-107.91-58.28-151.34-100.07Z"/>
      </g>
      <g>
        <path class="cls-5" d="M487.51,343.85c-1.2-1.94-2.51-3.88-3.81-5.82l.1-.1c1.2,1.94,2.51,3.88,3.71,5.92Z"/>
        <path class="cls-5" d="M509.47,424.44v-3.01c0-1.94,0-3.98-.1-5.92.2,1.94.2,3.98.2,5.92,0,.97,0,1.94-.1,3.01Z"/>
        <path class="cls-3" d="M721.88,499.97c-14.04,61.96-44.33,118.01-86.35,163.88l40.02,34.91c17.45-18.81,32.99-39.18,46.53-60.8v-134.5c0-1.16,0-2.33-.2-3.49ZM.1,555.93c0-.1-.1-.1-.1-.19v108.02s0,.1.1.1c40.12,54.5,93.57,99.3,155.55,129.94,2.61-5.43,6.52-10.47,11.43-14.74l28.18-24.63C106.61,715.25,36.2,643.88.1,555.93Z"/>
      </g>
      <g>
        <path class="cls-5" d="M556.85,409.17c-1.2-1.94-2.51-3.88-3.81-5.82l.1-.1c1.2,1.94,2.51,3.88,3.71,5.92Z"/>
        <path class="cls-5" d="M578.81,489.75v-3.01c0-1.94,0-3.98-.1-5.92.2,1.94.2,3.98.2,5.92,0,.97,0,1.94-.1,3.01Z"/>
        <path class="cls-3" d="M704.87,729.19l17.21,15.02v-35.25c-5.46,6.96-11.22,13.68-17.21,20.22Z"/>
      </g>
      <g>
        <path class="cls-5" d="M487.51,343.85c-1.2-1.94-2.51-3.88-3.81-5.82l.1-.1c1.2,1.94,2.51,3.88,3.71,5.92Z"/>
        <path class="cls-5" d="M509.47,424.44v-3.01c0-1.94,0-3.98-.1-5.92.2,1.94.2,3.98.2,5.92,0,.97,0,1.94-.1,3.01Z"/>
        <path class="cls-1" d="M393.84,158.54c-1-.58-2.11-1.16-3.11-1.75-4.21-2.33-8.52-4.07-13.04-5.24-5.42-1.45-11.03-2.23-16.65-2.23-1.91,0-3.81.1-5.72.29-1.81.1-3.61.39-5.42.68-1.5.29-3.11.68-4.61,1.07-.9.19-1.91.48-2.81.87-1.7.39-3.31.97-4.91,1.65-.9.39-1.81.78-2.61,1.16-1,.39-2.01.87-3.01,1.45-.2.1-.4.19-.5.29-2.81,1.45-5.52,3.2-8.12,5.24,9.53-1.07,19.05-1.55,28.88-1.55,17.15,0,34,1.55,50.25,4.65-2.71-2.52-5.62-4.65-8.63-6.59ZM617.28,372.65c3.21,15.81,4.81,32.1,4.81,48.78,0,65.75-25.37,125.96-67.19,171.93l38.61,33.75c48.84-53.43,78.93-123.25,80.43-199.66l-56.66-54.79ZM82.34,421.43c0-9.7.5-19.2,1.71-28.61l-52.85,51.01v.1c9.23,124.51,94.27,228.75,210.61,269.87l44.93-39.37c-117.24-28.31-204.39-131.01-204.39-252.99Z"/>
      </g>
      <g>
        <path class="cls-5" d="M487.51,343.85c-1.2-1.94-2.51-3.88-3.81-5.82l.1-.1c1.2,1.94,2.51,3.88,3.71,5.92Z"/>
        <path class="cls-5" d="M509.47,424.44v-3.01c0-1.94,0-3.98-.1-5.92.2,1.94.2,3.98.2,5.92,0,.97,0,1.94-.1,3.01Z"/>
        <path class="cls-6" d="M518.2,304.68l-34.5,33.36c1.3,1.94,2.61,3.88,3.81,5.82,1.2,1.94,2.31,3.98,3.41,6.01,2.21,3.98,4.31,8.15,6.22,12.41,2.01,4.56,3.81,9.21,5.32,13.96.6,1.75,1.1,3.59,1.6,5.43.5,1.75,1,3.59,1.4,5.43.4,1.84.8,3.68,1.2,5.53.8,3.68,1.4,7.47,1.81,11.35.4,3.78.7,7.66.9,11.54.1,1.94.1,3.98.1,5.92v3.01c0,.97-.1,1.94-.1,2.91-.2,3.88-.5,7.76-.9,11.54-.4,3.88-1,7.66-1.81,11.35-.4,1.84-.8,3.68-1.2,5.53-.4,1.65-.8,3.3-1.2,4.95-.6,2.04-1.1,3.98-1.81,5.92-1.5,4.75-3.31,9.41-5.32,13.96-1.9,4.56-4.11,9.02-6.62,13.28-2.41,4.36-5.01,8.53-7.82,12.51,0,0-.1,0-.1.1-1.4,2.04-2.91,4.07-4.41,6.01-3.01,3.88-6.22,7.56-9.63,11.15-1.7,1.75-3.41,3.49-5.22,5.24-1.1,1.07-2.21,2.13-3.41,3.2-1.1.97-2.31,2.04-3.41,3.01-2.11,1.84-4.21,3.59-6.42,5.24-.6.48-1.3.97-1.91,1.45-2.11,1.55-4.31,3.1-6.52,4.65-4.61,3.1-9.43,5.92-14.44,8.63-1,.48-1.91.97-2.91,1.45-.1.1-.2.1-.3.19-2.01.97-4.11,1.94-6.22,2.91-.4.19-.8.39-1.2.58-2.81,1.16-5.62,2.33-8.42,3.3-1.2.48-2.51.97-3.71,1.36l-5.42,1.75c-2.51.78-5.01,1.45-7.52,2.13-2.51.68-5.01,1.16-7.62,1.65-1.3.29-2.61.48-3.91.68-2.51.48-5.11.87-7.72,1.16-2.71.39-5.42.68-8.12.78-3.91.39-7.92.49-11.93.49-3.71,0-7.32-.1-10.93-.39-1.5-.1-3.01-.19-4.51-.39-1.6-.19-3.21-.29-4.81-.48l-1.81-.29c-1.81-.19-3.71-.48-5.52-.87-4.01-.58-7.92-1.45-11.83-2.42-4.91-1.26-9.83-2.72-14.54-4.36-1.3-.48-2.51-.97-3.71-1.45-1.3-.48-2.51-.87-3.71-1.45-2.51-.97-4.91-2.04-7.32-3.2-2.11-.97-4.11-1.94-6.12-3.1-1.5-.78-3.01-1.55-4.41-2.42-.6-.29-1.1-.58-1.6-.87-2.41-1.36-4.81-2.81-7.12-4.36-2.01-1.26-4.01-2.72-6.02-4.17-2.01-1.36-4.01-2.91-6.02-4.56h-.1c-3.81-3.01-7.52-6.3-11.03-9.79-1.91-1.84-3.71-3.68-5.52-5.62-1.4-1.45-2.81-3.01-4.11-4.56-1.4-1.55-2.71-3.2-4.01-4.85-1.3-1.45-2.41-3.01-3.51-4.65-2.21-2.91-4.31-5.82-6.22-8.92-2.71-4.17-5.11-8.53-7.22-12.9-1.2-2.23-2.21-4.46-3.21-6.79-1-2.23-1.91-4.56-2.81-6.89-1.81-4.65-3.31-9.41-4.61-14.25-.7-2.42-1.3-4.85-1.71-7.37-.6-2.42-1.1-4.85-1.4-7.37,0,0-.1-.1,0-.19,0-.1-.1-.29-.1-.39-.4-2.33-.7-4.65-.9-7.18-.6-5.04-.9-10.28-.9-15.52s.3-10.47.9-15.51c.2-2.52.5-4.85.9-7.18,0-.1.1-.29.1-.39-.1-.1,0-.19,0-.19.3-2.52.8-4.95,1.4-7.37.4-2.52,1-4.95,1.71-7.37,1.3-4.85,2.81-9.6,4.61-14.25.9-2.33,1.81-4.65,2.81-6.89,1-2.33,2.01-4.56,3.21-6.79,2.11-4.36,4.51-8.73,7.22-12.9,1.6-2.62,3.41-5.24,5.22-7.66,1.2-1.84,2.51-3.59,3.91-5.24,1.2-1.65,2.51-3.2,3.81-4.75.3-.29.5-.58.8-.87,1.3-1.55,2.71-3.1,4.11-4.56,1.81-1.94,3.61-3.78,5.52-5.62,3.51-3.49,7.22-6.79,11.03-9.79h.1c2.01-1.65,4.01-3.2,6.02-4.56,2.01-1.45,4.01-2.91,6.02-4.17,2.31-1.55,4.71-3.01,7.12-4.36,3.91-2.33,8.02-4.46,12.13-6.4.4-.19.7-.29,1.1-.48,2.11-.97,4.31-1.94,6.52-2.81,1.3-.58,2.81-1.16,4.21-1.65,1.71-.68,3.51-1.36,5.22-1.84,1.7-.68,3.31-1.16,5.01-1.65,1.81-.58,3.61-1.07,5.52-1.55,1.5-.39,3.11-.78,4.71-1.16,2.01-.49,4.01-.97,6.02-1.26,1.6-.39,3.11-.58,4.71-.78,2.01-.39,3.91-.68,5.92-.87,1.4-.19,2.91-.39,4.31-.48,1.5-.19,3.01-.29,4.51-.39,3.61-.29,7.22-.39,10.93-.39,2.31,0,4.51,0,6.72.19,2.21,0,4.41.19,6.52.39,1.7.19,3.31.29,4.91.49,1.6.1,3.21.29,4.71.58,1.6.19,3.21.48,4.71.78,2.51.39,4.91.78,7.22,1.36,3.11.68,6.12,1.45,9.13,2.33.4.1.8.19,1.2.29,3.31.97,6.62,2.04,9.93,3.2,2.61.97,5.22,2.04,7.82,3.1,1.3.58,2.61,1.16,3.91,1.75,2.81,1.26,5.52,2.62,8.22,3.98.4.29.9.48,1.3.78,1.4.78,2.81,1.55,4.21,2.33,1.4.78,2.81,1.55,4.11,2.42l34.5-33.45c-33.6-23.18-74.72-36.85-119.14-36.85-113.33,0-205.29,88.82-205.29,198.5s90.46,196.95,202.48,198.3l55.56-48.58c17.05-14.93,39.61-22.4,62.18-22.4,12.44,0,24.77,2.23,36.3,6.89,33.5-35.3,53.96-82.42,53.96-134.21,0-43.64-14.54-83.98-39.21-116.75Z"/>
      </g>
      <path d="M786.67,77.19l-82.04,79.32-62.88,15.03-116.14,112.39h-.1l-13.44,12.99-34.2,33.07-.1.1-49.84,48.19c17.55,30.64,12.94,70.11-13.94,96.1-16.25,15.71-37.61,23.56-58.97,23.56s-42.72-7.85-58.97-23.56c-32.49-31.42-32.49-82.62,0-114.04,16.25-15.71,37.61-23.56,58.87-23.56,14.04,0,27.98,3.39,40.52,10.18l49.74-48.19,34.3-33.07,13.54-13.19h.1l116.14-112.39,15.65-60.8L706.84,0v77.19h79.83Z"/>
      <path d="M634.05,738.01l-34.59-30.12-36.14-31.62-33.39-29.12-20.4-17.81c-7.74-6.74-18.76-10.65-30.29-10.65-.86,0-1.63,0-2.49.08-10.59.5-20.65,4.33-27.8,10.57l-7.66,6.74h-.09s-166.68,127.61-221.04,171.66c-.7.57-1.14,1.2-1.46,1.75-.36.63-.6,1.25-.6,1.83v493.09h154.52v-216.76c0-16.81,7.23-32.45,20.39-44.02l4.82-4.24,61.01-53.25,74.01-64.74c16.01-13.98,37.26-21.72,59.64-21.72s42.51,7.32,58.35,20.72c.43.25.86.67,1.29,1l11.53,9.98v-167.5l-29.6-25.88ZM407.77,807.12c-.36-2.66-.58-5.4-.58-8.2,0-11.07,3.04-21.45,8.41-30.35,10.87-18.08,31.1-30.21,54.23-30.21,10.95,0,21.17,2.73,30.09,7.43,12.18,6.45,21.89,16.68,27.4,29.02,3.33,7.43,5.15,15.56,5.15,24.11,0,10.23-2.61,19.84-7.18,28.25-10.51,19.21-31.39,32.31-55.46,32.31-11.82,0-22.84-3.15-32.19-8.62-15.95-9.25-27.26-25.16-29.87-43.74Z"/>
    </g>
  </g>
</svg>