<?xml version="1.0" encoding="UTF-8"?>
<svg id="Camada_2" data-name="Camada 2" xmlns="http://www.w3.org/2000/svg" viewBox="0 0 1421.8 473.05">
  <defs>
    <style>
      .cls-1 {
        fill: gray;
      }

      .cls-2 {
        fill: #4d4d4d;
      }

      .cls-3 {
        fill: #ccc;
      }

      .cls-4 {
        fill: #303030;
      }

      .cls-5 {
        fill: #fff;
      }

      .cls-6 {
        fill: #1a1a1a;
      }
    </style>
  </defs>
  <g id="Camada_1-2" data-name="Camada 1">
    <g>
      <g>
        <path d="M246.11,370.26v83.46c0,10.63-8.91,19.21-19.9,19.21h-71.66v-77.1c0-2.3,1.03-4.48,2.9-6.12l22.5-19.66,21.44-18.74h.03c.41-.34.81-.68,1.22-.97h.03c.41-.29.84-.58,1.27-.84.43-.26.89-.5,1.38-.71h.03c.22-.1.46-.18.68-.29.05,0,.08-.03.14-.05.11-.05.22-.08.3-.1.08-.05.19-.1.3-.13h.05c.3-.13.62-.24.97-.31.03,0,.05-.03.08-.03s.08-.03.11-.03c.27-.08.51-.13.76-.18.05-.03.11-.05.16-.05.6-.13,1.16-.24,1.76-.29.32-.05.62-.08.95-.1.43-.03.87-.05,1.3-.05.38,0,.73,0,1.11.03.05,0,.11,0,.16.03.22,0,.46.03.68.05.68.05,1.35.18,2.03.34.11.03.24.05.35.08h.11c.16.05.3.08.43.13.27.05.51.13.78.24.19.05.41.13.6.21.08.03.14.05.22.08t.05.03c.05.03.08.03.14.05.05,0,.08.03.14.05.03-.03.05-.03.05.03h.03c.14.05.27.1.38.16.11.03.22.08.32.1.05.03.08.05.11.05v.03c.27.13.57.29.84.42.05.03.11.05.16.08l.05.03c.08.05.16.1.24.13.08.05.19.1.3.18t.05.05c.11.05.22.1.32.18.03,0,.05.03.08.05.19.1.38.24.54.37.43.29.84.63,1.25.97l9.18,8.04,12.48,10.89.03.03Z"/>
        <g>
          <path class="cls-5" d="M127.7,58.19c-3.56,0-7.02.18-10.47.56.95-.74,1.93-1.37,2.95-1.9.04-.04.11-.07.18-.11.36-.21.73-.39,1.09-.53.29-.14.62-.28.95-.42.58-.25,1.16-.46,1.78-.6.33-.14.69-.25,1.02-.32.55-.14,1.13-.28,1.67-.39.65-.11,1.31-.21,1.96-.25.69-.07,1.38-.11,2.07-.11,2.04,0,4.07.28,6.04.81,1.64.42,3.2,1.05,4.73,1.9.36.21.76.42,1.13.63,1.24.74,2.4,1.62,3.45,2.64-.11-.11-.22-.18-.33-.25-5.89-1.13-12-1.69-18.22-1.69Z"/>
          <path d="M130.9,54.14c-.69,0-1.38.04-2.07.11-.65.04-1.31.14-1.96.25-.55.11-1.13.25-1.67.39-.33.07-.69.18-1.02.32-.62.14-1.2.35-1.78.6-.33.14-.65.28-.95.42-.36.14-.73.32-1.09.53-.07.04-.15.07-.18.11-1.02.53-2,1.16-2.95,1.9,3.45-.39,6.91-.56,10.47-.56,6.22,0,12.33.56,18.22,1.69.11.07.22.14.33.25-1.05-1.02-2.22-1.9-3.45-2.64-.36-.21-.76-.42-1.13-.63-1.53-.84-3.09-1.48-4.73-1.9-1.96-.53-4-.81-6.04-.81h0Z"/>
        </g>
        <g>
          <path class="cls-5" d="M176.75,124.67c-.44-.7-.91-1.41-1.38-2.11l.04-.04c.44.7.91,1.41,1.35,2.14Z"/>
          <path class="cls-5" d="M184.72,153.89v-1.09c0-.7,0-1.44-.04-2.14.07.7.07,1.44.07,2.14,0,.35,0,.7-.04,1.09Z"/>
          <path d="M54.91,449.85v21.06c-18.94-4.04-37.31-9.63-54.87-16.63h-.04v-22.36h.04c17.53,7.56,35.85,13.57,54.87,17.93Z"/>
        </g>
        <g>
          <path class="cls-5" d="M176.75,124.67c-.44-.7-.91-1.41-1.38-2.11l.04-.04c.44.7.91,1.41,1.35,2.14Z"/>
          <path class="cls-5" d="M184.72,153.89v-1.09c0-.7,0-1.44-.04-2.14.07.7.07,1.44.07,2.14,0,.35,0,.7-.04,1.09Z"/>
          <path class="cls-4" d="M54.91,404.56v21.45c-19.13-4.75-37.45-11.29-54.87-19.51h-.04v-23.38s.04,0,.04.04c5.49,2.85,11.09,5.52,16.8,8.02,1.49.67,3.02,1.3,4.55,1.93.55.21,1.09.46,1.64.67,1.89.81,3.85,1.55,5.78,2.29.55.21,1.13.42,1.67.63,1.78.67,3.56,1.34,5.35,1.93,1.31.49,2.65.95,4,1.37.51.18,1.02.35,1.56.49,1.82.63,3.64,1.2,5.49,1.76,1.02.32,2.04.63,3.05.91,1.42.42,2.84.81,4.29,1.2.22.07.47.14.69.21Z"/>
        </g>
        <g>
          <path class="cls-5" d="M176.75,124.67c-.44-.7-.91-1.41-1.38-2.11l.04-.04c.44.7.91,1.41,1.35,2.14Z"/>
          <path class="cls-5" d="M184.72,153.89v-1.09c0-.7,0-1.44-.04-2.14.07.7.07,1.44.07,2.14,0,.35,0,.7-.04,1.09Z"/>
          <path class="cls-2" d="M54.91,358.93v21.34c-19.42-5.77-37.82-13.82-54.87-23.8,0-.04-.04-.04-.04-.04v-24.29s.04,0,.04.04c2.25,1.51,4.55,2.99,6.87,4.39,2.18,1.37,4.4,2.71,6.65,3.97,2,1.13,4,2.25,6.04,3.3,1.93,1.05,3.85,2.04,5.82,2.99.47.25.95.49,1.42.7,1.85.91,3.75,1.79,5.64,2.6.47.28.98.49,1.45.67,1.67.77,3.35,1.51,5.02,2.14.95.46,1.85.84,2.8,1.16,1.45.63,2.91,1.2,4.36,1.72.87.35,1.75.67,2.62.95,2.04.77,4.11,1.51,6.18,2.14Z"/>
          <path class="cls-5" d="M228.68,348.63c-.36-.18-.76-.39-1.13-.56v-.04c.4.18.76.39,1.13.6Z"/>
        </g>
        <g>
          <path class="cls-5" d="M176.75,124.67c-.44-.7-.91-1.41-1.38-2.11l.04-.04c.44.7.91,1.41,1.35,2.14Z"/>
          <path class="cls-5" d="M184.72,153.89v-1.09c0-.7,0-1.44-.04-2.14.07.7.07,1.44.07,2.14,0,.35,0,.7-.04,1.09Z"/>
          <path d="M.04,276.66l-.04-.04v26.47l.04.04c16.36,12.94,34.83,23.52,54.87,31.01v-21.2c-20.58-8.75-39.13-21.13-54.87-36.28Z"/>
        </g>
        <g>
          <path class="cls-5" d="M176.75,124.67c-.44-.7-.91-1.41-1.38-2.11l.04-.04c.44.7.91,1.41,1.35,2.14Z"/>
          <path class="cls-5" d="M184.72,153.89v-1.09c0-.7,0-1.44-.04-2.14.07.7.07,1.44.07,2.14,0,.35,0,.7-.04,1.09Z"/>
          <path class="cls-3" d="M261.73,181.27c-5.09,22.47-16.07,42.79-31.31,59.42l14.51,12.66c6.33-6.82,11.96-14.2,16.87-22.04v-48.76c0-.42,0-.84-.07-1.27ZM.04,201.56s-.04-.03-.04-.07v39.17s0,.03.04.03c14.54,19.76,33.93,36,56.4,47.11.95-1.97,2.36-3.8,4.15-5.34l10.22-8.93C38.65,259.32,13.13,233.45.04,201.56Z"/>
        </g>
        <g>
          <path class="cls-5" d="M201.89,148.35c-.44-.7-.91-1.41-1.38-2.11l.04-.04c.44.7.91,1.41,1.35,2.14Z"/>
          <path class="cls-5" d="M209.86,177.57v-1.09c0-.7,0-1.44-.04-2.14.07.7.07,1.44.07,2.14,0,.35,0,.7-.04,1.09Z"/>
          <path class="cls-3" d="M255.56,264.38l6.24,5.45v-12.78c-1.98,2.52-4.07,4.96-6.24,7.33Z"/>
        </g>
        <g>
          <path class="cls-5" d="M176.75,124.67c-.44-.7-.91-1.41-1.38-2.11l.04-.04c.44.7.91,1.41,1.35,2.14Z"/>
          <path class="cls-5" d="M184.72,153.89v-1.09c0-.7,0-1.44-.04-2.14.07.7.07,1.44.07,2.14,0,.35,0,.7-.04,1.09Z"/>
          <path class="cls-1" d="M142.79,57.48c-.36-.21-.76-.42-1.13-.63-1.53-.84-3.09-1.48-4.73-1.9-1.96-.53-4-.81-6.04-.81-.69,0-1.38.04-2.07.11-.65.04-1.31.14-1.96.25-.55.11-1.13.25-1.67.39-.33.07-.69.18-1.02.32-.62.14-1.2.35-1.78.6-.33.14-.65.28-.95.42-.36.14-.73.32-1.09.53-.07.03-.15.07-.18.11-1.02.53-2,1.16-2.95,1.9,3.45-.39,6.91-.56,10.47-.56,6.22,0,12.33.56,18.22,1.69-.98-.91-2.04-1.69-3.13-2.39ZM223.81,135.11c1.16,5.73,1.75,11.64,1.75,17.68,0,23.84-9.2,45.67-24.36,62.34l14,12.23c17.71-19.37,28.62-44.69,29.16-72.39l-20.54-19.86ZM29.85,152.8c0-3.52.18-6.96.62-10.37l-19.16,18.49v.04c3.35,45.14,34.18,82.94,76.36,97.84l16.29-14.27c-42.51-10.27-74.1-47.5-74.1-91.73Z"/>
        </g>
        <g>
          <path class="cls-5" d="M176.75,124.67c-.44-.7-.91-1.41-1.38-2.11l.04-.04c.44.7.91,1.41,1.35,2.14Z"/>
          <path class="cls-5" d="M184.72,153.89v-1.09c0-.7,0-1.44-.04-2.14.07.7.07,1.44.07,2.14,0,.35,0,.7-.04,1.09Z"/>
          <path class="cls-6" d="M187.88,110.47l-12.51,12.09c.47.7.95,1.41,1.38,2.11.44.7.84,1.44,1.24,2.18.8,1.44,1.56,2.95,2.25,4.5.73,1.65,1.38,3.34,1.93,5.06.22.63.4,1.3.58,1.97.18.63.36,1.3.51,1.97.15.67.29,1.34.44,2,.29,1.34.51,2.71.65,4.11.15,1.37.25,2.78.33,4.18.04.7.04,1.44.04,2.14v1.09c0,.35-.04.7-.04,1.05-.07,1.41-.18,2.81-.33,4.18-.15,1.41-.36,2.78-.65,4.11-.15.67-.29,1.34-.44,2-.15.6-.29,1.2-.44,1.79-.22.74-.4,1.44-.65,2.14-.55,1.72-1.2,3.41-1.93,5.06-.69,1.65-1.49,3.27-2.4,4.82-.87,1.58-1.82,3.09-2.84,4.54,0,0-.04,0-.04.04-.51.74-1.05,1.48-1.6,2.18-1.09,1.41-2.25,2.74-3.49,4.04-.62.63-1.24,1.27-1.89,1.9-.4.39-.8.77-1.24,1.16-.4.35-.84.74-1.24,1.09-.76.67-1.53,1.3-2.33,1.9-.22.18-.47.35-.69.53-.76.56-1.56,1.13-2.36,1.69-1.67,1.13-3.42,2.14-5.24,3.13-.36.18-.69.35-1.05.53-.04.03-.07.03-.11.07-.73.35-1.49.7-2.25,1.05-.15.07-.29.14-.44.21-1.02.42-2.04.84-3.05,1.2-.44.18-.91.35-1.35.49l-1.96.63c-.91.28-1.82.53-2.73.77s-1.82.42-2.76.6c-.47.11-.95.18-1.42.25-.91.18-1.85.32-2.8.42-.98.14-1.96.25-2.95.28-1.42.14-2.87.18-4.33.18-1.35,0-2.65-.04-3.96-.14-.55-.04-1.09-.07-1.64-.14-.58-.07-1.16-.11-1.75-.18l-.65-.11c-.65-.07-1.35-.18-2-.32-1.45-.21-2.87-.53-4.29-.88-1.78-.46-3.56-.98-5.27-1.58-.47-.18-.91-.35-1.35-.53-.47-.18-.91-.32-1.35-.53-.91-.35-1.78-.74-2.65-1.16-.76-.35-1.49-.7-2.22-1.13-.55-.28-1.09-.56-1.6-.88-.22-.11-.4-.21-.58-.32-.87-.49-1.75-1.02-2.58-1.58-.73-.46-1.45-.98-2.18-1.51-.73-.49-1.45-1.05-2.18-1.65h-.04c-1.38-1.09-2.73-2.29-4-3.55-.69-.67-1.35-1.34-2-2.04-.51-.53-1.02-1.09-1.49-1.65-.51-.56-.98-1.16-1.45-1.76-.47-.53-.87-1.09-1.27-1.69-.8-1.05-1.56-2.11-2.25-3.23-.98-1.51-1.85-3.09-2.62-4.68-.44-.81-.8-1.62-1.16-2.46-.36-.81-.69-1.65-1.02-2.5-.65-1.69-1.2-3.41-1.67-5.17-.25-.88-.47-1.76-.62-2.67-.22-.88-.4-1.76-.51-2.67,0,0-.04-.04,0-.07,0-.04-.04-.11-.04-.14-.15-.84-.25-1.69-.33-2.6-.22-1.83-.33-3.73-.33-5.63s.11-3.8.33-5.63c.07-.91.18-1.76.33-2.6,0-.04.04-.11.04-.14-.04-.03,0-.07,0-.07.11-.91.29-1.79.51-2.67.15-.91.36-1.79.62-2.67.47-1.76,1.02-3.48,1.67-5.17.33-.84.65-1.69,1.02-2.5.36-.84.73-1.65,1.16-2.46.76-1.58,1.64-3.16,2.62-4.68.58-.95,1.24-1.9,1.89-2.78.44-.67.91-1.3,1.42-1.9.44-.6.91-1.16,1.38-1.72.11-.11.18-.21.29-.32.47-.56.98-1.13,1.49-1.65.65-.7,1.31-1.37,2-2.04,1.27-1.27,2.62-2.46,4-3.55h.04c.73-.6,1.45-1.16,2.18-1.65.73-.53,1.45-1.05,2.18-1.51.84-.56,1.71-1.09,2.58-1.58,1.42-.84,2.91-1.62,4.4-2.32.15-.07.25-.11.4-.18.76-.35,1.56-.7,2.36-1.02.47-.21,1.02-.42,1.53-.6.62-.25,1.27-.49,1.89-.67.62-.25,1.2-.42,1.82-.6.65-.21,1.31-.39,2-.56.55-.14,1.13-.28,1.71-.42.73-.18,1.45-.35,2.18-.46.58-.14,1.13-.21,1.71-.28.73-.14,1.42-.25,2.15-.32.51-.07,1.05-.14,1.56-.18.55-.07,1.09-.11,1.64-.14,1.31-.11,2.62-.14,3.96-.14.84,0,1.64,0,2.44.07.8,0,1.6.07,2.36.14.62.07,1.2.11,1.78.18.58.04,1.16.11,1.71.21.58.07,1.16.18,1.71.28.91.14,1.78.28,2.62.49,1.13.25,2.22.53,3.31.84.15.04.29.07.44.11,1.2.35,2.4.74,3.6,1.16.95.35,1.89.74,2.84,1.12.47.21.95.42,1.42.63,1.02.46,2,.95,2.98,1.44.15.11.33.18.47.28.51.28,1.02.56,1.53.84s1.02.56,1.49.88l12.51-12.13c-12.18-8.4-27.09-13.36-43.2-13.36-41.09,0-74.43,32.2-74.43,71.97s32.8,71.41,73.41,71.9l20.14-17.61c6.18-5.41,14.36-8.12,22.54-8.12,4.51,0,8.98.81,13.16,2.5,12.14-12.8,19.56-29.88,19.56-48.66,0-15.82-5.27-30.45-14.22-42.33Z"/>
        </g>
        <path d="M285.22,27.99l-29.74,28.76-22.8,5.45-42.11,40.75h-.04l-4.87,4.71-12.4,11.99-.04.04-18.07,17.47c6.36,11.11,4.69,25.42-5.05,34.84-5.89,5.7-13.64,8.54-21.38,8.54s-15.49-2.85-21.38-8.54c-11.78-11.39-11.78-29.95,0-41.35,5.89-5.7,13.64-8.54,21.34-8.54,5.09,0,10.15,1.23,14.69,3.69l18.04-17.47,12.44-11.99,4.91-4.78h.04l42.11-40.75,5.67-22.04L256.28,0v27.99h28.94Z"/>
        <path d="M229.89,267.58l-12.54-10.92-13.1-11.46-12.11-10.56-7.39-6.46c-2.81-2.44-6.8-3.86-10.98-3.86-.31,0-.59,0-.9.03-3.84.18-7.49,1.57-10.08,3.83l-2.78,2.44h-.03s-60.43,46.27-80.14,62.24c-.25.21-.41.43-.53.63-.13.23-.22.45-.22.66v178.78h56.02v-78.59c0-6.09,2.62-11.77,7.39-15.96l1.75-1.54,22.12-19.31,26.83-23.47c5.8-5.07,13.51-7.87,21.62-7.87s15.41,2.65,21.15,7.51c.16.09.31.24.47.36l4.18,3.62v-60.73l-10.73-9.38ZM147.84,292.64c-.13-.97-.21-1.96-.21-2.97,0-4.02,1.1-7.78,3.05-11,3.94-6.56,11.28-10.95,19.66-10.95,3.97,0,7.68.99,10.91,2.69,4.42,2.34,7.94,6.05,9.94,10.52,1.21,2.69,1.87,5.64,1.87,8.74,0,3.71-.95,7.19-2.6,10.24-3.81,6.96-11.38,11.72-20.11,11.72-4.28,0-8.28-1.14-11.67-3.13-5.78-3.35-9.88-9.12-10.83-15.86Z"/>
      </g>
      <g>
        <g>
          <path d="M1110.88,111.07c3.55,10.23,1.24,22.06-6.92,30.21-11.37,11.37-29.86,11.37-41.23,0-11.37-11.37-11.37-29.86,0-41.23,8.16-8.16,19.98-10.46,30.22-6.91,2.29.79,4.51,1.89,6.59,3.27l-6.59,9.88c-6.72-4.49-15.9-3.77-21.83,2.15-6.74,6.74-6.74,17.71,0,24.46,6.74,6.74,17.71,6.74,24.46,0,5.92-5.92,6.64-15.11,2.15-21.83l9.88-6.59,42.67-28.49,28.15-18.79-30.06-1.55-1.55-30.06-18.79,28.15c-2.04-1.37-4.12-2.63-6.25-3.78-30.52-16.61-69.51-12-95.33,13.82-31.42,31.42-31.43,82.37,0,113.79,31.42,31.42,82.37,31.42,113.8,0,25.82-25.82,30.42-64.8,13.82-95.33l-43.18,28.83Z"/>
          <path d="M465.69,43.36c-14.36,0-27.83,3.84-39.48,10.58l-.06-.36h-41.27v189.13h43.96v-49.75c11.03,5.82,23.55,9.1,36.85,9.1,43.76,0,79.35-35.59,79.35-79.35s-35.59-79.35-79.35-79.35ZM491.22,124.03c-.7,13.49-11.87,24.25-25.53,24.25s-25.56-11.45-25.56-25.56,11.45-25.56,25.56-25.56,24.83,10.75,25.53,24.25c.03.45.03.87.03,1.32s0,.87-.03,1.32Z"/>
          <path d="M629.73,43.36c-43.76,0-79.37,35.59-79.37,79.35s35.61,79.35,79.37,79.35,79.35-35.59,79.35-79.35-35.59-79.35-79.35-79.35ZM629.73,148.27c-14.11,0-25.56-11.45-25.56-25.56s11.45-25.56,25.56-25.56,25.53,11.45,25.53,25.56-11.42,25.56-25.53,25.56Z"/>
          <path d="M800.07,49.83c-44.46,0-71.79,19.04-71.79,64.56v77.42h43.93v-77.42c0-16.88,8.57-27.33,27.86-27.33s27.86,10.44,27.86,27.33v77.42h43.93v-77.42c0-45.52-27.33-64.56-71.79-64.56Z"/>
          <path d="M957.84,53.58V16.62h-43.93v36.96h-28.67v37.24h28.67v100.99h43.93v-100.99h34.02v-37.24h-34.02Z"/>
        </g>
        <g>
          <path d="M697.12,349.13c0-42.64-26.91-67.95-69.55-67.95-45.3,0-75.96,23.43-75.96,72.46s29.85,72.49,75.96,72.49c35.17,0,58.07-17.86,66.08-42.36h-42.64c-4.79,6.66-13.58,10.67-23.97,10.67-17.05,0-29.31-9.88-31.97-29.31h100.99c.78-5.6,1.06-10.95,1.06-15.99ZM595.85,337.12c3.75-15.46,15.99-24.25,29.06-24.25s26.09,6.94,29.03,24.25h-58.1Z"/>
          <path d="M765.05,305.68h-2.66l-2.66-20.77h-41.05v137.5h43.71v-58.35c0-27.72,13.61-39.45,37.32-39.45,3.19,0,6.66,0,10.11.53v-40.23c-23.97,0-35.45,7.48-44.77,20.77Z"/>
          <path d="M900.14,264.13c5.07,0,11.2.78,18.11,1.85v-33.29c-10.39-2.41-20.77-4.28-29.82-4.28-27.19,0-46.65,11.73-46.65,45.83v10.67h-23.97v37.04h23.97v100.46h43.71v-100.46h32.76v-37.04h-32.76v-7.45c0-10.42,5.07-13.33,14.64-13.33Z"/>
          <path d="M1069.08,349.13c0-42.64-26.91-67.95-69.55-67.95-45.3,0-75.93,23.43-75.93,72.46s29.85,72.49,75.93,72.49c35.17,0,58.1-17.86,66.08-42.36h-42.61c-4.82,6.66-13.61,10.67-23.99,10.67-17.05,0-29.31-9.88-31.97-29.31h100.99c.78-5.6,1.06-10.95,1.06-15.99ZM967.81,337.12c3.75-15.46,15.99-24.25,29.06-24.25s26.12,6.94,29.03,24.25h-58.1Z"/>
          <path d="M1112.5,222.02c-14.39,0-24.78,10.39-24.78,24.78s10.39,24.78,24.78,24.78,24.78-10.39,24.78-24.78-10.39-24.78-24.78-24.78ZM1090.66,284.9v137.5h43.68v-137.5h-43.68Z"/>
          <path d="M1225.22,284.9v-36.76h-43.71v36.76h-28.53v37.04h28.53v100.46h43.71v-100.46h33.82v-37.04h-33.82Z"/>
          <path d="M1342.45,274.29c-43.76,0-79.35,35.61-79.35,79.35s35.59,79.37,79.35,79.37,79.35-35.61,79.35-79.37-35.59-79.35-79.35-79.35ZM1342.45,328.11c14.11,0,25.56,11.42,25.56,25.53s-11.45,25.56-25.56,25.56-25.56-11.45-25.56-25.56,11.45-25.53,25.56-25.53Z"/>
          <path d="M465.69,274.29c-14.5,0-28.11,3.92-39.81,10.78l-.03-.17h-41.02v188.15h43.68v-49.33c11.09,5.94,23.77,9.3,37.18,9.3,43.76,0,79.35-35.61,79.35-79.37s-35.59-79.35-79.35-79.35ZM465.69,379.2c-14.11,0-25.56-11.45-25.56-25.56s11.45-25.53,25.56-25.53,25.56,11.42,25.56,25.53-11.45,25.56-25.56,25.56Z"/>
        </g>
      </g>
    </g>
  </g>
</svg>