<?xml version="1.0" encoding="UTF-8"?>
<svg id="Camada_2" data-name="Camada 2" xmlns="http://www.w3.org/2000/svg" viewBox="0 0 780.14 1293.58">
  <defs>
    <style>
      .cls-1 {
        fill: gray;
      }

      .cls-2 {
        fill: #ccc;
      }

      .cls-3 {
        fill: #303030;
      }

      .cls-4 {
        fill: #fff;
      }
    </style>
  </defs>
  <g id="Camada_1-2" data-name="Camada 1">
    <g>
      <path class="cls-2" d="M673.17,1012.75v228.28c0,29.07-24.36,52.55-54.42,52.55h-195.99v-210.88c0-6.3,2.81-12.24,7.92-16.75l61.53-53.77,58.64-51.26h.07c1.11-.93,2.22-1.86,3.33-2.65h.07c1.11-.79,2.3-1.58,3.48-2.29,1.18-.72,2.44-1.36,3.78-1.93h.07c.59-.29,1.26-.5,1.85-.79.15,0,.22-.07.37-.14.3-.14.59-.21.81-.29.22-.14.52-.29.81-.36h.15c.81-.36,1.7-.64,2.67-.86.07,0,.15-.07.22-.07s.22-.07.3-.07c.74-.21,1.41-.36,2.07-.5.15-.07.3-.14.44-.14,1.63-.36,3.18-.64,4.81-.79.89-.14,1.7-.21,2.59-.29,1.18-.07,2.37-.14,3.55-.14,1.04,0,2,0,3.04.07.15,0,.3,0,.44.07.59,0,1.26.07,1.85.14,1.85.14,3.7.5,5.55.93.3.07.67.14.96.21h.3c.44.14.81.21,1.18.36.74.14,1.41.36,2.15.64.52.14,1.11.36,1.63.57.22.07.37.14.59.21q.07,0,.15.07c.15.07.22.07.37.14.15,0,.22.07.37.14.07-.07.15-.07.15.07h.07c.37.14.74.29,1.04.43.3.07.59.21.89.29.15.07.22.14.3.14v.07c.74.36,1.56.79,2.3,1.15.15.07.3.14.44.21l.15.07c.22.14.44.29.67.36.22.14.52.29.81.5q.07.07.15.14c.3.14.59.29.89.5.07,0,.15.07.22.14.52.29,1.04.64,1.48,1,1.18.79,2.3,1.72,3.41,2.65l25.1,21.98,34.13,29.78.07.07Z"/>
      <g>
        <path d="M349.29,159.15c-9.75,0-19.2.48-28.64,1.54,2.59-2.02,5.27-3.75,8.06-5.19.1-.1.3-.19.5-.29.99-.58,1.99-1.06,2.98-1.44.8-.38,1.69-.77,2.59-1.15,1.59-.67,3.18-1.25,4.87-1.63.9-.39,1.89-.67,2.79-.87,1.49-.38,3.08-.77,4.57-1.06,1.79-.29,3.58-.58,5.37-.67,1.89-.19,3.78-.29,5.67-.29,5.57,0,11.14.77,16.51,2.21,4.48,1.15,8.75,2.88,12.93,5.19.99.58,2.09,1.15,3.08,1.73,3.38,2.02,6.56,4.42,9.45,7.21-.3-.29-.6-.48-.89-.67-16.11-3.08-32.82-4.62-49.83-4.62Z"/>
        <path class="cls-2" d="M358.04,148.09c-1.89,0-3.78.1-5.67.29-1.79.1-3.58.38-5.37.67-1.49.29-3.08.67-4.57,1.06-.9.19-1.89.48-2.79.87-1.69.38-3.28.96-4.87,1.63-.9.38-1.79.77-2.59,1.15-.99.38-1.99.87-2.98,1.44-.2.1-.4.19-.5.29-2.79,1.44-5.47,3.17-8.06,5.19,9.45-1.06,18.9-1.54,28.64-1.54,17.01,0,33.72,1.54,49.83,4.62.3.19.6.39.89.67-2.88-2.79-6.07-5.19-9.45-7.21-.99-.58-2.09-1.15-3.08-1.73-4.18-2.31-8.45-4.04-12.93-5.19-5.37-1.44-10.94-2.21-16.51-2.21h0Z"/>
      </g>
      <g>
        <path class="cls-3" d="M483.46,341c-1.19-1.92-2.49-3.85-3.78-5.77l.1-.1c1.19,1.92,2.49,3.85,3.68,5.87Z"/>
        <path class="cls-3" d="M505.24,420.91v-2.98c0-1.92,0-3.94-.1-5.87.2,1.92.2,3.94.2,5.87,0,.96,0,1.92-.1,2.98Z"/>
        <path class="cls-3" d="M150.18,1230.42v57.6c-51.82-11.06-102.04-26.35-150.08-45.49h-.1v-61.16h.1c47.94,20.68,98.06,37.12,150.08,49.04Z"/>
      </g>
      <g>
        <path d="M483.46,341c-1.19-1.92-2.49-3.85-3.78-5.77l.1-.1c1.19,1.92,2.49,3.85,3.68,5.87Z"/>
        <path d="M505.24,420.91v-2.98c0-1.92,0-3.94-.1-5.87.2,1.92.2,3.94.2,5.87,0,.96,0,1.92-.1,2.98Z"/>
        <path class="cls-1" d="M150.18,1106.56v58.66c-52.31-12.98-102.44-30.87-150.08-53.37h-.1v-63.95s.1,0,.1.1c15.02,7.79,30.33,15.1,45.95,21.93,4.08,1.83,8.25,3.56,12.43,5.29,1.49.58,2.98,1.25,4.48,1.83,5.17,2.21,10.54,4.23,15.81,6.25,1.49.58,3.08,1.15,4.58,1.73,4.87,1.83,9.75,3.65,14.62,5.29,3.58,1.35,7.26,2.6,10.94,3.75,1.39.48,2.79.96,4.28,1.35,4.97,1.73,9.95,3.27,15.02,4.81,2.79.87,5.57,1.73,8.35,2.5,3.88,1.15,7.76,2.21,11.74,3.27.6.19,1.29.38,1.89.58Z"/>
      </g>
      <g>
        <path d="M483.46,341c-1.19-1.92-2.49-3.85-3.78-5.77l.1-.1c1.19,1.92,2.49,3.85,3.68,5.87Z"/>
        <path d="M505.24,420.91v-2.98c0-1.92,0-3.94-.1-5.87.2,1.92.2,3.94.2,5.87,0,.96,0,1.92-.1,2.98Z"/>
        <path class="cls-4" d="M150.18,981.74v58.37c-53.11-15.77-103.44-37.79-150.08-65.1,0-.1-.1-.1-.1-.1v-66.45s.1,0,.1.1c6.17,4.13,12.43,8.17,18.8,12.02,5.97,3.75,12.03,7.4,18.2,10.87,5.47,3.08,10.94,6.15,16.51,9.04,5.27,2.88,10.54,5.58,15.91,8.17,1.29.67,2.59,1.35,3.88,1.92,5.07,2.5,10.24,4.9,15.42,7.12,1.29.77,2.68,1.35,3.98,1.83,4.58,2.12,9.15,4.13,13.73,5.87,2.59,1.25,5.07,2.31,7.66,3.17,3.98,1.73,7.96,3.27,11.93,4.71,2.39.96,4.77,1.83,7.16,2.6,5.57,2.12,11.24,4.13,16.91,5.87Z"/>
        <path d="M625.48,953.57c-.99-.48-2.09-1.06-3.08-1.54v-.1c1.09.48,2.09,1.06,3.08,1.63Z"/>
      </g>
      <g>
        <path d="M483.46,341c-1.19-1.92-2.49-3.85-3.78-5.77l.1-.1c1.19,1.92,2.49,3.85,3.68,5.87Z"/>
        <path d="M505.24,420.91v-2.98c0-1.92,0-3.94-.1-5.87.2,1.92.2,3.94.2,5.87,0,.96,0,1.92-.1,2.98Z"/>
        <path class="cls-2" d="M.1,756.72l-.1-.1v72.41l.1.1c44.76,35.39,95.28,64.33,150.08,84.82v-57.99c-56.29-23.95-107.02-57.79-150.08-99.24Z"/>
      </g>
      <g>
        <path d="M483.46,341c-1.19-1.92-2.49-3.85-3.78-5.77l.1-.1c1.19,1.92,2.49,3.85,3.68,5.87Z"/>
        <path d="M505.24,420.91v-2.98c0-1.92,0-3.94-.1-5.87.2,1.92.2,3.94.2,5.87,0,.96,0,1.92-.1,2.98Z"/>
        <path class="cls-3" d="M715.89,495.82c-13.92,61.45-43.96,117.03-85.63,162.52l39.68,34.62c17.31-18.66,32.72-38.85,46.15-60.3v-133.38c0-1.15,0-2.31-.2-3.46ZM.1,551.31c0-.1-.1-.1-.1-.19v107.13s0,.1.1.1c39.78,54.04,92.79,98.47,154.26,128.86,2.59-5.39,6.46-10.39,11.34-14.62l27.95-24.43C105.72,709.31,35.9,638.53.1,551.31Z"/>
      </g>
      <g>
        <path d="M552.22,405.77c-1.19-1.92-2.49-3.85-3.78-5.77l.1-.1c1.19,1.92,2.49,3.85,3.68,5.87Z"/>
        <path d="M574.01,485.69v-2.98c0-1.92,0-3.94-.1-5.87.2,1.92.2,3.94.2,5.87,0,.96,0,1.92-.1,2.98Z"/>
        <path class="cls-3" d="M699.02,723.13l17.07,14.9v-34.95c-5.42,6.9-11.13,13.56-17.07,20.06Z"/>
      </g>
      <g>
        <path class="cls-1" d="M483.46,341c-1.19-1.92-2.49-3.85-3.78-5.77l.1-.1c1.19,1.92,2.49,3.85,3.68,5.87Z"/>
        <path class="cls-1" d="M505.24,420.91v-2.98c0-1.92,0-3.94-.1-5.87.2,1.92.2,3.94.2,5.87,0,.96,0,1.92-.1,2.98Z"/>
        <path class="cls-1" d="M390.57,157.23c-.99-.58-2.09-1.15-3.08-1.73-4.18-2.31-8.45-4.04-12.93-5.19-5.37-1.44-10.94-2.21-16.51-2.21-1.89,0-3.78.1-5.67.29-1.79.1-3.58.38-5.37.67-1.49.29-3.08.67-4.57,1.06-.9.19-1.89.48-2.79.87-1.69.38-3.28.96-4.87,1.63-.9.38-1.79.77-2.59,1.15-.99.38-1.99.87-2.98,1.44-.2.1-.4.19-.5.29-2.79,1.44-5.47,3.17-8.06,5.19,9.45-1.06,18.9-1.54,28.64-1.54,17.01,0,33.72,1.54,49.83,4.62-2.69-2.5-5.57-4.62-8.55-6.54ZM612.16,369.56c3.18,15.67,4.77,31.83,4.77,48.37,0,65.2-25.16,124.92-66.64,170.5l38.29,33.46c48.44-52.99,78.27-122.23,79.76-198l-56.19-54.33ZM81.65,417.93c0-9.62.5-19.04,1.69-28.37l-52.41,50.58v.1c9.15,123.48,93.49,226.85,208.86,267.63l44.56-39.04c-116.26-28.08-202.69-129.92-202.69-250.89Z"/>
      </g>
      <g>
        <path d="M483.46,341c-1.19-1.92-2.49-3.85-3.78-5.77l.1-.1c1.19,1.92,2.49,3.85,3.68,5.87Z"/>
        <path d="M505.24,420.91v-2.98c0-1.92,0-3.94-.1-5.87.2,1.92.2,3.94.2,5.87,0,.96,0,1.92-.1,2.98Z"/>
        <path class="cls-2" d="M513.89,302.15l-34.21,33.08c1.29,1.92,2.59,3.85,3.78,5.77,1.19,1.92,2.29,3.94,3.38,5.96,2.19,3.94,4.28,8.08,6.17,12.31,1.99,4.52,3.78,9.14,5.27,13.85.6,1.73,1.09,3.56,1.59,5.39.5,1.73.99,3.56,1.39,5.39.4,1.83.8,3.65,1.19,5.48.8,3.65,1.39,7.4,1.79,11.25.4,3.75.7,7.6.9,11.44.1,1.92.1,3.94.1,5.87v2.98c0,.96-.1,1.92-.1,2.89-.2,3.85-.5,7.69-.9,11.44-.4,3.85-.99,7.6-1.79,11.25-.4,1.83-.8,3.65-1.19,5.48-.4,1.63-.8,3.27-1.19,4.9-.6,2.02-1.09,3.94-1.79,5.87-1.49,4.71-3.28,9.33-5.27,13.85-1.89,4.52-4.08,8.94-6.56,13.17-2.39,4.33-4.97,8.46-7.76,12.4,0,0-.1,0-.1.1-1.39,2.02-2.88,4.04-4.38,5.96-2.98,3.85-6.17,7.5-9.55,11.06-1.69,1.73-3.38,3.46-5.17,5.19-1.09,1.06-2.19,2.12-3.38,3.17-1.09.96-2.29,2.02-3.38,2.98-2.09,1.83-4.18,3.56-6.36,5.19-.6.48-1.29.96-1.89,1.44-2.09,1.54-4.28,3.08-6.46,4.62-4.58,3.08-9.35,5.87-14.32,8.56-.99.48-1.89.96-2.88,1.44-.1.1-.2.1-.3.19-1.99.96-4.08,1.92-6.17,2.88-.4.19-.8.39-1.19.58-2.79,1.15-5.57,2.31-8.35,3.27-1.19.48-2.49.96-3.68,1.35l-5.37,1.73c-2.49.77-4.97,1.44-7.46,2.12-2.49.67-4.97,1.15-7.56,1.64-1.29.29-2.59.48-3.88.67-2.49.48-5.07.87-7.66,1.15-2.69.38-5.37.67-8.06.77-3.88.39-7.86.48-11.84.48-3.68,0-7.26-.1-10.84-.39-1.49-.1-2.98-.19-4.48-.38-1.59-.19-3.18-.29-4.77-.48l-1.79-.29c-1.79-.19-3.68-.48-5.47-.87-3.98-.58-7.86-1.44-11.74-2.4-4.87-1.25-9.75-2.69-14.42-4.33-1.29-.48-2.49-.96-3.68-1.44-1.29-.48-2.49-.87-3.68-1.44-2.49-.96-4.87-2.02-7.26-3.17-2.09-.96-4.08-1.92-6.07-3.08-1.49-.77-2.98-1.54-4.38-2.4-.6-.29-1.09-.58-1.59-.87-2.39-1.35-4.77-2.79-7.06-4.33-1.99-1.25-3.98-2.69-5.97-4.14-1.99-1.35-3.98-2.88-5.97-4.52h-.1c-3.78-2.98-7.46-6.25-10.94-9.71-1.89-1.83-3.68-3.65-5.47-5.58-1.39-1.44-2.79-2.98-4.08-4.52-1.39-1.54-2.68-3.17-3.98-4.81-1.29-1.44-2.39-2.98-3.48-4.62-2.19-2.89-4.28-5.77-6.17-8.85-2.68-4.13-5.07-8.46-7.16-12.79-1.19-2.21-2.19-4.42-3.18-6.73-.99-2.21-1.89-4.52-2.79-6.83-1.79-4.62-3.28-9.33-4.57-14.14-.7-2.4-1.29-4.81-1.69-7.31-.6-2.4-1.09-4.81-1.39-7.31,0,0-.1-.1,0-.19,0-.1-.1-.29-.1-.38-.4-2.31-.7-4.62-.9-7.12-.6-5-.89-10.19-.89-15.39s.3-10.39.89-15.39c.2-2.5.5-4.81.9-7.12,0-.1.1-.29.1-.39-.1-.1,0-.19,0-.19.3-2.5.8-4.9,1.39-7.31.4-2.5.99-4.9,1.69-7.31,1.29-4.81,2.78-9.52,4.57-14.14.9-2.31,1.79-4.62,2.79-6.83.99-2.31,1.99-4.52,3.18-6.73,2.09-4.33,4.48-8.65,7.16-12.79,1.59-2.6,3.38-5.19,5.17-7.6,1.19-1.83,2.49-3.56,3.88-5.19,1.19-1.64,2.49-3.17,3.78-4.71.3-.29.5-.58.8-.87,1.29-1.54,2.69-3.08,4.08-4.52,1.79-1.92,3.58-3.75,5.47-5.58,3.48-3.46,7.16-6.73,10.94-9.71h.1c1.99-1.63,3.98-3.17,5.97-4.52,1.99-1.44,3.98-2.89,5.97-4.14,2.29-1.54,4.67-2.98,7.06-4.33,3.88-2.31,7.96-4.42,12.03-6.35.4-.19.7-.29,1.09-.48,2.09-.96,4.28-1.92,6.46-2.79,1.29-.58,2.79-1.15,4.18-1.64,1.69-.67,3.48-1.35,5.17-1.83,1.69-.67,3.28-1.15,4.97-1.63,1.79-.58,3.58-1.06,5.47-1.54,1.49-.39,3.08-.77,4.67-1.15,1.99-.48,3.98-.96,5.97-1.25,1.59-.39,3.08-.58,4.67-.77,1.99-.38,3.88-.67,5.87-.87,1.39-.19,2.88-.38,4.28-.48,1.49-.19,2.98-.29,4.48-.38,3.58-.29,7.16-.39,10.84-.39,2.29,0,4.48,0,6.66.19,2.19,0,4.38.19,6.46.38,1.69.19,3.28.29,4.87.48,1.59.1,3.18.29,4.67.58,1.59.19,3.18.48,4.67.77,2.49.39,4.87.77,7.16,1.35,3.08.67,6.07,1.44,9.05,2.31.4.1.8.19,1.19.29,3.28.96,6.56,2.02,9.85,3.17,2.59.96,5.17,2.02,7.76,3.08,1.29.58,2.59,1.15,3.88,1.73,2.79,1.25,5.47,2.6,8.16,3.94.4.29.9.48,1.29.77,1.39.77,2.78,1.54,4.18,2.31,1.39.77,2.79,1.54,4.08,2.4l34.21-33.18c-33.32-22.98-74.1-36.54-118.15-36.54-112.39,0-203.59,88.09-203.59,196.85s89.71,195.31,200.8,196.66l55.1-48.18c16.91-14.81,39.28-22.21,61.66-22.21,12.33,0,24.57,2.21,36,6.83,33.22-35,53.51-81.74,53.51-133.09,0-43.27-14.42-83.28-38.89-115.78Z"/>
      </g>
      <path class="cls-2" d="M780.14,76.55l-81.36,78.66-62.36,14.91-115.17,111.45h-.1l-13.33,12.89-33.92,32.79-.1.1-49.43,47.79c17.4,30.39,12.83,69.53-13.82,95.3-16.11,15.58-37.3,23.37-58.48,23.37s-42.37-7.79-58.48-23.37c-32.22-31.16-32.22-81.93,0-113.09,16.11-15.58,37.3-23.37,58.38-23.37,13.92,0,27.75,3.37,40.18,10.1l49.33-47.79,34.01-32.79,13.43-13.08h.1l115.17-111.45,15.52-60.3L700.97,0v76.55h79.17Z"/>
      <path class="cls-2" d="M628.78,731.88l-34.31-29.87-35.84-31.36-33.11-28.88-20.23-17.66c-7.68-6.68-18.6-10.56-30.04-10.56-.85,0-1.62,0-2.47.08-10.5.49-20.48,4.29-27.57,10.48l-7.6,6.68h-.09s-165.29,126.55-219.2,170.23c-.7.56-1.13,1.19-1.45,1.73-.36.62-.6,1.24-.6,1.82v488.99h153.23v-214.96c0-16.67,7.17-32.18,20.23-43.65l4.78-4.21,60.51-52.81,73.39-64.2c15.87-13.86,36.95-21.54,59.14-21.54s42.16,7.26,57.86,20.55c.43.25.85.66,1.28.99l11.44,9.9v-166.11l-29.36-25.66ZM404.38,800.42c-.36-2.64-.57-5.35-.57-8.13,0-10.98,3.02-21.27,8.34-30.1,10.78-17.93,30.84-29.96,53.78-29.96,10.86,0,20.99,2.71,29.84,7.37,12.08,6.4,21.71,16.54,27.18,28.78,3.31,7.37,5.1,15.43,5.1,23.91,0,10.15-2.59,19.67-7.12,28.01-10.42,19.05-31.13,32.05-55,32.05-11.72,0-22.65-3.13-31.92-8.55-15.82-9.18-27.03-24.96-29.62-43.38Z"/>
    </g>
  </g>
</svg>