<?xml version="1.0" encoding="UTF-8"?>
<svg id="Camada_2" data-name="Camada 2" xmlns="http://www.w3.org/2000/svg" viewBox="0 0 696.11 1154.25">
  <defs>
    <style>
      .cls-1 {
        fill: #fcfcfc;
      }

      .cls-2 {
        fill: #fbf409;
      }
    </style>
  </defs>
  <g id="Camada_1-2" data-name="Camada 1">
    <g>
      <path class="cls-1" d="M600.67,903.67v203.69c0,25.94-21.74,46.89-48.56,46.89h-174.88v-188.17c0-5.62,2.51-10.92,7.07-14.95l54.9-47.97,52.33-45.74h.07c.99-.83,1.98-1.66,2.97-2.36h.07c.99-.7,2.05-1.41,3.11-2.04,1.06-.64,2.18-1.21,3.37-1.72h.07c.53-.26,1.12-.45,1.65-.7.13,0,.2-.06.33-.13.26-.13.53-.19.73-.26.2-.13.46-.26.73-.32h.13c.73-.32,1.52-.58,2.38-.77.07,0,.13-.06.2-.06s.2-.06.26-.06c.66-.19,1.26-.32,1.85-.45.13-.06.26-.13.4-.13,1.45-.32,2.84-.57,4.29-.7.79-.13,1.52-.19,2.31-.26,1.06-.06,2.11-.13,3.17-.13.93,0,1.78,0,2.71.06.13,0,.26,0,.4.06.53,0,1.12.06,1.65.13,1.65.13,3.3.45,4.96.83.26.06.59.13.86.19h.26c.4.13.73.19,1.06.32.66.13,1.26.32,1.92.58.46.13.99.32,1.45.51.2.06.33.13.53.19q.07,0,.13.06c.13.06.2.06.33.13.13,0,.2.06.33.13.07-.06.13-.06.13.06h.07c.33.13.66.26.93.38.26.06.53.19.79.26.13.06.2.13.26.13v.06c.66.32,1.39.7,2.05,1.02.13.06.26.13.4.19l.13.06c.2.13.4.26.59.32.2.13.46.26.73.45q.07.06.13.13c.26.13.53.26.79.45.07,0,.13.06.2.13.46.26.93.57,1.32.89,1.06.7,2.05,1.53,3.04,2.36l22.4,19.61,30.46,26.57.07.06Z"/>
      <path class="cls-1" d="M311.67,142.01c-8.7,0-17.13.43-25.56,1.37,2.31-1.8,4.7-3.35,7.19-4.63.09-.09.27-.17.44-.26.89-.52,1.77-.94,2.66-1.29.71-.34,1.51-.69,2.31-1.03,1.42-.6,2.84-1.12,4.35-1.46.8-.34,1.69-.6,2.49-.77,1.33-.34,2.75-.69,4.08-.94,1.6-.26,3.2-.51,4.79-.6,1.69-.17,3.37-.26,5.06-.26,4.97,0,9.94.69,14.73,1.97,3.99,1.03,7.81,2.57,11.54,4.63.89.51,1.86,1.03,2.75,1.54,3.02,1.8,5.86,3.95,8.43,6.44-.27-.26-.53-.43-.8-.6-14.38-2.75-29.29-4.12-44.46-4.12Z"/>
      <g>
        <path class="cls-1" d="M431.39,304.27c-1.06-1.72-2.22-3.43-3.37-5.15l.09-.09c1.06,1.72,2.22,3.43,3.28,5.23Z"/>
        <path class="cls-1" d="M450.82,375.58v-2.66c0-1.72,0-3.52-.09-5.23.18,1.72.18,3.52.18,5.23,0,.86,0,1.72-.09,2.66Z"/>
        <path class="cls-1" d="M134,1097.9v51.4c-46.24-9.87-91.05-23.51-133.92-40.59h-.09v-54.57h.09c42.77,18.45,87.5,33.12,133.92,43.76Z"/>
      </g>
      <g>
        <path class="cls-1" d="M431.39,304.27c-1.06-1.72-2.22-3.43-3.37-5.15l.09-.09c1.06,1.72,2.22,3.43,3.28,5.23Z"/>
        <path class="cls-1" d="M450.82,375.58v-2.66c0-1.72,0-3.52-.09-5.23.18,1.72.18,3.52.18,5.23,0,.86,0,1.72-.09,2.66Z"/>
        <path class="cls-1" d="M134,987.38v52.34c-46.68-11.58-91.41-27.54-133.92-47.62h-.09v-57.06s.09,0,.09.09c13.4,6.95,27.07,13.47,41,19.56,3.64,1.63,7.37,3.17,11.09,4.72,1.33.51,2.66,1.12,3.99,1.63,4.61,1.97,9.41,3.78,14.11,5.58,1.33.51,2.75,1.03,4.08,1.54,4.35,1.63,8.7,3.26,13.05,4.72,3.19,1.2,6.48,2.32,9.76,3.35,1.24.43,2.49.86,3.82,1.2,4.44,1.54,8.87,2.92,13.4,4.29,2.49.77,4.97,1.54,7.45,2.23,3.46,1.03,6.92,1.97,10.47,2.92.53.17,1.15.34,1.69.51Z"/>
      </g>
      <g>
        <path class="cls-1" d="M431.39,304.27c-1.06-1.72-2.22-3.43-3.37-5.15l.09-.09c1.06,1.72,2.22,3.43,3.28,5.23Z"/>
        <path class="cls-1" d="M450.82,375.58v-2.66c0-1.72,0-3.52-.09-5.23.18,1.72.18,3.52.18,5.23,0,.86,0,1.72-.09,2.66Z"/>
        <path class="cls-1" d="M134,876v52.08c-47.39-14.07-92.29-33.72-133.92-58.09,0-.09-.09-.09-.09-.09v-59.29s.09,0,.09.09c5.5,3.69,11.09,7.29,16.77,10.73,5.32,3.35,10.74,6.61,16.24,9.7,4.88,2.75,9.76,5.49,14.73,8.07,4.7,2.57,9.41,4.98,14.2,7.29,1.15.6,2.31,1.2,3.46,1.72,4.53,2.23,9.14,4.38,13.76,6.35,1.15.69,2.4,1.2,3.55,1.63,4.08,1.89,8.16,3.69,12.25,5.23,2.31,1.12,4.53,2.06,6.83,2.83,3.55,1.54,7.1,2.92,10.65,4.2,2.13.86,4.26,1.63,6.39,2.32,4.97,1.89,10.03,3.69,15.09,5.23Z"/>
      </g>
      <g>
        <path class="cls-1" d="M431.39,304.27c-1.06-1.72-2.22-3.43-3.37-5.15l.09-.09c1.06,1.72,2.22,3.43,3.28,5.23Z"/>
        <path class="cls-1" d="M450.82,375.58v-2.66c0-1.72,0-3.52-.09-5.23.18,1.72.18,3.52.18,5.23,0,.86,0,1.72-.09,2.66Z"/>
        <path class="cls-1" d="M.09,675.21l-.09-.09v64.61l.09.09c39.93,31.58,85.02,57.4,133.92,75.68v-51.74c-50.23-21.37-95.49-51.57-133.92-88.55Z"/>
      </g>
      <g>
        <path class="cls-1" d="M431.39,304.27c-1.06-1.72-2.22-3.43-3.37-5.15l.09-.09c1.06,1.72,2.22,3.43,3.28,5.23Z"/>
        <path class="cls-1" d="M450.82,375.58v-2.66c0-1.72,0-3.52-.09-5.23.18,1.72.18,3.52.18,5.23,0,.86,0,1.72-.09,2.66Z"/>
        <path class="cls-1" d="M638.78,442.42c-12.42,54.83-39.22,104.43-76.41,145.01l35.41,30.89c15.44-16.65,29.2-34.67,41.18-53.8v-119.01c0-1.03,0-2.06-.18-3.09ZM.09,491.93c0-.09-.09-.09-.09-.17v95.59s0,.09.09.09c35.5,48.22,82.8,87.87,137.64,114.98,2.31-4.81,5.77-9.27,10.12-13.04l24.94-21.79C94.34,632.91,32.04,569.76.09,491.93Z"/>
      </g>
      <g>
        <path class="cls-1" d="M492.75,362.07c-1.06-1.72-2.22-3.43-3.37-5.15l.09-.09c1.06,1.72,2.22,3.43,3.28,5.23Z"/>
        <path class="cls-1" d="M623.73,645.24l15.23,13.29v-31.19c-4.84,6.16-9.93,12.1-15.23,17.9Z"/>
      </g>
      <g>
        <path class="cls-1" d="M431.39,304.27c-1.06-1.72-2.22-3.43-3.37-5.15l.09-.09c1.06,1.72,2.22,3.43,3.28,5.23Z"/>
        <path class="cls-1" d="M450.82,375.58v-2.66c0-1.72,0-3.52-.09-5.23.18,1.72.18,3.52.18,5.23,0,.86,0,1.72-.09,2.66Z"/>
        <path class="cls-1" d="M546.22,329.75c2.84,13.99,4.26,28.4,4.26,43.16,0,58.18-22.45,111.46-59.46,152.14l34.17,29.86c43.22-47.28,69.84-109.06,71.17-176.68l-50.14-48.48ZM72.86,372.92c0-8.58.44-16.99,1.51-25.31l-46.77,45.13v.09c8.16,110.18,83.42,202.42,186.36,238.8l39.76-34.84c-103.74-25.06-180.86-115.92-180.86-223.87Z"/>
      </g>
      <g>
        <path class="cls-1" d="M431.39,304.27c-1.06-1.72-2.22-3.43-3.37-5.15l.09-.09c1.06,1.72,2.22,3.43,3.28,5.23Z"/>
        <path class="cls-1" d="M450.82,375.58v-2.66c0-1.72,0-3.52-.09-5.23.18,1.72.18,3.52.18,5.23,0,.86,0,1.72-.09,2.66Z"/>
        <path class="cls-1" d="M458.54,269.6l-30.53,29.52c1.15,1.72,2.31,3.43,3.37,5.15,1.06,1.72,2.04,3.52,3.02,5.32,1.95,3.52,3.82,7.21,5.5,10.98,1.77,4.03,3.37,8.15,4.7,12.36.53,1.54.98,3.17,1.42,4.81.44,1.54.89,3.17,1.24,4.81.36,1.63.71,3.26,1.06,4.89.71,3.26,1.24,6.61,1.6,10.04.36,3.35.62,6.78.8,10.21.09,1.72.09,3.52.09,5.23v2.66c0,.86-.09,1.72-.09,2.57-.18,3.43-.44,6.86-.8,10.21-.35,3.43-.89,6.78-1.6,10.04-.35,1.63-.71,3.26-1.06,4.89-.35,1.46-.71,2.92-1.06,4.38-.53,1.8-.98,3.52-1.6,5.23-1.33,4.2-2.93,8.32-4.7,12.36-1.69,4.03-3.64,7.98-5.86,11.76-2.13,3.86-4.44,7.55-6.92,11.07,0,0-.09,0-.09.09-1.24,1.8-2.57,3.6-3.9,5.32-2.66,3.43-5.5,6.69-8.52,9.87-1.51,1.54-3.02,3.09-4.61,4.63-.98.94-1.95,1.89-3.02,2.83-.98.86-2.04,1.8-3.02,2.66-1.86,1.63-3.73,3.17-5.68,4.63-.53.43-1.15.86-1.69,1.29-1.86,1.37-3.82,2.75-5.77,4.12-4.08,2.75-8.34,5.23-12.78,7.64-.89.43-1.69.86-2.57,1.29-.09.09-.18.09-.27.17-1.77.86-3.64,1.72-5.5,2.57-.35.17-.71.34-1.06.51-2.49,1.03-4.97,2.06-7.45,2.92-1.06.43-2.22.86-3.28,1.2l-4.79,1.54c-2.22.69-4.44,1.29-6.66,1.89-2.22.6-4.44,1.03-6.74,1.46-1.15.26-2.31.43-3.46.6-2.22.43-4.53.77-6.83,1.03-2.4.34-4.79.6-7.19.69-3.46.34-7.01.43-10.56.43-3.28,0-6.48-.09-9.67-.34-1.33-.09-2.66-.17-3.99-.34-1.42-.17-2.84-.26-4.26-.43l-1.6-.26c-1.6-.17-3.28-.43-4.88-.77-3.55-.52-7.01-1.29-10.47-2.15-4.35-1.12-8.7-2.4-12.87-3.86-1.15-.43-2.22-.86-3.28-1.29-1.15-.43-2.22-.77-3.28-1.29-2.22-.86-4.35-1.8-6.48-2.83-1.86-.86-3.64-1.72-5.41-2.75-1.33-.69-2.66-1.37-3.9-2.15-.53-.26-.98-.51-1.42-.77-2.13-1.2-4.26-2.49-6.3-3.86-1.77-1.12-3.55-2.4-5.32-3.69-1.77-1.2-3.55-2.57-5.32-4.03h-.09c-3.37-2.66-6.66-5.58-9.76-8.67-1.69-1.63-3.28-3.26-4.88-4.98-1.24-1.29-2.49-2.66-3.64-4.03-1.24-1.37-2.4-2.83-3.55-4.29-1.15-1.29-2.13-2.66-3.11-4.12-1.95-2.57-3.82-5.15-5.5-7.89-2.4-3.69-4.53-7.55-6.39-11.41-1.06-1.97-1.95-3.95-2.84-6.01-.89-1.97-1.69-4.03-2.49-6.09-1.6-4.12-2.93-8.32-4.08-12.61-.62-2.15-1.15-4.29-1.51-6.52-.53-2.15-.98-4.29-1.24-6.52,0,0-.09-.09,0-.17,0-.09-.09-.26-.09-.34-.36-2.06-.62-4.12-.8-6.35-.53-4.46-.8-9.1-.8-13.73s.27-9.27.8-13.73c.18-2.23.44-4.29.8-6.35,0-.09.09-.26.09-.34-.09-.09,0-.17,0-.17.27-2.23.71-4.38,1.24-6.52.36-2.23.89-4.38,1.51-6.52,1.15-4.29,2.48-8.49,4.08-12.61.8-2.06,1.6-4.12,2.49-6.09.89-2.06,1.77-4.03,2.84-6.01,1.86-3.86,3.99-7.72,6.39-11.41,1.42-2.32,3.02-4.63,4.61-6.78,1.06-1.63,2.22-3.17,3.46-4.63,1.06-1.46,2.22-2.83,3.37-4.2.27-.26.44-.51.71-.77,1.15-1.37,2.4-2.75,3.64-4.03,1.6-1.72,3.19-3.35,4.88-4.98,3.11-3.09,6.39-6.01,9.76-8.67h.09c1.77-1.46,3.55-2.83,5.32-4.03,1.77-1.29,3.55-2.57,5.32-3.69,2.04-1.37,4.17-2.66,6.3-3.86,3.46-2.06,7.1-3.95,10.74-5.66.36-.17.62-.26.98-.43,1.86-.86,3.82-1.72,5.77-2.49,1.15-.51,2.49-1.03,3.73-1.46,1.51-.6,3.11-1.2,4.61-1.63,1.51-.6,2.93-1.03,4.44-1.46,1.6-.51,3.19-.94,4.88-1.37,1.33-.34,2.75-.69,4.17-1.03,1.77-.43,3.55-.86,5.32-1.12,1.42-.34,2.75-.51,4.17-.69,1.77-.34,3.46-.6,5.24-.77,1.24-.17,2.57-.34,3.82-.43,1.33-.17,2.66-.26,3.99-.34,3.19-.26,6.39-.34,9.67-.34,2.04,0,3.99,0,5.95.17,1.95,0,3.9.17,5.77.34,1.51.17,2.93.26,4.35.43,1.42.09,2.84.26,4.17.51,1.42.17,2.84.43,4.17.69,2.22.34,4.35.69,6.39,1.2,2.75.6,5.41,1.29,8.08,2.06.35.09.71.17,1.06.26,2.93.86,5.86,1.8,8.79,2.83,2.31.86,4.61,1.8,6.92,2.75,1.15.52,2.31,1.03,3.46,1.54,2.49,1.12,4.88,2.32,7.28,3.52.35.26.8.43,1.15.69,1.24.69,2.48,1.37,3.73,2.06,1.24.69,2.49,1.37,3.64,2.15l30.53-29.6c-29.73-20.51-66.11-32.61-105.43-32.61-100.28,0-181.66,78.6-181.66,175.65s80.05,174.27,179.17,175.47l49.16-42.99c15.09-13.21,35.05-19.82,55.02-19.82,11,0,21.92,1.97,32.13,6.09,29.64-31.23,47.74-72.94,47.74-118.76,0-38.61-12.87-74.31-34.7-103.31Z"/>
      </g>
      <path class="cls-1" d="M696.11,68.3l-72.59,70.19-55.64,13.3-102.77,99.45h-.09l-11.89,11.5-30.26,29.26-.09.09-44.11,42.65c15.53,27.11,11.45,62.04-12.34,85.03-14.38,13.9-33.28,20.85-52.18,20.85s-37.81-6.95-52.18-20.85c-28.75-27.8-28.75-73.11,0-100.91,14.38-13.9,33.28-20.85,52.09-20.85,12.42,0,24.76,3,35.85,9.01l44.02-42.65,30.35-29.26,11.98-11.67h.09l102.77-99.45,13.84-53.8L625.47,0v68.3h70.64Z"/>
      <path class="cls-2" d="M561.06,653.05l-30.61-26.65-31.98-27.98-29.55-25.77-18.05-15.76c-6.85-5.96-16.6-9.42-26.8-9.42-.76,0-1.45,0-2.21.07-9.37.44-18.28,3.83-24.6,9.35l-6.78,5.96h-.08s-147.49,112.92-195.59,151.9c-.62.5-1.01,1.06-1.29,1.55-.32.55-.53,1.1-.53,1.62v436.33h136.73v-191.8c0-14.87,6.4-28.72,18.05-38.95l4.26-3.76,53.99-47.12,65.49-57.28c14.16-12.37,32.97-19.22,52.77-19.22s37.62,6.48,51.63,18.33c.38.22.76.59,1.14.88l10.2,8.84v-148.21l-26.2-22.9ZM360.83,714.21c-.32-2.36-.51-4.78-.51-7.26,0-9.8,2.69-18.98,7.44-26.86,9.62-16,27.52-26.73,47.98-26.73,9.69,0,18.73,2.42,26.62,6.57,10.78,5.71,19.37,14.76,24.25,25.68,2.95,6.57,4.55,13.77,4.55,21.34,0,9.06-2.31,17.55-6.35,25-9.3,17-27.78,28.59-49.07,28.59-10.46,0-20.21-2.79-28.48-7.63-14.11-8.19-24.12-22.27-26.43-38.7Z"/>
    </g>
  </g>
</svg>