<?xml version="1.0" encoding="UTF-8"?>
<svg id="Camada_2" data-name="Camada 2" xmlns="http://www.w3.org/2000/svg" viewBox="0 0 1395.57 464.9">
  <defs>
    <style>
      .cls-1 {
        fill: #f9f9f9;
      }

      .cls-2 {
        fill: #fcfcfc;
      }

      .cls-3 {
        fill: #fbf409;
      }
    </style>
  </defs>
  <g id="Camada_1-2" data-name="Camada 1">
    <g>
      <g>
        <path class="cls-2" d="M241.93,363.97v82.04c0,10.45-8.75,18.89-19.56,18.89h-70.44v-75.79c0-2.26,1.01-4.4,2.85-6.02l22.11-19.32,21.08-18.42h.03c.4-.33.8-.67,1.2-.95h.03c.4-.28.82-.57,1.25-.82.43-.26.88-.49,1.36-.69h.03c.21-.1.45-.18.67-.28.05,0,.08-.03.13-.05.11-.05.21-.08.29-.1.08-.05.19-.1.29-.13h.05c.29-.13.61-.23.96-.31.03,0,.05-.03.08-.03s.08-.03.11-.03c.27-.08.51-.13.75-.18.05-.03.11-.05.16-.05.59-.13,1.14-.23,1.73-.28.32-.05.61-.08.93-.1.43-.03.85-.05,1.28-.05.37,0,.72,0,1.09.03.05,0,.11,0,.16.03.21,0,.45.03.67.05.67.05,1.33.18,2,.33.11.03.24.05.35.08h.11c.16.05.29.08.43.13.27.05.51.13.77.23.19.05.4.13.59.21.08.03.13.05.21.08t.05.03c.05.03.08.03.13.05.05,0,.08.03.13.05.03-.03.05-.03.05.03h.03c.13.05.27.1.37.15.11.03.21.08.32.1.05.03.08.05.11.05v.03c.27.13.56.28.82.41.05.03.11.05.16.08l.05.03c.08.05.16.1.24.13.08.05.19.1.29.18t.05.05c.11.05.21.1.32.18.03,0,.05.03.08.05.19.1.37.23.53.36.43.28.82.62,1.22.95l9.02,7.9,12.27,10.7.03.03Z"/>
        <g>
          <path class="cls-2" d="M125.53,57.2c-3.5,0-6.9.17-10.29.55.93-.73,1.89-1.35,2.9-1.87.04-.03.11-.07.18-.1.36-.21.71-.38,1.07-.52.29-.14.61-.28.93-.41.57-.24,1.14-.45,1.75-.59.32-.14.68-.24,1-.31.54-.14,1.11-.28,1.64-.38.64-.1,1.29-.21,1.93-.24.68-.07,1.36-.1,2.04-.1,2,0,4,.28,5.93.8,1.61.41,3.15,1.04,4.65,1.87.36.21.75.41,1.11.62,1.22.73,2.36,1.59,3.4,2.59-.11-.1-.21-.17-.32-.24-5.79-1.11-11.8-1.66-17.91-1.66Z"/>
          <path d="M128.68,53.22c-.68,0-1.36.03-2.04.1-.64.03-1.29.14-1.93.24-.54.1-1.11.24-1.64.38-.32.07-.68.17-1,.31-.61.14-1.18.35-1.75.59-.32.14-.64.28-.93.41-.36.14-.71.31-1.07.52-.07.03-.14.07-.18.1-1,.52-1.97,1.14-2.9,1.87,3.4-.38,6.79-.55,10.29-.55,6.11,0,12.12.55,17.91,1.66.11.07.21.14.32.24-1.04-1-2.18-1.87-3.4-2.59-.36-.21-.75-.41-1.11-.62-1.5-.83-3.04-1.45-4.65-1.87-1.93-.52-3.93-.79-5.93-.79h0Z"/>
        </g>
        <g>
          <path class="cls-2" d="M173.75,122.55c-.43-.69-.89-1.38-1.36-2.07l.04-.03c.43.69.89,1.38,1.32,2.11Z"/>
          <path class="cls-2" d="M181.58,151.27v-1.07c0-.69,0-1.42-.04-2.11.07.69.07,1.42.07,2.11,0,.35,0,.69-.04,1.07Z"/>
          <path class="cls-2" d="M53.97,442.2v20.7c-18.62-3.97-36.67-9.47-53.94-16.35h-.04v-21.98h.04c17.23,7.43,35.24,13.34,53.94,17.63Z"/>
        </g>
        <g>
          <path class="cls-2" d="M173.75,122.55c-.43-.69-.89-1.38-1.36-2.07l.04-.03c.43.69.89,1.38,1.32,2.11Z"/>
          <path class="cls-2" d="M181.58,151.27v-1.07c0-.69,0-1.42-.04-2.11.07.69.07,1.42.07,2.11,0,.35,0,.69-.04,1.07Z"/>
          <path class="cls-2" d="M53.97,397.69v21.08c-18.8-4.67-36.82-11.09-53.94-19.18h-.04v-22.98s.04,0,.04.03c5.4,2.8,10.9,5.43,16.51,7.88,1.47.66,2.97,1.28,4.47,1.9.54.21,1.07.45,1.61.66,1.86.79,3.79,1.52,5.68,2.25.54.21,1.11.41,1.64.62,1.75.66,3.5,1.31,5.25,1.9,1.29.48,2.61.93,3.93,1.35.5.17,1,.35,1.54.48,1.79.62,3.57,1.18,5.4,1.73,1,.31,2,.62,3,.9,1.39.41,2.79.79,4.22,1.18.21.07.46.14.68.21Z"/>
        </g>
        <g>
          <path class="cls-2" d="M173.75,122.55c-.43-.69-.89-1.38-1.36-2.07l.04-.03c.43.69.89,1.38,1.32,2.11Z"/>
          <path class="cls-2" d="M181.58,151.27v-1.07c0-.69,0-1.42-.04-2.11.07.69.07,1.42.07,2.11,0,.35,0,.69-.04,1.07Z"/>
          <path class="cls-2" d="M53.97,352.83v20.98c-19.09-5.67-37.17-13.58-53.94-23.4,0-.03-.04-.03-.04-.03v-23.88s.04,0,.04.03c2.22,1.49,4.47,2.94,6.76,4.32,2.14,1.35,4.33,2.66,6.54,3.91,1.97,1.11,3.93,2.21,5.93,3.25,1.89,1.04,3.79,2,5.72,2.94.46.24.93.48,1.39.69,1.82.9,3.68,1.76,5.54,2.56.46.28.96.48,1.43.66,1.64.76,3.29,1.49,4.93,2.11.93.45,1.82.83,2.75,1.14,1.43.62,2.86,1.18,4.29,1.69.86.35,1.72.66,2.57.93,2,.76,4.04,1.49,6.08,2.11Z"/>
        </g>
        <g>
          <path class="cls-2" d="M173.75,122.55c-.43-.69-.89-1.38-1.36-2.07l.04-.03c.43.69.89,1.38,1.32,2.11Z"/>
          <path class="cls-2" d="M181.58,151.27v-1.07c0-.69,0-1.42-.04-2.11.07.69.07,1.42.07,2.11,0,.35,0,.69-.04,1.07Z"/>
          <path class="cls-2" d="M.04,271.96l-.04-.03v26.02l.04.03c16.08,12.72,34.24,23.12,53.94,30.48v-20.84c-20.23-8.61-38.46-20.77-53.94-35.67Z"/>
        </g>
        <g>
          <path class="cls-2" d="M173.75,122.55c-.43-.69-.89-1.38-1.36-2.07l.04-.03c.43.69.89,1.38,1.32,2.11Z"/>
          <path class="cls-2" d="M181.58,151.27v-1.07c0-.69,0-1.42-.04-2.11.07.69.07,1.42.07,2.11,0,.35,0,.69-.04,1.07Z"/>
          <path class="cls-2" d="M257.28,178.19c-5,22.08-15.8,42.06-30.78,58.41l14.26,12.44c6.22-6.7,11.76-13.96,16.59-21.67v-47.94c0-.41,0-.83-.07-1.24ZM.04,198.14s-.04-.03-.04-.07v38.5s0,.03.04.03c14.3,19.42,33.35,35.39,55.44,46.31.93-1.94,2.32-3.73,4.07-5.25l10.04-8.78C38,254.92,12.9,229.48.04,198.14Z"/>
        </g>
        <g>
          <path class="cls-2" d="M198.46,145.83c-.43-.69-.89-1.38-1.36-2.07l.04-.03c.43.69.89,1.38,1.32,2.11Z"/>
          <path class="cls-2" d="M251.22,259.89l6.14,5.35v-12.56c-1.95,2.48-4,4.88-6.14,7.21Z"/>
        </g>
        <g>
          <path class="cls-2" d="M173.75,122.55c-.43-.69-.89-1.38-1.36-2.07l.04-.03c.43.69.89,1.38,1.32,2.11Z"/>
          <path class="cls-2" d="M181.58,151.27v-1.07c0-.69,0-1.42-.04-2.11.07.69.07,1.42.07,2.11,0,.35,0,.69-.04,1.07Z"/>
          <path class="cls-2" d="M140.37,56.51c-.36-.21-.75-.41-1.11-.62-1.5-.83-3.04-1.45-4.65-1.87-1.93-.52-3.93-.8-5.93-.8-.68,0-1.36.03-2.04.1-.64.03-1.29.14-1.93.24-.54.1-1.11.24-1.64.38-.32.07-.68.17-1,.31-.61.14-1.18.35-1.75.59-.32.14-.64.28-.93.41-.36.14-.71.31-1.07.52-.07.03-.14.07-.18.1-1,.52-1.97,1.14-2.9,1.87,3.4-.38,6.79-.55,10.29-.55,6.11,0,12.12.55,17.91,1.66-.97-.9-2-1.66-3.07-2.35ZM220,132.82c1.14,5.63,1.72,11.44,1.72,17.38,0,23.43-9.04,44.89-23.95,61.28l13.76,12.03c17.41-19.04,28.13-43.93,28.67-71.16l-20.2-19.53ZM29.35,150.2c0-3.46.18-6.84.61-10.2l-18.84,18.18v.03c3.29,44.38,33.6,81.53,75.06,96.18l16.01-14.03c-41.78-10.09-72.85-46.69-72.85-90.17Z"/>
        </g>
        <g>
          <path class="cls-2" d="M173.75,122.55c-.43-.69-.89-1.38-1.36-2.07l.04-.03c.43.69.89,1.38,1.32,2.11Z"/>
          <path class="cls-2" d="M181.58,151.27v-1.07c0-.69,0-1.42-.04-2.11.07.69.07,1.42.07,2.11,0,.35,0,.69-.04,1.07Z"/>
          <path class="cls-2" d="M184.69,108.59l-12.3,11.89c.46.69.93,1.38,1.36,2.07.43.69.82,1.42,1.22,2.14.79,1.42,1.54,2.9,2.22,4.42.71,1.62,1.36,3.28,1.89,4.98.21.62.39,1.28.57,1.94.18.62.36,1.28.5,1.94.14.66.29,1.31.43,1.97.29,1.31.5,2.66.64,4.04.14,1.35.25,2.73.32,4.11.04.69.04,1.42.04,2.11v1.07c0,.35-.04.69-.04,1.04-.07,1.38-.18,2.76-.32,4.11-.14,1.38-.36,2.73-.64,4.04-.14.66-.29,1.31-.43,1.97-.14.59-.29,1.17-.43,1.76-.21.73-.39,1.42-.64,2.11-.54,1.69-1.18,3.35-1.89,4.98-.68,1.62-1.47,3.21-2.36,4.73-.86,1.56-1.79,3.04-2.79,4.46,0,0-.04,0-.04.03-.5.73-1.04,1.45-1.57,2.14-1.07,1.38-2.22,2.7-3.43,3.97-.61.62-1.22,1.24-1.86,1.87-.39.38-.79.76-1.22,1.14-.39.35-.82.73-1.22,1.07-.75.66-1.5,1.28-2.29,1.87-.21.17-.46.35-.68.52-.75.55-1.54,1.11-2.32,1.66-1.64,1.11-3.36,2.11-5.15,3.08-.36.17-.68.35-1.04.52-.04.03-.07.03-.11.07-.71.35-1.47.69-2.22,1.04-.14.07-.29.14-.43.21-1,.41-2,.83-3,1.18-.43.17-.89.35-1.32.48l-1.93.62c-.89.28-1.79.52-2.68.76s-1.79.41-2.72.59c-.46.1-.93.17-1.39.24-.89.17-1.82.31-2.75.41-.97.14-1.93.24-2.9.28-1.39.14-2.82.17-4.25.17-1.32,0-2.61-.03-3.9-.14-.54-.03-1.07-.07-1.61-.14-.57-.07-1.14-.1-1.72-.17l-.64-.1c-.64-.07-1.32-.17-1.97-.31-1.43-.21-2.82-.52-4.22-.86-1.75-.45-3.5-.97-5.18-1.56-.46-.17-.89-.35-1.32-.52-.46-.17-.89-.31-1.32-.52-.89-.35-1.75-.73-2.61-1.14-.75-.35-1.47-.69-2.18-1.11-.54-.28-1.07-.55-1.57-.86-.21-.1-.39-.21-.57-.31-.86-.48-1.72-1-2.54-1.56-.71-.45-1.43-.97-2.14-1.49-.71-.48-1.43-1.04-2.14-1.62h-.04c-1.36-1.07-2.68-2.25-3.93-3.49-.68-.66-1.32-1.31-1.97-2-.5-.52-1-1.07-1.47-1.62-.5-.55-.96-1.14-1.43-1.73-.46-.52-.86-1.07-1.25-1.66-.79-1.04-1.54-2.07-2.22-3.18-.96-1.49-1.82-3.04-2.57-4.6-.43-.8-.79-1.59-1.14-2.42-.36-.8-.68-1.62-1-2.45-.64-1.66-1.18-3.35-1.64-5.08-.25-.86-.46-1.73-.61-2.63-.21-.86-.39-1.73-.5-2.63,0,0-.04-.03,0-.07,0-.03-.04-.1-.04-.14-.14-.83-.25-1.66-.32-2.56-.21-1.8-.32-3.66-.32-5.53s.11-3.73.32-5.53c.07-.9.18-1.73.32-2.56,0-.03.04-.1.04-.14-.04-.03,0-.07,0-.07.11-.9.29-1.76.5-2.63.14-.9.36-1.76.61-2.63.46-1.73,1-3.42,1.64-5.08.32-.83.64-1.66,1-2.45.36-.83.71-1.62,1.14-2.42.75-1.56,1.61-3.11,2.57-4.6.57-.93,1.22-1.87,1.86-2.73.43-.66.89-1.28,1.39-1.87.43-.59.89-1.14,1.36-1.69.11-.1.18-.21.29-.31.46-.55.97-1.11,1.47-1.62.64-.69,1.29-1.35,1.97-2,1.25-1.24,2.57-2.42,3.93-3.49h.04c.71-.59,1.43-1.14,2.14-1.62.71-.52,1.43-1.04,2.14-1.49.82-.55,1.68-1.07,2.54-1.56,1.39-.83,2.86-1.59,4.32-2.28.14-.07.25-.1.39-.17.75-.35,1.54-.69,2.32-1,.46-.21,1-.41,1.5-.59.61-.24,1.25-.48,1.86-.66.61-.24,1.18-.41,1.79-.59.64-.21,1.29-.38,1.97-.55.54-.14,1.11-.28,1.68-.41.71-.17,1.43-.35,2.14-.45.57-.14,1.11-.21,1.68-.28.71-.14,1.39-.24,2.11-.31.5-.07,1.04-.14,1.54-.17.54-.07,1.07-.1,1.61-.14,1.29-.1,2.57-.14,3.9-.14.82,0,1.61,0,2.39.07.79,0,1.57.07,2.32.14.61.07,1.18.1,1.75.17.57.03,1.14.1,1.68.21.57.07,1.14.17,1.68.28.89.14,1.75.28,2.57.48,1.11.24,2.18.52,3.25.83.14.03.29.07.43.1,1.18.35,2.36.73,3.54,1.14.93.35,1.86.73,2.79,1.11.46.21.93.41,1.39.62,1,.45,1.97.93,2.93,1.42.14.1.32.17.46.28.5.28,1,.55,1.5.83s1,.55,1.47.86l12.3-11.92c-11.97-8.26-26.63-13.13-42.46-13.13-40.39,0-73.17,31.66-73.17,70.75s32.24,70.19,72.17,70.68l19.8-17.31c6.08-5.32,14.12-7.98,22.16-7.98,4.43,0,8.83.8,12.94,2.45,11.94-12.58,19.23-29.38,19.23-47.83,0-15.55-5.18-29.93-13.98-41.61Z"/>
        </g>
        <path class="cls-2" d="M280.37,27.51l-29.24,28.27-22.41,5.36-41.39,40.06h-.04l-4.79,4.63-12.19,11.79-.04.03-17.76,17.18c6.26,10.92,4.61,24.99-4.97,34.25-5.79,5.6-13.4,8.4-21.02,8.4s-15.23-2.8-21.02-8.4c-11.58-11.2-11.58-29.45,0-40.64,5.79-5.6,13.4-8.4,20.98-8.4,5,0,9.97,1.21,14.44,3.63l17.73-17.18,12.22-11.79,4.83-4.7h.04l41.39-40.06,5.58-21.67L251.92,0v27.51h28.45Z"/>
        <path class="cls-3" d="M225.98,263.03l-12.33-10.74-12.88-11.27-11.9-10.38-7.27-6.35c-2.76-2.4-6.69-3.8-10.8-3.8-.31,0-.58,0-.89.03-3.77.18-7.36,1.54-9.91,3.77l-2.73,2.4h-.03s-59.41,45.48-78.78,61.18c-.25.2-.41.43-.52.62-.13.22-.21.44-.21.65v175.74h55.07v-77.25c0-5.99,2.58-11.57,7.27-15.69l1.72-1.51,21.75-18.98,26.38-23.07c5.7-4.98,13.28-7.74,21.26-7.74s15.15,2.61,20.79,7.38c.15.09.31.24.46.36l4.11,3.56v-59.7l-10.55-9.22ZM145.33,287.66c-.13-.95-.21-1.92-.21-2.92,0-3.95,1.09-7.64,3-10.82,3.88-6.45,11.08-10.77,19.33-10.77,3.9,0,7.54.97,10.72,2.65,4.34,2.3,7.8,5.95,9.77,10.34,1.19,2.65,1.83,5.55,1.83,8.59,0,3.65-.93,7.07-2.56,10.07-3.75,6.85-11.19,11.52-19.77,11.52-4.21,0-8.14-1.12-11.47-3.07-5.68-3.3-9.72-8.97-10.65-15.59Z"/>
      </g>
      <g>
        <g>
          <path class="cls-1" d="M1090.15,108.93c3.49,10.05,1.22,21.67-6.79,29.68-11.17,11.17-29.33,11.17-40.5,0-11.17-11.17-11.17-29.33,0-40.5,8.01-8.01,19.63-10.27,29.68-6.79,2.25.78,4.43,1.86,6.47,3.21l-6.48,9.7c-6.6-4.41-15.62-3.7-21.44,2.12-6.62,6.62-6.62,17.4,0,24.02,6.62,6.62,17.4,6.62,24.02,0,5.82-5.82,6.52-14.84,2.11-21.44l9.7-6.48,41.92-27.98,27.65-18.46-29.53-1.52-1.52-29.53-18.46,27.65c-2-1.34-4.05-2.58-6.14-3.71-29.98-16.32-68.28-11.79-93.64,13.57-30.87,30.87-30.88,80.91,0,111.78,30.87,30.87,80.92,30.87,111.79,0,25.36-25.36,29.89-63.66,13.57-93.64l-42.42,28.32Z"/>
          <path class="cls-1" d="M456.37,42.42c-14.11,0-27.34,3.77-38.78,10.4l-.05-.36h-40.54v185.78h43.18v-48.87c10.84,5.72,23.13,8.94,36.19,8.94,42.99,0,77.94-34.96,77.94-77.94s-34.96-77.94-77.94-77.94ZM481.45,121.65c-.69,13.26-11.66,23.82-25.08,23.82s-25.11-11.25-25.11-25.11,11.25-25.11,25.11-25.11,24.4,10.56,25.08,23.82c.03.44.03.85.03,1.29s0,.85-.03,1.29Z"/>
          <path class="cls-1" d="M617.51,42.42c-42.99,0-77.97,34.96-77.97,77.94s34.98,77.94,77.97,77.94,77.94-34.96,77.94-77.94-34.96-77.94-77.94-77.94ZM617.51,145.47c-13.86,0-25.11-11.25-25.11-25.11s11.25-25.11,25.11-25.11,25.08,11.25,25.08,25.11-11.22,25.11-25.08,25.11Z"/>
          <path class="cls-1" d="M784.84,48.77c-43.67,0-70.52,18.7-70.52,63.42v76.05h43.15v-76.05c0-16.58,8.42-26.84,27.37-26.84s27.37,10.26,27.37,26.84v76.05h43.15v-76.05c0-44.72-26.84-63.42-70.52-63.42Z"/>
          <path class="cls-1" d="M939.82,52.45V16.15h-43.15v36.3h-28.16v36.58h28.16v99.2h43.15v-99.2h33.42v-36.58h-33.42Z"/>
        </g>
        <g>
          <path class="cls-1" d="M683.71,342.78c0-41.89-26.43-66.75-68.32-66.75-44.5,0-74.62,23.02-74.62,71.18s29.32,71.21,74.62,71.21c34.54,0,57.04-17.55,64.91-41.61h-41.89c-4.7,6.55-13.34,10.48-23.54,10.48-16.75,0-28.8-9.71-31.41-28.8h99.2c.77-5.5,1.04-10.75,1.04-15.7ZM584.23,330.98c3.69-15.18,15.7-23.82,28.55-23.82s25.63,6.82,28.52,23.82h-57.07Z"/>
          <path class="cls-1" d="M750.43,300.09h-2.61l-2.61-20.41h-40.32v135.07h42.93v-57.32c0-27.23,13.37-38.75,36.66-38.75,3.14,0,6.55,0,9.93.52v-39.52c-23.54,0-34.82,7.34-43.98,20.41Z"/>
          <path class="cls-1" d="M883.13,259.28c4.98,0,11,.77,17.79,1.82v-32.7c-10.2-2.36-20.41-4.21-29.29-4.21-26.71,0-45.82,11.52-45.82,45.02v10.48h-23.54v36.39h23.54v98.68h42.93v-98.68h32.18v-36.39h-32.18v-7.32c0-10.23,4.98-13.09,14.38-13.09Z"/>
          <path class="cls-1" d="M1049.09,342.78c0-41.89-26.43-66.75-68.32-66.75-44.5,0-74.59,23.02-74.59,71.18s29.32,71.21,74.59,71.21c34.54,0,57.07-17.55,64.91-41.61h-41.86c-4.73,6.55-13.37,10.48-23.57,10.48-16.75,0-28.8-9.71-31.41-28.8h99.2c.77-5.5,1.05-10.75,1.05-15.7ZM949.61,330.98c3.69-15.18,15.7-23.82,28.55-23.82s25.66,6.82,28.52,23.82h-57.07Z"/>
          <path class="cls-1" d="M1091.74,217.91c-14.14,0-24.34,10.2-24.34,24.34s10.2,24.34,24.34,24.34,24.34-10.2,24.34-24.34-10.2-24.34-24.34-24.34ZM1070.29,279.68v135.07h42.91v-135.07h-42.91Z"/>
          <path class="cls-1" d="M1202.47,279.68v-36.11h-42.93v36.11h-28.03v36.39h28.03v98.68h42.93v-98.68h33.22v-36.39h-33.22Z"/>
          <path class="cls-1" d="M1317.63,269.26c-42.99,0-77.94,34.98-77.94,77.94s34.96,77.97,77.94,77.97,77.94-34.98,77.94-77.97-34.96-77.94-77.94-77.94ZM1317.63,322.12c13.86,0,25.11,11.22,25.11,25.08s-11.25,25.11-25.11,25.11-25.11-11.25-25.11-25.11,11.25-25.08,25.11-25.08Z"/>
          <path class="cls-1" d="M456.37,269.26c-14.25,0-27.61,3.85-39.11,10.59l-.03-.16h-40.29v184.82h42.9v-48.46c10.89,5.83,23.35,9.13,36.52,9.13,42.99,0,77.94-34.98,77.94-77.97s-34.96-77.94-77.94-77.94ZM456.37,372.31c-13.86,0-25.11-11.25-25.11-25.11s11.25-25.08,25.11-25.08,25.11,11.22,25.11,25.08-11.25,25.11-25.11,25.11Z"/>
        </g>
      </g>
    </g>
  </g>
</svg>