<?xml version="1.0" encoding="UTF-8"?>
<svg id="Camada_2" data-name="Camada 2" xmlns="http://www.w3.org/2000/svg" viewBox="0 0 1434.3 476.99">
  <defs>
    <style>
      .cls-1 {
        fill: gray;
      }

      .cls-2 {
        fill: #ccc;
      }

      .cls-3 {
        fill: #303030;
      }

      .cls-4 {
        fill: #fff;
      }

      .cls-5 {
        fill: #f9f9f9;
      }
    </style>
  </defs>
  <g id="Camada_1-2" data-name="Camada 1">
    <g>
      <g>
        <path class="cls-2" d="M247.58,372.46v83.95c0,10.69-8.96,19.33-20.01,19.33h-72.08v-77.56c0-2.32,1.03-4.5,2.91-6.16l22.63-19.77,21.57-18.85h.03c.41-.34.82-.68,1.23-.97h.03c.41-.29.84-.58,1.28-.84.44-.26.9-.5,1.39-.71h.03c.22-.11.46-.18.68-.29.05,0,.08-.03.14-.05.11-.05.22-.08.3-.11.08-.05.19-.11.3-.13h.05c.3-.13.63-.24.98-.32.03,0,.05-.03.08-.03s.08-.03.11-.03c.27-.08.52-.13.76-.18.05-.03.11-.05.16-.05.6-.13,1.17-.24,1.77-.29.33-.05.63-.08.95-.11.44-.03.87-.05,1.31-.05.38,0,.74,0,1.12.03.05,0,.11,0,.16.03.22,0,.46.03.68.05.68.05,1.36.18,2.04.34.11.03.25.05.35.08h.11c.16.05.3.08.44.13.27.05.52.13.79.24.19.05.41.13.6.21.08.03.14.05.22.08t.05.03c.05.03.08.03.14.05.05,0,.08.03.14.05.03-.03.05-.03.05.03h.03c.14.05.27.11.38.16.11.03.22.08.33.11.05.03.08.05.11.05v.03c.27.13.57.29.84.42.05.03.11.05.16.08l.05.03c.08.05.16.11.25.13.08.05.19.11.3.18t.05.05c.11.05.22.11.33.18.03,0,.05.03.08.05.19.11.38.24.54.37.44.29.84.63,1.25.97l9.23,8.08,12.55,10.95.03.03Z"/>
        <g>
          <path d="M128.46,58.53c-3.58,0-7.06.18-10.53.57.95-.74,1.94-1.38,2.96-1.91.04-.04.11-.07.18-.11.37-.21.73-.39,1.1-.53.29-.14.62-.28.95-.42.59-.25,1.17-.46,1.79-.6.33-.14.69-.25,1.02-.32.55-.14,1.13-.28,1.68-.39.66-.11,1.32-.21,1.98-.25.69-.07,1.39-.11,2.08-.11,2.05,0,4.1.28,6.07.81,1.65.42,3.22,1.06,4.76,1.91.37.21.77.42,1.13.64,1.24.74,2.41,1.63,3.47,2.65-.11-.11-.22-.18-.33-.25-5.93-1.13-12.07-1.7-18.33-1.7Z"/>
          <path class="cls-2" d="M131.68,54.46c-.7,0-1.39.04-2.08.11-.66.04-1.32.14-1.98.25-.55.11-1.13.25-1.68.39-.33.07-.69.18-1.02.32-.62.14-1.21.35-1.79.6-.33.14-.66.28-.95.42-.37.14-.73.32-1.1.53-.07.04-.15.07-.18.11-1.02.53-2.01,1.17-2.96,1.91,3.47-.39,6.95-.57,10.53-.57,6.25,0,12.4.57,18.33,1.7.11.07.22.14.33.25-1.06-1.03-2.23-1.91-3.47-2.65-.37-.21-.77-.42-1.13-.64-1.54-.85-3.11-1.49-4.76-1.91-1.98-.53-4.02-.81-6.07-.81h0Z"/>
        </g>
        <g>
          <path class="cls-3" d="M177.8,125.41c-.44-.71-.91-1.41-1.39-2.12l.04-.04c.44.71.91,1.41,1.35,2.16Z"/>
          <path class="cls-3" d="M185.81,154.8v-1.1c0-.71,0-1.45-.04-2.16.07.71.07,1.45.07,2.16,0,.35,0,.71-.04,1.1Z"/>
          <path class="cls-3" d="M55.23,452.52v21.18c-19.06-4.07-37.53-9.69-55.2-16.73h-.04v-22.49h.04c17.63,7.6,36.07,13.65,55.2,18.04Z"/>
        </g>
        <g>
          <path d="M177.8,125.41c-.44-.71-.91-1.41-1.39-2.12l.04-.04c.44.71.91,1.41,1.35,2.16Z"/>
          <path d="M185.81,154.8v-1.1c0-.71,0-1.45-.04-2.16.07.71.07,1.45.07,2.16,0,.35,0,.71-.04,1.1Z"/>
          <path class="cls-1" d="M55.23,406.97v21.57c-19.24-4.77-37.67-11.35-55.2-19.63h-.04v-23.52s.04,0,.04.04c5.52,2.86,11.16,5.55,16.9,8.06,1.5.67,3.04,1.31,4.57,1.95.55.21,1.1.46,1.65.67,1.9.81,3.88,1.56,5.82,2.3.55.21,1.13.42,1.68.64,1.79.67,3.58,1.34,5.38,1.95,1.32.49,2.67.95,4.02,1.38.51.18,1.02.35,1.57.5,1.83.64,3.66,1.2,5.52,1.77,1.02.32,2.05.64,3.07.92,1.43.42,2.85.81,4.32,1.2.22.07.48.14.69.21Z"/>
        </g>
        <g>
          <path d="M177.8,125.41c-.44-.71-.91-1.41-1.39-2.12l.04-.04c.44.71.91,1.41,1.35,2.16Z"/>
          <path d="M185.81,154.8v-1.1c0-.71,0-1.45-.04-2.16.07.71.07,1.45.07,2.16,0,.35,0,.71-.04,1.1Z"/>
          <path class="cls-4" d="M55.23,361.06v21.47c-19.53-5.8-38.04-13.9-55.2-23.94,0-.04-.04-.04-.04-.04v-24.44s.04,0,.04.04c2.27,1.52,4.57,3.01,6.91,4.42,2.19,1.38,4.43,2.72,6.69,4,2.01,1.13,4.02,2.26,6.07,3.32,1.94,1.06,3.88,2.05,5.85,3.01.48.25.95.5,1.43.71,1.87.92,3.77,1.8,5.67,2.62.48.28.99.5,1.46.67,1.68.78,3.37,1.52,5.05,2.16.95.46,1.87.85,2.82,1.17,1.46.64,2.93,1.2,4.39,1.73.88.35,1.76.67,2.63.95,2.05.78,4.13,1.52,6.22,2.16Z"/>
          <path d="M230.04,350.7c-.37-.18-.77-.39-1.13-.57v-.04c.4.18.77.39,1.13.6Z"/>
        </g>
        <g>
          <path d="M177.8,125.41c-.44-.71-.91-1.41-1.39-2.12l.04-.04c.44.71.91,1.41,1.35,2.16Z"/>
          <path d="M185.81,154.8v-1.1c0-.71,0-1.45-.04-2.16.07.71.07,1.45.07,2.16,0,.35,0,.71-.04,1.1Z"/>
          <path class="cls-2" d="M.04,278.3l-.04-.04v26.63l.04.04c16.46,13.01,35.04,23.66,55.2,31.19v-21.33c-20.7-8.81-39.36-21.26-55.2-36.5Z"/>
        </g>
        <g>
          <path d="M177.8,125.41c-.44-.71-.91-1.41-1.39-2.12l.04-.04c.44.71.91,1.41,1.35,2.16Z"/>
          <path d="M185.81,154.8v-1.1c0-.71,0-1.45-.04-2.16.07.71.07,1.45.07,2.16,0,.35,0,.71-.04,1.1Z"/>
          <path class="cls-3" d="M263.29,182.35c-5.12,22.6-16.17,43.04-31.49,59.77l14.59,12.73c6.36-6.86,12.03-14.29,16.97-22.18v-49.05c0-.42,0-.85-.07-1.27ZM.04,202.76s-.04-.04-.04-.07v39.4s0,.04.04.04c14.63,19.88,34.13,36.22,56.73,47.39.95-1.98,2.38-3.82,4.17-5.38l10.28-8.98C38.88,260.87,13.2,234.84.04,202.76Z"/>
        </g>
        <g>
          <path d="M203.09,149.23c-.44-.71-.91-1.41-1.39-2.12l.04-.04c.44.71.91,1.41,1.35,2.16Z"/>
          <path d="M211.1,178.62v-1.1c0-.71,0-1.45-.04-2.16.07.71.07,1.45.07,2.16,0,.35,0,.71-.04,1.1Z"/>
          <path class="cls-3" d="M257.08,265.95l6.28,5.48v-12.86c-1.99,2.54-4.09,4.99-6.28,7.38Z"/>
        </g>
        <g>
          <path class="cls-1" d="M177.8,125.41c-.44-.71-.91-1.41-1.39-2.12l.04-.04c.44.71.91,1.41,1.35,2.16Z"/>
          <path class="cls-1" d="M185.81,154.8v-1.1c0-.71,0-1.45-.04-2.16.07.71.07,1.45.07,2.16,0,.35,0,.71-.04,1.1Z"/>
          <path class="cls-1" d="M143.64,57.82c-.37-.21-.77-.42-1.13-.64-1.54-.85-3.11-1.49-4.76-1.91-1.98-.53-4.02-.81-6.07-.81-.69,0-1.39.04-2.08.11-.66.04-1.32.14-1.98.25-.55.11-1.13.25-1.68.39-.33.07-.69.18-1.02.32-.62.14-1.21.35-1.79.6-.33.14-.66.28-.95.42-.37.14-.73.32-1.1.53-.07.04-.15.07-.18.11-1.02.53-2.01,1.17-2.96,1.91,3.47-.39,6.95-.57,10.53-.57,6.25,0,12.4.57,18.33,1.7-.99-.92-2.05-1.7-3.15-2.4ZM225.14,135.91c1.17,5.76,1.76,11.71,1.76,17.79,0,23.98-9.25,45.94-24.51,62.71l14.08,12.31c17.81-19.49,28.79-44.95,29.34-72.82l-20.67-19.98ZM30.03,153.7c0-3.54.18-7,.62-10.43l-19.28,18.6v.04c3.37,45.41,34.38,83.43,76.81,98.43l16.39-14.36c-42.76-10.33-74.55-47.78-74.55-92.27Z"/>
        </g>
        <g>
          <path d="M177.8,125.41c-.44-.71-.91-1.41-1.39-2.12l.04-.04c.44.71.91,1.41,1.35,2.16Z"/>
          <path d="M185.81,154.8v-1.1c0-.71,0-1.45-.04-2.16.07.71.07,1.45.07,2.16,0,.35,0,.71-.04,1.1Z"/>
          <path class="cls-2" d="M189,111.12l-12.58,12.17c.48.71.95,1.41,1.39,2.12.44.71.84,1.45,1.24,2.19.8,1.45,1.57,2.97,2.27,4.53.73,1.66,1.39,3.36,1.94,5.09.22.64.4,1.31.59,1.98.18.64.37,1.31.51,1.98.15.67.29,1.34.44,2.02.29,1.34.51,2.72.66,4.14.15,1.38.26,2.79.33,4.21.04.71.04,1.45.04,2.16v1.1c0,.35-.04.71-.04,1.06-.07,1.41-.18,2.83-.33,4.21-.15,1.41-.37,2.79-.66,4.14-.15.67-.29,1.34-.44,2.02-.15.6-.29,1.2-.44,1.8-.22.74-.4,1.45-.66,2.16-.55,1.73-1.21,3.43-1.94,5.09-.69,1.66-1.5,3.29-2.41,4.85-.88,1.59-1.83,3.11-2.85,4.56,0,0-.04,0-.04.04-.51.74-1.06,1.49-1.61,2.19-1.1,1.41-2.27,2.76-3.51,4.07-.62.64-1.24,1.27-1.9,1.91-.4.39-.8.78-1.24,1.17-.4.35-.84.74-1.24,1.1-.77.67-1.54,1.31-2.34,1.91-.22.18-.48.35-.69.53-.77.57-1.57,1.13-2.38,1.7-1.68,1.13-3.44,2.16-5.27,3.15-.37.18-.69.35-1.06.53-.04.04-.07.04-.11.07-.73.35-1.5.71-2.27,1.06-.15.07-.29.14-.44.21-1.02.42-2.05.85-3.07,1.2-.44.18-.91.35-1.35.5l-1.98.64c-.91.28-1.83.53-2.74.78s-1.83.42-2.78.6c-.48.11-.95.18-1.43.25-.91.18-1.87.32-2.82.42-.99.14-1.98.25-2.96.28-1.43.14-2.89.18-4.35.18-1.35,0-2.67-.04-3.99-.14-.55-.04-1.1-.07-1.65-.14-.59-.07-1.17-.11-1.76-.18l-.66-.11c-.66-.07-1.35-.18-2.01-.32-1.46-.21-2.89-.53-4.32-.88-1.79-.46-3.58-.99-5.3-1.59-.48-.18-.91-.35-1.35-.53-.48-.18-.91-.32-1.35-.53-.91-.35-1.79-.74-2.67-1.17-.77-.35-1.5-.71-2.23-1.13-.55-.28-1.1-.57-1.61-.88-.22-.11-.4-.21-.59-.32-.88-.49-1.76-1.03-2.6-1.59-.73-.46-1.46-.99-2.19-1.52-.73-.49-1.46-1.06-2.19-1.66h-.04c-1.39-1.1-2.74-2.3-4.02-3.57-.69-.67-1.35-1.34-2.01-2.05-.51-.53-1.02-1.1-1.5-1.66-.51-.57-.99-1.17-1.46-1.77-.48-.53-.88-1.1-1.28-1.7-.8-1.06-1.57-2.12-2.27-3.25-.99-1.52-1.87-3.11-2.63-4.7-.44-.81-.8-1.63-1.17-2.48-.37-.81-.69-1.66-1.02-2.51-.66-1.7-1.21-3.43-1.68-5.2-.26-.88-.48-1.77-.62-2.69-.22-.88-.4-1.77-.51-2.69,0,0-.04-.04,0-.07,0-.04-.04-.11-.04-.14-.15-.85-.26-1.7-.33-2.62-.22-1.84-.33-3.75-.33-5.66s.11-3.82.33-5.66c.07-.92.18-1.77.33-2.62,0-.04.04-.11.04-.14-.04-.04,0-.07,0-.07.11-.92.29-1.8.51-2.69.15-.92.37-1.8.62-2.69.48-1.77,1.02-3.5,1.68-5.2.33-.85.66-1.7,1.02-2.51.37-.85.73-1.66,1.17-2.48.77-1.59,1.65-3.18,2.63-4.7.59-.95,1.24-1.91,1.9-2.79.44-.67.91-1.31,1.43-1.91.44-.6.91-1.17,1.39-1.73.11-.11.18-.21.29-.32.48-.57.99-1.13,1.5-1.66.66-.71,1.32-1.38,2.01-2.05,1.28-1.27,2.63-2.48,4.02-3.57h.04c.73-.6,1.46-1.17,2.19-1.66.73-.53,1.46-1.06,2.19-1.52.84-.57,1.72-1.1,2.6-1.59,1.43-.85,2.93-1.63,4.43-2.33.15-.07.26-.11.4-.18.77-.35,1.57-.71,2.38-1.03.48-.21,1.02-.42,1.54-.6.62-.25,1.28-.49,1.9-.67.62-.25,1.21-.42,1.83-.6.66-.21,1.32-.39,2.01-.57.55-.14,1.13-.28,1.72-.42.73-.18,1.46-.35,2.19-.46.59-.14,1.13-.21,1.72-.28.73-.14,1.43-.25,2.16-.32.51-.07,1.06-.14,1.57-.18.55-.07,1.1-.11,1.65-.14,1.32-.11,2.63-.14,3.99-.14.84,0,1.65,0,2.45.07.8,0,1.61.07,2.38.14.62.07,1.21.11,1.79.18.59.04,1.17.11,1.72.21.59.07,1.17.18,1.72.28.91.14,1.79.28,2.63.5,1.13.25,2.23.53,3.33.85.15.04.29.07.44.11,1.21.35,2.41.74,3.62,1.17.95.35,1.9.74,2.85,1.13.48.21.95.42,1.43.64,1.02.46,2.01.95,3,1.45.15.11.33.18.48.28.51.28,1.02.57,1.54.85.51.28,1.02.57,1.5.88l12.58-12.2c-12.25-8.45-27.25-13.44-43.45-13.44-41.33,0-74.87,32.4-74.87,72.4s32.99,71.83,73.85,72.33l20.26-17.72c6.22-5.45,14.45-8.17,22.68-8.17,4.54,0,9.03.81,13.24,2.51,12.22-12.87,19.68-30.06,19.68-48.95,0-15.92-5.3-30.63-14.3-42.58Z"/>
        </g>
        <path class="cls-2" d="M286.91,28.15l-29.92,28.93-22.93,5.48-42.36,40.99h-.04l-4.9,4.74-12.47,12.06-.04.04-18.18,17.58c6.4,11.18,4.72,25.57-5.08,35.05-5.93,5.73-13.72,8.59-21.51,8.59s-15.58-2.86-21.51-8.59c-11.85-11.46-11.85-30.13,0-41.59,5.93-5.73,13.72-8.59,21.47-8.59,5.12,0,10.21,1.24,14.78,3.71l18.14-17.58,12.51-12.06,4.94-4.81h.04l42.36-40.99,5.71-22.18L257.8,0v28.15h29.12Z"/>
        <path class="cls-2" d="M231.25,269.17l-12.62-10.99-13.18-11.53-12.18-10.62-7.44-6.49c-2.82-2.46-6.84-3.88-11.05-3.88-.31,0-.6,0-.91.03-3.86.18-7.53,1.58-10.14,3.85l-2.79,2.46h-.03s-60.79,46.54-80.62,62.61c-.26.21-.42.44-.53.64-.13.23-.22.46-.22.67v179.84h56.36v-79.06c0-6.13,2.64-11.84,7.44-16.05l1.76-1.55,22.25-19.42,26.99-23.61c5.84-5.1,13.59-7.92,21.75-7.92s15.5,2.67,21.28,7.56c.16.09.31.24.47.36l4.21,3.64v-61.09l-10.8-9.44ZM148.72,294.37c-.13-.97-.21-1.97-.21-2.99,0-4.04,1.11-7.82,3.07-11.07,3.97-6.6,11.34-11.02,19.78-11.02,3.99,0,7.72,1,10.97,2.71,4.44,2.35,7.99,6.08,9.99,10.58,1.22,2.71,1.88,5.68,1.88,8.79,0,3.73-.95,7.24-2.62,10.3-3.83,7-11.45,11.79-20.23,11.79-4.31,0-8.33-1.15-11.74-3.14-5.82-3.37-9.94-9.18-10.89-15.95Z"/>
      </g>
      <g>
        <g>
          <path class="cls-5" d="M1120.15,111.25c3.59,10.34,1.25,22.28-6.99,30.53-11.49,11.49-30.17,11.49-41.66,0-11.49-11.49-11.49-30.17,0-41.66,8.24-8.24,20.19-10.57,30.53-6.98,2.31.8,4.56,1.91,6.66,3.31l-6.66,9.98c-6.79-4.53-16.07-3.81-22.05,2.18-6.81,6.81-6.81,17.9,0,24.71,6.81,6.81,17.9,6.81,24.71,0,5.99-5.99,6.71-15.27,2.17-22.05l9.98-6.66,43.12-28.79,28.44-18.99-30.37-1.56-1.56-30.37-18.99,28.44c-2.06-1.38-4.17-2.65-6.31-3.82-30.84-16.78-70.23-12.13-96.32,13.96-31.75,31.75-31.76,83.23,0,114.98,31.75,31.75,83.23,31.75,114.98,0,26.09-26.09,30.74-65.48,13.96-96.32l-43.63,29.13Z"/>
          <path class="cls-5" d="M468.25,42.84c-14.51,0-28.12,3.88-39.89,10.69l-.06-.37h-41.7v191.1h44.41v-50.27c11.15,5.88,23.79,9.19,37.23,9.19,44.22,0,80.17-35.96,80.17-80.17s-35.96-80.17-80.17-80.17ZM494.05,124.34c-.71,13.64-11.99,24.5-25.8,24.5s-25.83-11.57-25.83-25.83,11.57-25.83,25.83-25.83,25.09,10.86,25.8,24.5c.03.45.03.88.03,1.33s0,.88-.03,1.33Z"/>
          <path class="cls-5" d="M633.99,42.84c-44.22,0-80.2,35.96-80.2,80.17s35.98,80.17,80.2,80.17,80.17-35.96,80.17-80.17-35.96-80.17-80.17-80.17ZM633.99,148.84c-14.26,0-25.83-11.57-25.83-25.83s11.57-25.83,25.83-25.83,25.8,11.57,25.8,25.83-11.54,25.83-25.8,25.83Z"/>
          <path class="cls-5" d="M806.11,49.37c-44.92,0-72.53,19.24-72.53,65.24v78.22h44.39v-78.22c0-17.06,8.66-27.61,28.15-27.61s28.15,10.55,28.15,27.61v78.22h44.39v-78.22c0-46-27.61-65.24-72.53-65.24Z"/>
          <path class="cls-5" d="M965.52,53.16V15.82h-44.39v37.34h-28.97v37.63h28.97v102.04h44.39v-102.04h34.37v-37.63h-34.37Z"/>
        </g>
        <g>
          <path class="cls-5" d="M702.09,351.79c0-43.08-27.19-68.66-70.27-68.66-45.77,0-76.75,23.68-76.75,73.21s30.16,73.24,76.75,73.24c35.53,0,58.67-18.05,66.76-42.8h-43.08c-4.84,6.73-13.72,10.78-24.22,10.78-17.23,0-29.62-9.99-32.31-29.62h102.04c.79-5.66,1.07-11.06,1.07-16.15ZM599.76,339.65c3.79-15.62,16.15-24.5,29.36-24.5s26.37,7.02,29.34,24.5h-58.7Z"/>
          <path class="cls-5" d="M770.72,307.88h-2.69l-2.69-20.99h-41.47v138.93h44.16v-58.95c0-28.01,13.75-39.86,37.71-39.86,3.22,0,6.73,0,10.21.54v-40.65c-24.22,0-35.81,7.55-45.23,20.99Z"/>
          <path class="cls-5" d="M907.21,265.9c5.12,0,11.32.79,18.3,1.87v-33.64c-10.5-2.43-20.99-4.33-30.13-4.33-27.47,0-47.13,11.85-47.13,46.31v10.78h-24.22v37.43h24.22v101.5h44.16v-101.5h33.1v-37.43h-33.1v-7.53c0-10.52,5.12-13.47,14.8-13.47Z"/>
          <path class="cls-5" d="M1077.91,351.79c0-43.08-27.19-68.66-70.27-68.66-45.77,0-76.72,23.68-76.72,73.21s30.16,73.24,76.72,73.24c35.53,0,58.7-18.05,66.76-42.8h-43.06c-4.87,6.73-13.75,10.78-24.24,10.78-17.23,0-29.62-9.99-32.31-29.62h102.04c.79-5.66,1.08-11.06,1.08-16.15ZM975.59,339.65c3.79-15.62,16.15-24.5,29.36-24.5s26.39,7.02,29.34,24.5h-58.7Z"/>
          <path class="cls-5" d="M1121.79,223.35c-14.54,0-25.04,10.5-25.04,25.04s10.5,25.04,25.04,25.04,25.04-10.5,25.04-25.04-10.5-25.04-25.04-25.04ZM1099.72,286.89v138.93h44.13v-138.93h-44.13Z"/>
          <path class="cls-5" d="M1235.68,286.89v-37.14h-44.16v37.14h-28.83v37.43h28.83v101.5h44.16v-101.5h34.17v-37.43h-34.17Z"/>
          <path class="cls-5" d="M1354.13,276.17c-44.22,0-80.17,35.98-80.17,80.17s35.96,80.2,80.17,80.2,80.17-35.98,80.17-80.2-35.96-80.17-80.17-80.17ZM1354.13,330.54c14.26,0,25.83,11.54,25.83,25.8s-11.57,25.83-25.83,25.83-25.83-11.57-25.83-25.83,11.57-25.8,25.83-25.8Z"/>
          <path class="cls-5" d="M468.25,276.17c-14.65,0-28.4,3.96-40.23,10.89l-.03-.17h-41.44v190.11h44.13v-49.85c11.2,6,24.02,9.39,37.57,9.39,44.22,0,80.17-35.98,80.17-80.2s-35.96-80.17-80.17-80.17ZM468.25,382.17c-14.26,0-25.83-11.57-25.83-25.83s11.57-25.8,25.83-25.8,25.83,11.54,25.83,25.8-11.57,25.83-25.83,25.83Z"/>
        </g>
      </g>
    </g>
  </g>
</svg>