<?xml version="1.0" encoding="UTF-8"?>
<svg id="Camada_2" data-name="Camada 2" xmlns="http://www.w3.org/2000/svg" viewBox="0 0 780.82 1294.7">
  <defs>
    <style>
      .cls-1 {
        fill: #0a3293;
      }

      .cls-2 {
        fill: #2558d8;
      }

      .cls-3 {
        fill: #1a45c1;
      }

      .cls-4 {
        fill: #0030ba;
      }

      .cls-5 {
        fill: #0d32ce;
      }

      .cls-6 {
        fill: #2d67e8;
      }

      .cls-7 {
        fill: #0035cf;
      }
    </style>
  </defs>
  <g id="Camada_1-2" data-name="Camada 1">
    <g>
      <path class="cls-5" d="M673.76,1013.63v228.48c0,29.09-24.38,52.59-54.47,52.59h-196.16v-211.06c0-6.31,2.82-12.25,7.93-16.77l61.58-53.81,58.69-51.3h.07c1.11-.93,2.22-1.86,3.33-2.65h.07c1.11-.79,2.3-1.58,3.48-2.29,1.19-.72,2.45-1.36,3.78-1.93h.07c.59-.29,1.26-.5,1.85-.79.15,0,.22-.07.37-.14.3-.14.59-.21.82-.29.22-.14.52-.29.82-.36h.15c.82-.36,1.7-.65,2.67-.86.07,0,.15-.07.22-.07s.22-.07.3-.07c.74-.22,1.41-.36,2.07-.5.15-.07.3-.14.44-.14,1.63-.36,3.19-.64,4.82-.79.89-.14,1.7-.21,2.59-.29,1.19-.07,2.37-.14,3.56-.14,1.04,0,2,0,3.04.07.15,0,.3,0,.44.07.59,0,1.26.07,1.85.14,1.85.14,3.71.5,5.56.93.3.07.67.14.96.22h.3c.44.14.82.21,1.19.36.74.14,1.41.36,2.15.65.52.14,1.11.36,1.63.57.22.07.37.14.59.22q.07,0,.15.07c.15.07.22.07.37.14.15,0,.22.07.37.14.07-.07.15-.07.15.07h.07c.37.14.74.29,1.04.43.3.07.59.21.89.29.15.07.22.14.3.14v.07c.74.36,1.56.79,2.3,1.15.15.07.3.14.44.22l.15.07c.22.14.44.29.67.36.22.14.52.29.82.5q.07.07.15.14c.3.14.59.29.89.5.07,0,.15.07.22.14.52.29,1.04.64,1.48,1,1.19.79,2.3,1.72,3.41,2.65l25.12,22,34.16,29.81.07.07Z"/>
      <g>
        <path class="cls-4" d="M349.6,159.29c-9.76,0-19.21.48-28.67,1.54,2.59-2.02,5.28-3.75,8.06-5.2.1-.1.3-.19.5-.29,1-.58,1.99-1.06,2.99-1.44.8-.38,1.69-.77,2.59-1.15,1.59-.67,3.19-1.25,4.88-1.64.9-.39,1.89-.67,2.79-.87,1.49-.38,3.09-.77,4.58-1.06,1.79-.29,3.58-.58,5.38-.67,1.89-.19,3.78-.29,5.67-.29,5.57,0,11.15.77,16.52,2.21,4.48,1.15,8.76,2.89,12.94,5.2,1,.58,2.09,1.15,3.09,1.73,3.38,2.02,6.57,4.43,9.46,7.22-.3-.29-.6-.48-.9-.67-16.13-3.08-32.85-4.62-49.87-4.62Z"/>
        <path class="cls-5" d="M358.36,148.22c-1.89,0-3.78.1-5.67.29-1.79.1-3.58.38-5.38.67-1.49.29-3.09.67-4.58,1.06-.9.19-1.89.48-2.79.87-1.69.38-3.29.96-4.88,1.64-.9.38-1.79.77-2.59,1.15-1,.38-1.99.87-2.99,1.44-.2.1-.4.19-.5.29-2.79,1.44-5.47,3.18-8.06,5.2,9.46-1.06,18.91-1.54,28.67-1.54,17.02,0,33.74,1.54,49.87,4.62.3.19.6.39.9.67-2.89-2.79-6.07-5.2-9.46-7.22-1-.58-2.09-1.15-3.09-1.73-4.18-2.31-8.46-4.04-12.94-5.2-5.38-1.44-10.95-2.21-16.52-2.21h0Z"/>
      </g>
      <g>
        <path class="cls-4" d="M483.88,341.29c-1.19-1.92-2.49-3.85-3.78-5.77l.1-.1c1.19,1.93,2.49,3.85,3.68,5.87Z"/>
        <path class="cls-4" d="M505.68,421.28v-2.98c0-1.92,0-3.95-.1-5.87.2,1.93.2,3.95.2,5.87,0,.96,0,1.93-.1,2.98Z"/>
        <path class="cls-5" d="M150.31,1231.49v57.65c-51.86-11.07-102.13-26.37-150.21-45.53h-.1v-61.21h.1c47.98,20.69,98.15,37.15,150.21,49.09Z"/>
      </g>
      <g>
        <path class="cls-4" d="M483.88,341.29c-1.19-1.92-2.49-3.85-3.78-5.77l.1-.1c1.19,1.93,2.49,3.85,3.68,5.87Z"/>
        <path class="cls-4" d="M505.68,421.28v-2.98c0-1.92,0-3.95-.1-5.87.2,1.93.2,3.95.2,5.87,0,.96,0,1.93-.1,2.98Z"/>
        <path class="cls-7" d="M150.31,1107.52v58.71c-52.36-12.99-102.53-30.9-150.21-53.42h-.1v-64.01s.1,0,.1.1c15.03,7.8,30.36,15.11,45.99,21.94,4.08,1.83,8.26,3.56,12.44,5.29,1.49.58,2.99,1.25,4.48,1.83,5.18,2.21,10.55,4.23,15.83,6.26,1.49.58,3.09,1.15,4.58,1.73,4.88,1.83,9.76,3.66,14.63,5.29,3.58,1.35,7.27,2.6,10.95,3.75,1.39.48,2.79.96,4.28,1.35,4.98,1.73,9.95,3.27,15.03,4.81,2.79.87,5.57,1.73,8.36,2.5,3.88,1.15,7.76,2.21,11.75,3.27.6.19,1.29.38,1.89.58Z"/>
      </g>
      <g>
        <path class="cls-4" d="M483.88,341.29c-1.19-1.92-2.49-3.85-3.78-5.77l.1-.1c1.19,1.93,2.49,3.85,3.68,5.87Z"/>
        <path class="cls-4" d="M505.68,421.28v-2.98c0-1.92,0-3.95-.1-5.87.2,1.93.2,3.95.2,5.87,0,.96,0,1.93-.1,2.98Z"/>
        <path class="cls-3" d="M150.31,982.59v58.42c-53.16-15.78-103.53-37.83-150.21-65.16,0-.1-.1-.1-.1-.1v-66.51s.1,0,.1.1c6.17,4.14,12.44,8.18,18.81,12.03,5.97,3.75,12.04,7.41,18.22,10.88,5.47,3.08,10.95,6.16,16.52,9.05,5.28,2.89,10.55,5.58,15.93,8.18,1.29.67,2.59,1.35,3.88,1.93,5.08,2.5,10.25,4.91,15.43,7.12,1.29.77,2.69,1.35,3.98,1.83,4.58,2.12,9.16,4.14,13.74,5.87,2.59,1.25,5.08,2.31,7.67,3.18,3.98,1.73,7.96,3.27,11.95,4.72,2.39.96,4.78,1.83,7.17,2.6,5.57,2.12,11.25,4.14,16.92,5.87Z"/>
      </g>
      <g>
        <path class="cls-4" d="M483.88,341.29c-1.19-1.92-2.49-3.85-3.78-5.77l.1-.1c1.19,1.93,2.49,3.85,3.68,5.87Z"/>
        <path class="cls-4" d="M505.68,421.28v-2.98c0-1.92,0-3.95-.1-5.87.2,1.93.2,3.95.2,5.87,0,.96,0,1.93-.1,2.98Z"/>
        <path class="cls-5" d="M.1,757.37l-.1-.1v72.47l.1.1c44.79,35.42,95.36,64.39,150.21,84.89v-58.04c-56.34-23.97-107.11-57.85-150.21-99.33Z"/>
      </g>
      <g>
        <path class="cls-4" d="M483.88,341.29c-1.19-1.92-2.49-3.85-3.78-5.77l.1-.1c1.19,1.93,2.49,3.85,3.68,5.87Z"/>
        <path class="cls-4" d="M505.68,421.28v-2.98c0-1.92,0-3.95-.1-5.87.2,1.93.2,3.95.2,5.87,0,.96,0,1.93-.1,2.98Z"/>
        <path class="cls-6" d="M716.51,496.25c-13.94,61.5-44,117.13-85.71,162.66l39.72,34.65c17.32-18.67,32.75-38.88,46.19-60.35v-133.5c0-1.15,0-2.31-.2-3.46ZM.1,551.79c0-.1-.1-.1-.1-.19v107.22s0,.1.1.1c39.82,54.09,92.87,98.56,154.39,128.97,2.59-5.39,6.47-10.39,11.35-14.63l27.97-24.45C105.81,709.92,35.93,639.09.1,551.79Z"/>
      </g>
      <path class="cls-6" d="M699.63,723.76l17.09,14.91v-34.98c-5.42,6.9-11.14,13.58-17.09,20.07Z"/>
      <g>
        <path class="cls-4" d="M483.88,341.29c-1.19-1.92-2.49-3.85-3.78-5.77l.1-.1c1.19,1.93,2.49,3.85,3.68,5.87Z"/>
        <path class="cls-4" d="M505.68,421.28v-2.98c0-1.92,0-3.95-.1-5.87.2,1.93.2,3.95.2,5.87,0,.96,0,1.93-.1,2.98Z"/>
        <path class="cls-2" d="M390.91,157.37c-1-.58-2.09-1.15-3.09-1.73-4.18-2.31-8.46-4.04-12.94-5.2-5.38-1.44-10.95-2.21-16.52-2.21-1.89,0-3.78.1-5.67.29-1.79.1-3.58.38-5.38.67-1.49.29-3.09.67-4.58,1.06-.9.19-1.89.48-2.79.87-1.69.38-3.29.96-4.88,1.64-.9.38-1.79.77-2.59,1.15-1,.38-1.99.87-2.99,1.44-.2.1-.4.19-.5.29-2.79,1.44-5.47,3.18-8.06,5.2,9.46-1.06,18.91-1.54,28.67-1.54,17.02,0,33.74,1.54,49.87,4.62-2.69-2.5-5.57-4.62-8.56-6.54ZM612.69,369.88c3.19,15.69,4.78,31.86,4.78,48.41,0,65.26-25.18,125.03-66.69,170.65l38.32,33.49c48.48-53.03,78.34-122.33,79.83-198.17l-56.24-54.38ZM81.72,418.29c0-9.62.5-19.06,1.69-28.39l-52.46,50.63v.1c9.16,123.58,93.57,227.05,209.04,267.86l44.6-39.08c-116.37-28.1-202.87-130.03-202.87-251.11Z"/>
      </g>
      <g>
        <path class="cls-4" d="M483.88,341.29c-1.19-1.92-2.49-3.85-3.78-5.77l.1-.1c1.19,1.93,2.49,3.85,3.68,5.87Z"/>
        <path class="cls-4" d="M505.68,421.28v-2.98c0-1.92,0-3.95-.1-5.87.2,1.93.2,3.95.2,5.87,0,.96,0,1.93-.1,2.98Z"/>
        <path class="cls-1" d="M514.34,302.41l-34.24,33.11c1.29,1.93,2.59,3.85,3.78,5.77,1.19,1.93,2.29,3.95,3.38,5.97,2.19,3.95,4.28,8.09,6.17,12.32,1.99,4.52,3.78,9.14,5.28,13.86.6,1.73,1.09,3.56,1.59,5.39.5,1.73,1,3.56,1.39,5.39.4,1.83.8,3.66,1.19,5.49.8,3.66,1.39,7.41,1.79,11.26.4,3.75.7,7.6.9,11.45.1,1.93.1,3.95.1,5.87v2.98c0,.96-.1,1.93-.1,2.89-.2,3.85-.5,7.7-.9,11.45-.4,3.85-1,7.6-1.79,11.26-.4,1.83-.8,3.66-1.19,5.49-.4,1.64-.8,3.27-1.19,4.91-.6,2.02-1.09,3.95-1.79,5.87-1.49,4.72-3.29,9.34-5.28,13.86-1.89,4.52-4.08,8.95-6.57,13.19-2.39,4.33-4.98,8.47-7.76,12.42,0,0-.1,0-.1.1-1.39,2.02-2.89,4.04-4.38,5.97-2.99,3.85-6.17,7.51-9.56,11.07-1.69,1.73-3.38,3.46-5.18,5.2-1.09,1.06-2.19,2.12-3.38,3.18-1.09.96-2.29,2.02-3.38,2.98-2.09,1.83-4.18,3.56-6.37,5.2-.6.48-1.29.96-1.89,1.44-2.09,1.54-4.28,3.08-6.47,4.62-4.58,3.08-9.36,5.87-14.33,8.57-1,.48-1.89.96-2.89,1.44-.1.1-.2.1-.3.19-1.99.96-4.08,1.93-6.17,2.89-.4.19-.8.39-1.19.58-2.79,1.16-5.57,2.31-8.36,3.27-1.19.48-2.49.96-3.68,1.35l-5.38,1.73c-2.49.77-4.98,1.44-7.47,2.12s-4.98,1.15-7.57,1.64c-1.29.29-2.59.48-3.88.67-2.49.48-5.08.87-7.66,1.15-2.69.38-5.38.67-8.06.77-3.88.39-7.86.48-11.85.48-3.68,0-7.27-.1-10.85-.39-1.49-.1-2.99-.19-4.48-.38-1.59-.19-3.19-.29-4.78-.48l-1.79-.29c-1.79-.19-3.68-.48-5.47-.87-3.98-.58-7.86-1.44-11.75-2.41-4.88-1.25-9.76-2.7-14.43-4.33-1.29-.48-2.49-.96-3.68-1.44-1.29-.48-2.49-.87-3.68-1.44-2.49-.96-4.88-2.02-7.27-3.18-2.09-.96-4.08-1.93-6.07-3.08-1.49-.77-2.99-1.54-4.38-2.41-.6-.29-1.09-.58-1.59-.87-2.39-1.35-4.78-2.79-7.07-4.33-1.99-1.25-3.98-2.7-5.97-4.14-1.99-1.35-3.98-2.89-5.97-4.52h-.1c-3.78-2.98-7.47-6.26-10.95-9.72-1.89-1.83-3.68-3.66-5.47-5.58-1.39-1.44-2.79-2.98-4.08-4.52-1.39-1.54-2.69-3.18-3.98-4.81-1.29-1.44-2.39-2.98-3.48-4.62-2.19-2.89-4.28-5.78-6.17-8.86-2.69-4.14-5.08-8.47-7.17-12.8-1.19-2.21-2.19-4.43-3.19-6.74-1-2.21-1.89-4.52-2.79-6.83-1.79-4.62-3.28-9.34-4.58-14.15-.7-2.41-1.29-4.81-1.69-7.31-.6-2.41-1.09-4.81-1.39-7.31,0,0-.1-.1,0-.19,0-.1-.1-.29-.1-.38-.4-2.31-.7-4.62-.9-7.12-.6-5.01-.9-10.2-.9-15.4s.3-10.39.9-15.4c.2-2.5.5-4.81.9-7.12,0-.1.1-.29.1-.39-.1-.1,0-.19,0-.19.3-2.5.8-4.91,1.39-7.31.4-2.5,1-4.91,1.69-7.31,1.29-4.81,2.79-9.53,4.58-14.15.9-2.31,1.79-4.62,2.79-6.83,1-2.31,1.99-4.52,3.19-6.74,2.09-4.33,4.48-8.66,7.17-12.8,1.59-2.6,3.38-5.2,5.18-7.6,1.19-1.83,2.49-3.56,3.88-5.2,1.19-1.64,2.49-3.18,3.78-4.72.3-.29.5-.58.8-.87,1.29-1.54,2.69-3.08,4.08-4.52,1.79-1.93,3.58-3.75,5.47-5.58,3.48-3.46,7.17-6.74,10.95-9.72h.1c1.99-1.64,3.98-3.18,5.97-4.52,1.99-1.44,3.98-2.89,5.97-4.14,2.29-1.54,4.68-2.98,7.07-4.33,3.88-2.31,7.96-4.43,12.04-6.35.4-.19.7-.29,1.1-.48,2.09-.96,4.28-1.93,6.47-2.79,1.29-.58,2.79-1.15,4.18-1.64,1.69-.67,3.48-1.35,5.18-1.83,1.69-.67,3.29-1.15,4.98-1.64,1.79-.58,3.58-1.06,5.47-1.54,1.49-.39,3.09-.77,4.68-1.15,1.99-.48,3.98-.96,5.97-1.25,1.59-.39,3.09-.58,4.68-.77,1.99-.38,3.88-.67,5.87-.87,1.39-.19,2.89-.38,4.28-.48,1.49-.19,2.99-.29,4.48-.38,3.58-.29,7.17-.39,10.85-.39,2.29,0,4.48,0,6.67.19,2.19,0,4.38.19,6.47.38,1.69.19,3.28.29,4.88.48,1.59.1,3.19.29,4.68.58,1.59.19,3.19.48,4.68.77,2.49.39,4.88.77,7.17,1.35,3.09.67,6.07,1.44,9.06,2.31.4.1.8.19,1.19.29,3.28.96,6.57,2.02,9.85,3.18,2.59.96,5.18,2.02,7.76,3.08,1.29.58,2.59,1.16,3.88,1.73,2.79,1.25,5.47,2.6,8.16,3.95.4.29.9.48,1.29.77,1.39.77,2.79,1.54,4.18,2.31,1.39.77,2.79,1.54,4.08,2.41l34.24-33.21c-33.35-23-74.16-36.57-118.26-36.57-112.48,0-203.77,88.16-203.77,197.02s89.79,195.48,200.98,196.83l55.15-48.22c16.92-14.82,39.32-22.23,61.72-22.23,12.34,0,24.59,2.21,36.03,6.83,33.25-35.03,53.55-81.81,53.55-133.21,0-43.31-14.43-83.35-38.92-115.88Z"/>
      </g>
      <path class="cls-5" d="M780.82,76.61l-81.43,78.73-62.41,14.92-115.27,111.55h-.1l-13.34,12.9-33.94,32.82-.1.1-49.47,47.84c17.42,30.41,12.84,69.59-13.84,95.38-16.13,15.59-37.33,23.39-58.53,23.39s-42.41-7.8-58.53-23.39c-32.25-31.18-32.25-82,0-113.19,16.13-15.59,37.33-23.39,58.43-23.39,13.94,0,27.77,3.37,40.22,10.11l49.37-47.83,34.04-32.82,13.44-13.09h.1l115.27-111.55,15.53-60.35L701.58,0v76.61h79.24Z"/>
      <path class="cls-5" d="M629.33,732.52l-34.34-29.9-35.87-31.38-33.14-28.91-20.24-17.67c-7.69-6.69-18.62-10.57-30.07-10.57-.85,0-1.62,0-2.48.08-10.51.5-20.5,4.29-27.59,10.49l-7.6,6.69h-.09s-165.44,126.66-219.39,170.38c-.7.56-1.13,1.19-1.45,1.73-.36.62-.6,1.24-.6,1.82v489.42h153.37v-215.14c0-16.68,7.17-32.21,20.24-43.69l4.78-4.21,60.56-52.86,73.46-64.25c15.89-13.87,36.99-21.56,59.19-21.56s42.2,7.27,57.91,20.56c.43.25.85.66,1.28.99l11.45,9.91v-166.25l-29.38-25.69ZM404.73,801.12c-.36-2.64-.58-5.36-.58-8.14,0-10.99,3.02-21.29,8.35-30.13,10.79-17.95,30.87-29.99,53.82-29.99,10.87,0,21.01,2.71,29.86,7.37,12.09,6.4,21.73,16.56,27.2,28.8,3.31,7.37,5.11,15.45,5.11,23.93,0,10.16-2.59,19.69-7.12,28.04-10.43,19.06-31.16,32.07-55.05,32.07-11.73,0-22.67-3.13-31.95-8.56-15.83-9.18-27.06-24.98-29.65-43.41Z"/>
    </g>
  </g>
</svg>