<?xml version="1.0" encoding="UTF-8"?>
<svg id="Camada_2" data-name="Camada 2" xmlns="http://www.w3.org/2000/svg" viewBox="0 0 1558.21 2578.94">
  <defs>
    <style>
      .cls-1 {
        fill: #fbf409;
      }
    </style>
  </defs>
  <g id="Camada_1-2" data-name="Camada 1">
    <g>
      <path class="cls-1" d="M1232.36,2578.94h-391.72v-421.33c0-13.1,5.83-25.46,16.43-34.81l122.36-106.92,103.41-90.39c11.41-9.97,23.29-17.78,35.33-23.2,31.52-14.21,57.1-14.32,85.53-.39,9.92,4.86,19.72,11.58,29.96,20.55l40.22,35.21,67.95,59.29.75.73v454.76c0,58.72-49.44,106.49-110.21,106.49ZM844.64,2574.94h387.72c58.57,0,106.21-45.98,106.21-102.49v-453.03l-67.33-58.75-40.22-35.22c-9.97-8.73-19.48-15.26-29.09-19.97-27.24-13.35-51.8-13.21-82.12.45-11.68,5.26-23.23,12.86-34.34,22.57l-103.41,90.39-122.35,106.91c-9.71,8.58-15.07,19.88-15.07,31.81v417.33Z"/>
      <path class="cls-1" d="M796.02,333.14h0c-.36-.35-.73-.61-1.15-.88-31.65-6.02-64.72-9.07-98.32-9.07-19.87,0-38.43,1-56.73,3.05l-7.03.79,5.57-4.35c5.16-4.03,10.59-7.54,16.14-10.43.36-.27.76-.47,1.16-.67,2.01-1.16,4.05-2.15,6.07-2.94,1.65-.79,3.51-1.59,5.15-2.3,3.7-1.57,6.83-2.62,9.86-3.32,2.14-.9,4.29-1.46,5.74-1.77,3.61-.93,6.54-1.61,9.14-2.11,3.61-.58,7.28-1.17,10.95-1.37,3.71-.38,7.57-.58,11.38-.58,11.09,0,22.31,1.5,33.35,4.47,9,2.32,17.56,5.76,26.16,10.51,1.01.58,2.03,1.15,3.05,1.71,1.06.58,2.11,1.17,3.12,1.75,7.02,4.19,13.46,9.11,19.17,14.63h0l-2.78,2.88ZM696.55,319.19c31.59,0,62.73,2.68,92.67,7.97-3.65-2.93-7.54-5.63-11.63-8.08-.96-.56-1.99-1.13-3.02-1.7-1.05-.58-2.09-1.16-3.09-1.73-8.26-4.56-16.51-7.88-25.21-10.12-10.72-2.88-21.59-4.34-32.33-4.34-3.67,0-7.4.19-11.07.56-3.56.19-7.12.77-10.57,1.32-2.45.48-5.31,1.13-8.92,2.07-1.39.3-3.35.81-5.25,1.62l-.35.11c-2.84.65-5.82,1.64-9.35,3.14-1.62.7-3.47,1.49-5.05,2.25l-.15.07c-1.87.72-3.77,1.64-5.65,2.73l-.14.07c-.16.08-.41.2-.52.27l-.15.15-.26.14c-3.3,1.71-6.56,3.64-9.74,5.79,16.06-1.54,32.41-2.3,49.75-2.3Z"/>
      <path class="cls-1" d="M302.62,2568.37l-2.42-.52c-102.02-21.78-202.41-52.19-298.39-90.4H0v-125.62h2.61l.38.16c95.48,41.18,195.77,73.96,298.08,97.41l1.55.36v118.61ZM4,2474.02c94.79,37.69,193.91,67.77,294.62,89.41v-110.47c-101.08-23.27-200.18-55.62-294.62-96.16v117.23Z"/>
      <path class="cls-1" d="M302.62,2324.27l-2.48-.62c-103.08-25.58-203.47-61.26-298.39-106.07H0v-131.16h2c.6,0,1.15.25,1.55.64,29.54,15.31,60.1,29.88,90.82,43.32,8.14,3.65,16.55,7.13,24.68,10.5,1.46.56,2.98,1.2,4.45,1.82,1.45.61,2.95,1.24,4.41,1.8,9.06,3.87,18.47,7.47,27.58,10.95l3.86,1.47c1.49.58,3.02,1.15,4.54,1.72,1.54.57,3.07,1.15,4.56,1.72,9.49,3.56,19.33,7.25,28.99,10.49,6.8,2.55,14.08,5.05,21.72,7.45,2.73.94,5.49,1.9,8.41,2.65l.16.05c10.32,3.59,20.78,6.81,29.79,9.54,5.46,1.7,11.07,3.44,16.56,4.96,8.27,2.46,16.43,4.66,23.32,6.5l.1.03c.58.19,1.2.37,1.82.56.66.2,1.33.4,1.94.59l1.39.45v120.66ZM4,2214.23c93.76,44.21,192.87,79.5,294.62,104.93v-112.61c-.15-.05-.31-.09-.46-.14-.63-.19-1.27-.38-1.86-.57-6.91-1.84-15.08-4.05-23.34-6.5-5.52-1.53-11.16-3.28-16.61-4.97-9.03-2.74-19.51-5.96-29.87-9.56-3.04-.79-5.86-1.76-8.58-2.7-7.65-2.4-15-4.92-21.8-7.48-9.66-3.24-19.53-6.94-29.07-10.52-1.49-.58-3.01-1.15-4.54-1.72-1.54-.58-3.09-1.16-4.58-1.73l-3.85-1.47c-9.14-3.49-18.6-7.11-27.66-10.98-1.45-.56-2.97-1.2-4.45-1.82-1.46-.61-2.92-1.23-4.39-1.79-8.2-3.4-16.64-6.89-24.82-10.56-29.99-13.11-59.84-27.32-88.75-42.24v122.42Z"/>
      <path class="cls-1" d="M302.62,2075.62l-2.57-.76c-104.22-30.95-204.72-74.54-298.73-129.56H0v-136.13h2c.67,0,1.27.3,1.67.77,13.18,8.83,25.26,16.55,36.93,23.61,12.96,8.14,24.77,15.19,36.14,21.58,10.68,6.01,21.73,12.22,32.77,17.94,10.1,5.53,20.42,10.83,31.59,16.23,2.57,1.34,5.15,2.68,7.66,3.8,10.61,5.23,20.89,9.98,30.62,14.14l.24.12c2.61,1.55,5.42,2.67,7.58,3.48l.14.06c10.95,5.07,19.33,8.65,27.16,11.61l.16.07c5.5,2.66,10.26,4.63,14.99,6.21l.16.06c7.08,3.08,14.81,6.13,23.62,9.32,4.74,1.91,9.49,3.63,14.17,5.14l.1.03c12.58,4.78,23.53,8.58,33.49,11.62l1.42.43v120.23ZM4,1942.22c92.77,54.23,191.87,97.3,294.62,128.03v-111.91c-9.65-2.99-20.23-6.68-32.28-11.25-4.76-1.53-9.58-3.28-14.32-5.2-8.79-3.18-16.57-6.25-23.7-9.35-4.85-1.63-9.71-3.64-15.3-6.34-7.88-2.99-16.3-6.58-27.27-11.66-2.28-.85-5.23-2.03-8.05-3.69-9.76-4.18-20.06-8.93-30.63-14.14-2.55-1.14-5.18-2.51-7.73-3.83-11.2-5.41-21.58-10.75-31.7-16.28-11.06-5.73-22.14-11.96-32.85-17.99-11.43-6.41-23.29-13.5-36.28-21.66-10.94-6.61-22.26-13.82-34.51-21.98v127.26Z"/>
      <path class="cls-1" d="M302.62,1824.94l-2.7-1.01c-107.33-40.12-207.91-96.96-298.97-168.96l-.35-.33-.6-.59v-149.57l3.59,3.5c86.8,83.53,187,149.79,297.82,196.94l1.22.52v119.51ZM4,1652.28c89.81,70.92,188.92,127.06,294.62,166.89v-111.1c-109.43-46.72-208.53-112.03-294.62-194.16v138.37Z"/>
      <path class="cls-1" d="M309.86,1572.72l-1.81-.9c-121.64-60.14-227.86-148.83-307.2-256.5-.51-.4-.84-1.02-.84-1.72v-213.02h3.13l.84-.34c-.1-.49-.38-.8-.48-.9.36.35.54.71.63,1.04,35.29,85.91,86.79,163.61,153.07,230.96,66.19,67.26,143.8,120.83,230.67,159.22l2.87,1.27-57.94,50.64c-9.44,8.19-17.06,18.02-22.06,28.42l-.88,1.82ZM4,1312.88c78.58,106.67,183.67,194.62,304.03,254.48,5.22-10.22,12.85-19.83,22.14-27.9l53.21-46.5c-86.18-38.5-163.22-91.91-229.04-158.8-64.43-65.48-114.98-140.7-150.34-223.69v202.41ZM1334.29,1385.42l-81.91-71.46,1.38-1.51c84.12-91.82,142.83-203.25,169.8-322.25l2.22-9.78,1.7,9.89c.42,2.46.42,4.88.42,7.22v265.79l-.3.49c-26.88,42.92-57.83,83.36-91.99,120.19l-1.32,1.42ZM1258.09,1313.64l75.9,66.22c33.35-36.13,63.59-75.71,89.91-117.68v-256.17c-28.37,113.42-85.48,219.46-165.81,307.64Z"/>
      <path class="cls-1" d="M1427.91,1476.65l-38.8-33.86,1.38-1.51c12.21-13.34,23.6-26.72,33.85-39.77l3.57-4.55v79.69ZM1394.82,1442.47l29.09,25.38v-59.37c-8.97,11.2-18.73,22.6-29.09,33.98Z"/>
      <g>
        <path class="cls-1" d="M961.64,683.83c-2.37-3.81-4.96-7.68-7.48-11.41l-.93-1.39,3.19-3.08,1.31,2.1c.9,1.45,1.83,2.9,2.77,4.36,1.52,2.37,3.09,4.82,4.57,7.34l-3.42,2.07Z"/>
        <path class="cls-1" d="M1008.64,841.87l-3.99-.19v-5.93c0-3.83,0-7.79-.19-11.56l3.99-.31c.41,3.93.41,7.96.41,11.87,0,1.93,0,3.92-.21,6.12Z"/>
        <path class="cls-1" d="M479.25,1414.55l-1.1-.39c-235.22-83.13-398.76-292.7-416.63-533.9v-.34s0-.85,0-.85l108.93-105.12-.72,5.65c-2.25,17.59-3.35,35.96-3.35,56.16,0,58.6,10.21,116.09,30.34,170.89,19.46,52.95,47.73,102.26,84.03,146.55,35.96,43.87,78.76,81.58,127.23,112.07,49.3,31.02,103.1,53.71,159.91,67.43l3.75.91-92.38,80.95ZM65.55,880.73c18.01,238.92,179.93,446.49,412.82,529.28l84.83-74.33c-55.86-13.91-108.78-36.44-157.37-67.01-48.83-30.72-91.96-68.72-128.19-112.92-36.59-44.64-65.08-94.33-84.69-147.71-20.3-55.24-30.59-113.2-30.59-172.27,0-18.24.89-35,2.7-51.06l-99.51,96.03ZM1172.53,1244.12l-79.15-69.17,1.37-1.51c85.11-93.54,131.98-213.47,131.98-337.69,0-32.67-3.18-64.9-9.45-95.78l-1.28-6.32,117,113.12-.02.87c-1.46,74.02-16.41,146.21-44.45,214.57-27.15,66.19-65.73,126.9-114.68,180.46l-1.32,1.44ZM1099.08,1174.62l73.13,63.91c48.01-52.85,85.89-112.67,112.62-177.83,27.74-67.63,42.58-139.05,44.13-212.26l-106.53-103.01c5.51,29.23,8.31,59.58,8.31,90.32,0,124.55-46.73,244.81-131.65,338.87ZM802.07,333.63l-6.82-1.3c-31.76-6.07-64.97-9.14-98.71-9.14-19.87,0-38.43,1-56.73,3.05l-7.03.79,5.57-4.35c5.16-4.03,10.59-7.54,16.14-10.43.36-.27.76-.47,1.16-.67,2.01-1.16,4.05-2.15,6.07-2.94,1.65-.79,3.51-1.59,5.15-2.3,3.7-1.56,6.83-2.62,9.86-3.32,2.14-.9,4.29-1.46,5.74-1.77,3.61-.93,6.54-1.61,9.14-2.11,3.61-.58,7.28-1.17,10.95-1.37,3.71-.38,7.57-.58,11.38-.58,11.09,0,22.31,1.5,33.35,4.47,9,2.32,17.56,5.76,26.16,10.51,1.01.58,2.03,1.15,3.05,1.71,1.06.58,2.11,1.17,3.12,1.75l.08.05c6.76,4.36,12.41,8.68,17.29,13.22l5.08,4.73ZM696.55,319.19c31.43,0,62.41,2.65,92.21,7.88-3.35-2.69-7.05-5.34-11.18-8-.97-.56-1.99-1.12-3-1.69-1.05-.58-2.09-1.16-3.09-1.73-8.26-4.56-16.51-7.88-25.21-10.12-10.72-2.88-21.59-4.34-32.33-4.34-3.67,0-7.4.19-11.07.56-3.56.19-7.12.77-10.57,1.32-2.45.48-5.31,1.13-8.92,2.07-1.39.3-3.35.81-5.25,1.62l-.35.11c-2.84.65-5.82,1.64-9.35,3.14-1.62.7-3.47,1.49-5.05,2.25l-.15.06c-1.87.72-3.77,1.64-5.65,2.73l-.14.07c-.16.08-.41.2-.52.27l-.15.15-.26.14c-3.3,1.71-6.56,3.64-9.74,5.79,16.06-1.54,32.41-2.3,49.75-2.3Z"/>
      </g>
      <g>
        <path class="cls-1" d="M961.64,683.83c-2.37-3.81-4.96-7.68-7.48-11.41l-.93-1.39,3.19-3.08,1.31,2.1c.9,1.45,1.83,2.9,2.77,4.36,1.52,2.37,3.09,4.82,4.57,7.34l-3.42,2.07Z"/>
        <path class="cls-1" d="M1008.64,841.87l-3.99-.19v-5.93c0-3.83,0-7.79-.19-11.56l3.99-.31c.41,3.93.41,7.96.41,11.87,0,1.93,0,3.92-.21,6.12Z"/>
        <path class="cls-1" d="M691.75,1228.81h-.76c-107.44-1.31-208.24-42.76-283.86-116.72-75.71-74.06-117.41-172.19-117.41-276.33,0-53.14,10.76-104.68,32-153.2,20.5-46.85,49.85-88.92,87.22-125.05,37.37-36.12,80.87-64.47,129.32-84.28,50.14-20.5,103.4-30.9,158.29-30.9,85.2,0,166.83,25.25,236.08,73.02l2.01,1.38-70.94,68.79-1.34-.9c-2.49-1.67-5.25-3.19-7.92-4.67l-8.55-4.74c-.29-.21-.66-.41-1.06-.62-.43-.23-.91-.49-1.37-.81-5.21-2.61-10.56-5.29-16-7.73l-7.71-3.44c-5.04-2.06-10.22-4.18-15.31-6.07-6.44-2.26-13-4.38-19.44-6.27l-2.28-.55c-6.25-1.81-12.09-3.3-17.95-4.58-4.46-1.12-9.03-1.87-14.12-2.65-2.82-.54-6.05-1.14-9.23-1.52l-.14-.02c-2.83-.55-5.87-.92-9.04-1.12h-.12c-1.63-.21-3.24-.35-4.94-.5-1.55-.14-3.12-.28-4.74-.46-4.46-.41-8.52-.75-12.63-.75h-.17c-4.26-.38-8.54-.38-13.08-.38-8.18,0-14.97.24-21.4.76-2.95.19-5.92.38-8.8.75h-.12c-2.71.2-5.62.58-8.37.95-3.79.37-7.44.91-11.56,1.7l-.14.02c-3.3.4-6.06.76-9.07,1.49l-.18.04c-3.87.56-7.84,1.52-11.68,2.45-3.1.75-6.3,1.52-9.27,2.29-3.4.87-7.05,1.83-10.76,3.03-3.63,1.03-6.64,1.96-9.76,3.21l-.19.07c-3.52,1-7.24,2.43-10.09,3.57-2.96,1.02-5.85,2.16-8.23,3.22-3.91,1.55-8.08,3.35-12.83,5.54-.4.19-.78.35-1.16.51-.31.13-.62.26-.98.43-8.67,4.09-16.67,8.31-23.78,12.54-5.19,2.93-9.74,5.72-13.95,8.54-3.95,2.48-7.94,5.38-11.8,8.18-3.56,2.41-7.39,5.31-11.78,8.92l-.55.46h-.22c-7.24,5.75-14.31,12.04-21.04,18.73-3.72,3.6-7.26,7.2-10.82,11.04-2.83,2.93-5.53,5.92-8.04,8.91l-.14.15c-.25.24-.46.49-.67.73-.26.31-.53.61-.84.92-2.48,2.96-5.05,6.01-7.37,9.19l-.09.12c-2.7,3.17-5.25,6.58-7.56,10.12l-.07.1c-3.81,5.11-7.23,10.14-10.18,14.96-5.06,7.8-9.81,16.28-14.14,25.26-2.45,4.55-4.47,9.08-6.29,13.31-1.96,4.37-3.76,9-5.5,13.48-3.36,8.66-6.31,17.78-9.04,27.93-1.58,5.44-2.63,9.98-3.32,14.33l-.03.17c-1.33,5.34-2.19,9.85-2.71,14.17v.26c0,.43-.12.78-.21,1.04l-.02.07c-.8,4.67-1.38,9.24-1.76,13.97-1.18,9.89-1.77,20.11-1.77,30.44s.59,20.54,1.77,30.36c.38,4.81.96,9.38,1.76,14.05l.02.07c.09.25.21.6.21,1.04v.26c.52,4.32,1.38,8.83,2.71,14.17l.03.17c.69,4.35,1.74,8.89,3.31,14.29,2.74,10.19,5.69,19.32,9.04,27.94,1.75,4.51,3.54,9.14,5.5,13.48,1.83,4.26,3.85,8.79,6.26,13.26,4.38,9.06,9.12,17.54,14.16,25.29,4.03,6.56,8.42,12.51,12.18,17.47l.07.1c1.96,2.92,4.13,6.03,6.75,8.96l.08.09c2.52,3.19,5.11,6.46,7.83,9.46,2.55,3.04,5.25,6.02,8.06,8.94,3.6,3.87,7.13,7.47,10.83,11.04,6.74,6.71,13.82,13.01,21.06,18.75h.22l.55.46c4.46,3.67,8.18,6.49,11.72,8.88,3.91,2.83,7.89,5.72,11.81,8.19,4.21,2.83,8.89,5.7,13.96,8.55.96.56,1.92,1.12,3.05,1.66l.18.1c2.7,1.68,5.67,3.21,8.55,4.69l.1.06c4.05,2.35,8.11,4.29,11.9,6.03,5.03,2.43,9.7,4.47,14.32,6.26l.15.06c1.71.83,3.46,1.46,5.32,2.13.6.22,1.21.44,1.83.67l.22.09c2.27.91,4.61,1.86,7.1,2.78,8.8,3.08,18.39,5.96,28.48,8.54,6.26,1.55,14.55,3.49,23.13,4.74l.13.02c3.29.71,6.98,1.29,10.67,1.69h.1s3.56.59,3.56.59c1.46.17,3.05.32,4.58.46,1.58.14,3.21.29,4.83.49,2.92.38,5.9.57,8.79.75,6.46.52,13.26.76,21.43.76,9.54,0,16.74-.29,23.34-.95h.13c4.72-.18,9.89-.67,15.81-1.52,5.29-.59,10.36-1.36,15.13-2.28,2.58-.39,5.16-.77,7.66-1.33,5.12-.95,10.06-1.91,14.94-3.23,4.88-1.32,9.87-2.67,14.76-4.19l10.66-3.43c2.16-.7,4.64-1.61,7.18-2.63l.09-.04c5.47-1.89,11.05-4.2,16.45-6.44l2.32-1.12c4.03-1.86,8.16-3.76,12.06-5.64.16-.11.3-.19.41-.24l.1-.1.29-.14c.97-.47,1.89-.94,2.82-1.41.96-.49,1.91-.97,2.92-1.46,10.98-5.95,19.98-11.32,28.23-16.88,4.23-2.97,8.63-6.07,12.79-9.13.54-.44,1.21-.94,1.88-1.43.62-.46,1.24-.92,1.81-1.38,4-2.99,7.99-6.24,12.59-10.27l3.25-2.87c1.17-1.04,2.35-2.07,3.47-3.06,2.33-2.07,4.53-4.19,6.65-6.25,3.52-3.41,6.92-6.88,10.2-10.24,7.04-7.41,13.21-14.55,18.88-21.87,3.07-3.96,5.92-7.84,8.48-11.54.14-.31.35-.58.62-.79,5.37-7.63,10.44-15.75,15.06-24.12,4.81-8.19,9.16-16.93,12.96-26,4.21-9.58,7.62-18.52,10.42-27.37,1.02-2.81,1.8-5.54,2.62-8.43.3-1.06.61-2.12.93-3.2l2.35-9.66,2.36-10.85c1.56-7.16,2.75-14.61,3.52-22.15.77-7.3,1.37-14.91,1.77-22.6,0-.99.05-1.97.1-2.92.05-.96.1-1.86.1-2.76v-5.93c0-3.83,0-7.79-.19-11.56-.4-7.71-1-15.33-1.77-22.65-.78-7.54-1.97-15-3.52-22.16l-2.37-10.9c-.85-3.89-1.91-7.7-2.74-10.58-.97-3.56-1.96-7.22-3.13-10.61-2.82-8.9-6.22-17.84-10.42-27.38-3.59-8.03-7.69-16.21-12.18-24.31-2.13-3.94-4.32-7.99-6.67-11.77-2.37-3.81-4.96-7.68-7.48-11.41l-.93-1.39,70.86-68.52,1.36,1.81c50.85,67.55,77.73,147.58,77.73,231.43,0,98.88-37.98,193.35-106.95,266.02l-.94.99-1.26-.51c-22.09-8.91-45.92-13.43-70.84-13.43-46.06,0-89.14,15.51-121.3,43.68l-110.14,96.3ZM696.55,446.33c-54.37,0-107.12,10.29-156.78,30.6-47.97,19.61-91.05,47.69-128.05,83.45-37,35.76-66.05,77.41-86.34,123.78-21.01,48.01-31.66,99.01-31.66,151.6,0,103.05,41.27,200.17,116.2,273.47,74.7,73.06,174.23,114.09,280.34,115.56l108.99-95.3c7.93-6.95,16.51-13.14,25.62-18.54l-.59.28c-5.45,2.26-11.09,4.6-16.68,6.53-2.61,1.05-5.17,1.99-7.4,2.71l-10.68,3.44c-4.98,1.54-10.01,2.9-14.87,4.22-5.08,1.38-10.11,2.35-15.24,3.3-2.57.57-5.22.97-7.78,1.35-4.8.93-9.98,1.71-15.31,2.3-5.97.86-11.26,1.36-16.11,1.54-6.72.67-14.02.96-23.67.96-8.29,0-15.19-.25-21.72-.77-2.92-.19-5.96-.38-8.99-.77-1.55-.19-3.15-.33-4.7-.47-1.56-.14-3.18-.29-4.78-.48l-3.59-.58c-3.78-.41-7.57-1.01-10.96-1.73-8.72-1.27-17.12-3.24-23.46-4.81-10.21-2.62-19.91-5.53-28.86-8.66-2.57-.96-4.94-1.91-7.23-2.83l-.17-.07c-.56-.21-1.15-.42-1.74-.63-1.93-.7-3.75-1.35-5.63-2.25-4.7-1.82-9.44-3.9-14.51-6.35-3.84-1.77-8-3.75-12.2-6.19-2.84-1.46-5.86-3.02-8.67-4.76-1.22-.6-2.23-1.18-3.2-1.75-5.14-2.9-9.91-5.82-14.15-8.67-3.98-2.5-8.02-5.43-11.92-8.26-3.44-2.32-7.09-5.08-11.41-8.61h-.18l-.54-.43c-7.55-5.96-14.93-12.5-21.92-19.47-3.72-3.6-7.31-7.25-10.93-11.15-2.85-2.96-5.61-6.01-8.18-9.06-2.76-3.05-5.39-6.37-7.93-9.58-2.71-3.02-4.97-6.25-7-9.28-3.81-5.03-8.26-11.07-12.34-17.71-5.1-7.85-9.93-16.48-14.33-25.61-2.44-4.53-4.51-9.15-6.37-13.46-1.98-4.41-3.8-9.09-5.55-13.62-3.41-8.79-6.41-18.05-9.18-28.34-1.59-5.5-2.67-10.17-3.39-14.65-1.33-5.38-2.21-9.95-2.75-14.34-.1-.25-.15-.52-.15-.79,0-.06,0-.13,0-.19-.04-.15-.08-.32-.11-.51-.82-4.75-1.4-9.41-1.79-14.24-1.18-9.9-1.79-20.27-1.79-30.75s.6-20.86,1.79-30.83c.38-4.75.96-9.41,1.78-14.16.02-.19.06-.36.11-.51,0-.06,0-.12,0-.18,0-.27.05-.55.15-.8.54-4.39,1.42-8.96,2.75-14.34.72-4.49,1.8-9.16,3.4-14.69,2.76-10.25,5.75-19.51,9.15-28.28,1.77-4.56,3.58-9.24,5.58-13.67,1.84-4.28,3.91-8.91,6.39-13.51,4.36-9.04,9.19-17.67,14.32-25.57,2.98-4.86,6.46-9.97,10.32-15.16,2.38-3.64,5-7.15,7.78-10.42,2.41-3.29,5.02-6.41,7.56-9.42l.14-.15c.25-.24.46-.49.67-.73.26-.31.53-.61.84-.92,2.55-3.03,5.29-6.07,8.14-9.02,3.59-3.86,7.17-7.51,10.92-11.14,6.98-6.94,14.36-13.49,21.91-19.45l.54-.43h.18c4.26-3.48,8.01-6.31,11.46-8.64,3.87-2.81,7.91-5.74,11.92-8.26,4.24-2.85,8.88-5.7,14.12-8.65,7.18-4.27,15.29-8.55,24.06-12.69.42-.2.8-.36,1.18-.52.31-.13.62-.26.98-.43,4.85-2.24,9.09-4.06,12.99-5.6,2.41-1.08,5.41-2.25,8.39-3.28,2.83-1.13,6.63-2.59,10.29-3.64,3.24-1.29,6.34-2.24,9.99-3.28,3.75-1.21,7.47-2.19,10.93-3.07,2.99-.77,6.21-1.55,9.32-2.3,3.9-.94,7.93-1.92,11.96-2.51,3.15-.76,6.11-1.15,9.36-1.54,4.22-.81,7.97-1.37,11.79-1.74,2.72-.38,5.69-.76,8.5-.96,3-.38,6.01-.58,8.92-.77,6.55-.53,13.45-.77,21.73-.77,4.59,0,8.93,0,13.34.38,4.25,0,8.38.35,12.95.77,1.63.18,3.17.32,4.68.46,1.64.15,3.34.3,5.01.5,3.29.2,6.46.59,9.42,1.16,3.28.4,6.57,1,9.36,1.54,5.12.79,9.79,1.55,14.35,2.7,5.89,1.29,11.82,2.8,18.06,4.61l2.29.55c6.61,1.93,13.23,4.07,19.77,6.37,5.18,1.93,10.4,4.06,15.44,6.12l.14.06,7.71,3.44c5.57,2.5,11.01,5.23,16.27,7.86l.31.18c.29.21.66.41,1.06.62.44.24.93.5,1.41.83l8.21,4.53c2.31,1.28,4.66,2.58,6.89,3.99l65.13-63.16c-68.14-46.41-148.24-70.93-231.8-70.93ZM954.83,1005.26c-2.52,3.62-5.31,7.41-8.3,11.27-5.76,7.42-12.01,14.67-19.12,22.14-3.37,3.45-6.78,6.94-10.34,10.39-2.15,2.08-4.38,4.24-6.79,6.37-1.13.99-2.3,2.03-3.47,3.06l-3.26,2.87c-4.69,4.1-8.75,7.41-12.78,10.43-.55.45-1.22.94-1.88,1.43-.62.46-1.25.93-1.82,1.39-4.26,3.14-8.68,6.25-12.96,9.26-7.39,4.97-15.32,9.78-24.73,14.98,22.77-9.19,47.83-14.03,73.81-14.03s48.87,4.45,71.07,13.22c67.67-71.79,104.92-164.89,104.92-262.29,0-82.22-26.12-160.74-75.57-227.21l-65.2,63.04c2.24,3.33,4.51,6.74,6.62,10.14,2.41,3.89,4.63,7.99,6.78,11.96,4.54,8.18,8.69,16.47,12.33,24.61,4.26,9.69,7.72,18.76,10.56,27.75,1.2,3.47,2.21,7.19,3.19,10.79.84,2.92,1.92,6.81,2.79,10.81l2.37,10.9c1.59,7.3,2.8,14.91,3.59,22.59.78,7.38,1.38,15.07,1.79,22.86.2,3.88.2,7.89.2,11.77v5.93c0,1.01-.05,2.01-.1,2.97-.05.96-.1,1.86-.1,2.77v.1c-.41,7.79-1.01,15.48-1.79,22.86-.79,7.68-2,15.28-3.59,22.59l-2.37,10.9-2.38,9.8c-.34,1.16-.64,2.22-.94,3.26-.84,2.95-1.64,5.74-2.68,8.61-2.82,8.91-6.27,17.99-10.53,27.66-3.85,9.21-8.28,18.1-13.16,26.4-4.74,8.59-9.97,16.95-15.52,24.81l-.65.85Z"/>
      </g>
      <path class="cls-1" d="M702.09,988.63c-44.52,0-86.31-16.7-117.68-47.03-31.38-30.34-48.67-70.78-48.67-113.87,0-43.09,17.28-83.53,48.67-113.88,31.36-30.33,73.08-47.03,117.48-47.03,27.85,0,55.32,6.78,79.55,19.63l97.04-94.02,67.64-65.21,27.27-26.57h.2l228.03-220.67,30.85-119.89.41-.39L1397.85,0v154.93h160.37l-165.72,160.24-.53.13-123.47,29.51-229.2,221.8h-.2l-190.73,184.42c16.6,29.67,23.19,64.44,18.59,98.1-4.83,35.32-21.15,67.3-47.19,92.47-31.37,30.33-73.16,47.03-117.68,47.03ZM701.89,670.82c-43.35,0-84.08,16.3-114.7,45.9-30.6,29.58-47.45,69-47.45,111,0,41.99,16.85,81.41,47.45,111,30.61,29.6,71.42,45.9,114.89,45.9s84.28-16.3,114.9-45.9c25.39-24.55,41.3-55.72,46.01-90.14,4.56-33.31-2.14-67.73-18.86-96.92l-.77-1.35,194.12-187.7h.2l228.82-221.44.53-.13,123.47-29.51,157.82-152.6h-154.47V9.44l-157.78,152.74-30.85,119.89-.41.39-229.59,222.18h-.19l-26.12,25.44-67.64,65.21-99.14,96.05-1.29-.7c-23.97-12.98-51.27-19.84-78.95-19.84Z"/>
      <path class="cls-1" d="M738.77,2578.94h-308.7v-974.34c0-1.42.48-2.93,1.46-4.62.6-1.03,1.6-2.57,3.35-3.99,105.99-85.89,432.63-336.02,435.92-338.53l.54-.41h.09l14.54-12.79c14.37-12.56,34.8-20.33,56.04-21.33,1.69-.17,3.31-.17,5.01-.17,23.1,0,45.35,7.83,61.05,21.49l40.22,35.12,65.84,57.43,71.28,62.35,68.22,59.4,59.06,51.63v335.58l-26.01-22.52c-.29-.22-.57-.46-.85-.7-.52-.43-1-.84-1.42-1.08l-.29-.2c-30.78-26.04-71.18-40.38-113.76-40.38s-85.03,15.03-116.29,42.33l-145.94,127.65-120.32,105.01-9.5,8.36c-25.5,22.4-39.54,52.69-39.54,85.3v429.43ZM434.07,2574.94h300.7v-425.43c0-33.78,14.52-65.14,40.9-88.3l9.5-8.37,120.32-105.02,145.94-127.65c31.99-27.93,74.22-43.32,118.92-43.32s84.74,14.64,116.22,41.22c.65.4,1.25.9,1.82,1.38.26.22.52.44.78.64l.08.07,19.43,16.82v-325.01l-57.69-50.43-68.22-59.4-71.28-62.35-65.84-57.43-40.22-35.11c-14.98-13.03-36.27-20.51-58.42-20.51-1.68,0-3.13,0-4.73.16-20.46.97-39.99,8.38-53.69,20.35l-15.67,13.79h-.25c-15.15,11.6-331.37,253.84-435.29,338.05-1.24,1-1.97,2.13-2.41,2.9-.61,1.05-.92,1.92-.92,2.61v970.34ZM928.46,1701.57c-22.85,0-45.15-5.97-64.48-17.28-32.9-19.08-54.72-51.05-59.87-87.7h0c-.78-5.75-1.16-11.13-1.16-16.45,0-21.52,5.83-42.57,16.87-60.88,22.45-37.34,64.08-60.54,108.64-60.54,20.94,0,41.78,5.15,60.26,14.88,24.45,12.95,43.96,33.61,54.93,58.18,6.85,15.26,10.32,31.54,10.32,48.37,0,19.72-4.98,39.32-14.39,56.66-21.87,39.95-64.44,64.77-111.12,64.77ZM808.08,1596.04c4.98,35.42,26.09,66.33,57.92,84.8,18.73,10.95,40.32,16.73,62.47,16.73,45.21,0,86.45-24.02,107.61-62.68,9.1-16.75,13.91-35.68,13.91-54.74,0-16.26-3.36-31.98-9.97-46.73-10.61-23.76-29.49-43.75-53.15-56.28-18.16-9.57-37.81-14.42-58.39-14.42-43.16,0-83.48,22.46-105.22,58.61-10.66,17.69-16.3,38.03-16.3,58.82,0,5.13.37,10.33,1.12,15.89h0Z"/>
    </g>
  </g>
</svg>