<?xml version="1.0" encoding="UTF-8"?>
<svg id="Camada_2" data-name="Camada 2" xmlns="http://www.w3.org/2000/svg" viewBox="0 0 1562.67 2583.25">
  <defs>
    <style>
      .cls-1 {
        fill: #fdf0a8;
      }

      .cls-2 {
        fill: #fad036;
      }

      .cls-3 {
        fill: #f0d026;
      }

      .cls-4 {
        fill: #fbf409;
      }

      .cls-5 {
        fill: #fce855;
      }

      .cls-6 {
        fill: #3549fc;
      }

      .cls-7 {
        fill: #fdffa1;
      }
    </style>
  </defs>
  <g id="Camada_1-2" data-name="Camada 1">
    <g>
      <path class="cls-4" d="M1233.64,2583.25h-393.01v-422.61c0-13.47,5.99-26.17,16.86-35.77l122.36-106.92,103.41-90.39c11.5-10.05,23.5-17.93,35.65-23.41,31.48-14.19,58.2-14.3,86.62-.38,10.03,4.91,19.92,11.7,30.24,20.74l40.22,35.21,68,59.34,1.14,1.11v455.31c0,59.43-50.02,107.77-111.5,107.77ZM847.2,2576.68h386.44c57.86,0,104.93-45.4,104.93-101.21v-452.44l-66.9-58.37-40.22-35.22c-9.88-8.65-19.31-15.12-28.81-19.78-26.86-13.16-51.1-13.02-81.03.47-11.56,5.21-23.01,12.73-34.03,22.36l-103.41,90.39-122.35,106.91c-9.43,8.33-14.63,19.28-14.63,30.84v416.04Z"/>
      <path class="cls-4" d="M796.41,337.1s0,0,0,0c-.23-.22-.47-.4-.75-.59-31.49-5.97-64.4-9-97.82-9-19.81,0-38.32.99-56.59,3.04l-11.54,1.29,9.15-7.14c5.19-4.05,10.66-7.59,16.25-10.51.42-.3.85-.52,1.24-.71,2.04-1.18,4.11-2.18,6.16-2.98,1.65-.79,3.51-1.59,5.16-2.3,3.73-1.58,6.9-2.65,9.97-3.37,2.16-.9,4.32-1.46,5.8-1.78,3.69-.95,6.62-1.63,9.23-2.13l.1-.02c3.55-.57,7.23-1.17,10.95-1.37,15.03-1.52,30.26-.09,45.21,3.93,9.09,2.34,17.75,5.82,26.45,10.62,1.03.6,2.05,1.16,3.07,1.72,1.06.58,2.11,1.17,3.12,1.75,7.12,4.25,13.64,9.23,19.42,14.82h0l-4.57,4.72ZM697.83,320.93c29.85,0,59.3,2.39,87.73,7.1-2.36-1.7-4.81-3.31-7.34-4.82-.93-.54-1.95-1.1-2.96-1.66-1.06-.59-2.12-1.17-3.13-1.76-8.14-4.5-16.3-7.77-24.88-9.99-14.25-3.83-28.69-5.19-42.95-3.74h-.16c-3.38.19-6.89.76-10.28,1.31-2.48.48-5.29,1.13-8.85,2.05l-.13.03c-1.26.27-3.13.75-4.93,1.53l-.28.12-.29.07c-2.77.63-5.67,1.6-9.14,3.07-1.69.73-3.45,1.48-4.99,2.23l-.25.11c-1.81.7-3.65,1.59-5.47,2.64l-.22.12c-.11.05-.21.1-.31.15l-.16.16-.43.22c-1.74.9-3.47,1.87-5.18,2.89,14.42-1.23,29.12-1.83,44.6-1.83Z"/>
      <path class="cls-4" d="M305.19,2572.99l-3.97-.85c-102.01-21.77-202.39-52.18-298.37-90.38H0v-128.18h4.16l.62.27c95.41,41.15,195.62,73.9,297.86,97.34l2.55.58v121.22ZM6.57,2476.18c94,37.33,192.23,67.16,292.06,88.69v-107.86c-100.17-23.12-198.4-55.15-292.06-95.23v114.41Z"/>
      <path class="cls-6" d="M305.19,2328.94l-4.08-1.01c-103.07-25.58-203.45-61.25-298.37-106.03H0v-133.73h3.28c.88,0,1.68.33,2.29.86,29.47,15.27,59.95,29.8,90.59,43.2,8.14,3.65,16.54,7.13,24.66,10.49,1.45.56,2.98,1.2,4.46,1.82,1.46.61,2.91,1.22,4.37,1.78l.11.04c8.96,3.83,18.37,7.43,27.46,10.9l3.86,1.48c1.49.58,3.01,1.15,4.54,1.72,1.54.58,3.08,1.15,4.57,1.73,9.52,3.57,19.32,7.24,28.93,10.47l.11.04c6.69,2.52,13.95,5.01,21.58,7.4,2.74.95,5.49,1.9,8.34,2.63l.26.08c10.29,3.58,20.75,6.79,29.73,9.52,5.42,1.68,11,3.42,16.54,4.95,8.24,2.45,16.4,4.66,23.31,6.49l.16.05c.57.18,1.18.36,1.79.55.67.2,1.35.4,1.97.6l2.28.73v123.23ZM6.57,2216.44c92.98,43.78,191.2,78.79,292.06,104.1v-110c-.48-.14-.95-.29-1.4-.43-6.93-1.84-15.12-4.06-23.35-6.51-5.57-1.54-11.21-3.29-16.65-4.98-8.99-2.73-19.47-5.95-29.84-9.55-3.06-.79-5.89-1.77-8.63-2.72-7.63-2.39-14.99-4.91-21.78-7.47-9.7-3.26-19.54-6.94-29.05-10.51l-.11-.04c-1.47-.57-2.99-1.14-4.5-1.7-1.55-.58-3.1-1.16-4.59-1.74l-3.85-1.47c-9.13-3.49-18.58-7.1-27.65-10.98-1.51-.58-3.02-1.22-4.48-1.83-1.46-.61-2.91-1.22-4.37-1.78-8.23-3.41-16.67-6.91-24.88-10.58-29.36-12.84-58.59-26.73-86.94-41.3v119.5Z"/>
      <path class="cls-5" d="M305.19,2080.37l-4.22-1.25c-104.2-30.94-204.71-74.52-298.71-129.51H0v-138.7h3.28c.99,0,1.88.41,2.52,1.08,13.11,8.78,25.14,16.47,36.76,23.49,12.95,8.14,24.74,15.18,36.1,21.55,10.67,6,21.71,12.21,32.73,17.92,10.12,5.54,20.42,10.83,31.56,16.21l.13.06c2.47,1.29,5.03,2.62,7.5,3.72l.11.05c10.52,5.19,20.78,9.92,30.49,14.08l.39.2c2.52,1.5,5.27,2.59,7.38,3.38l.23.1c10.93,5.06,19.28,8.63,27.08,11.58l.27.11c5.44,2.63,10.15,4.58,14.84,6.15l.27.1c7.06,3.07,14.76,6.11,23.54,9.29l.11.04c4.64,1.87,9.36,3.58,14.02,5.08l.16.06c12.55,4.77,23.48,8.56,33.41,11.59l2.33.71v122.9ZM6.57,1944.52c92,53.71,190.23,96.44,292.06,127.04v-109.24c-9.42-2.94-19.73-6.55-31.42-10.99-4.76-1.54-9.58-3.29-14.32-5.2-8.84-3.21-16.61-6.27-23.74-9.37-4.87-1.64-9.76-3.66-15.35-6.36-7.88-2.99-16.3-6.58-27.26-11.65-2.3-.86-5.27-2.05-8.13-3.73-9.75-4.17-20.03-8.92-30.56-14.11-2.63-1.18-5.25-2.54-7.79-3.86-11.2-5.41-21.59-10.75-31.74-16.31-11.06-5.73-22.14-11.96-32.86-17.99-11.45-6.43-23.34-13.52-36.33-21.69-10.34-6.25-21.04-13.05-32.54-20.68v124.13Z"/>
      <path class="cls-1" d="M305.19,1829.82l-4.43-1.66c-107.45-40.16-208.16-97.07-299.32-169.15l-.45-.42-.99-.97v-153.16l5.76,5.62c86.68,83.42,186.75,149.6,297.43,196.68l2,.85v122.21ZM6.57,1654.69c89.09,70.27,187.32,125.99,292.06,165.66v-108.39c-108.35-46.37-206.56-110.94-292.06-192.02v134.75Z"/>
      <path class="cls-3" d="M311.74,1577.48l-2.98-1.47c-121.78-60.21-228.12-148.99-307.58-256.76-.72-.64-1.18-1.57-1.18-2.61v-213.02h4.41l2.04-.84c-.14-.5-.41-.97-.78-1.33.52.51.81,1.06.96,1.56,35.23,85.72,86.62,163.25,152.76,230.47,66.08,67.15,143.55,120.62,230.27,158.94l4.72,2.08-59.46,51.96c-9.31,8.08-16.82,17.77-21.75,28.01l-1.44,3ZM6.57,1315.49c78.19,106.01,182.62,193.5,302.19,253.19,5.28-9.94,12.78-19.28,21.85-27.15l51.7-45.18c-85.58-38.5-162.13-91.72-227.6-158.25-63.07-64.09-112.85-137.48-148.14-218.37v195.76ZM1335.67,1390.24l-83.84-73.15,2.27-2.48c83.97-91.65,142.58-202.88,169.49-321.67l3.64-16.07,2.8,16.23c.44,2.57.44,5.05.44,7.44v266.16l-.5.8c-26.92,42.99-57.92,83.49-92.14,120.38l-2.17,2.34ZM1261.21,1316.56l73.97,64.53c32.88-35.74,62.71-74.83,88.73-116.27v-245.68c-29.09,109.5-85,211.82-162.7,297.41Z"/>
      <path class="cls-4" d="M1430.48,1482.51l-41.92-36.58,2.27-2.48c12.19-13.32,23.55-26.67,33.78-39.69l5.87-7.47v86.23ZM1397.94,1445.39l25.97,22.67v-52.9c-8.09,9.98-16.79,20.11-25.97,30.23Z"/>
      <g>
        <path class="cls-2" d="M961.83,687.54c-2.35-3.79-4.94-7.64-7.45-11.37l-1.54-2.28,5.1-4.93,2.15,3.46c.9,1.45,1.83,2.9,2.76,4.36,1.52,2.38,3.1,4.84,4.59,7.37l-5.62,3.4Z"/>
        <path class="cls-2" d="M1011.2,845.02l-6.55-.31v-5.93c0-3.81,0-7.75-.19-11.49l6.55-.51c.41,3.99.41,8.06.41,12,0,1.96,0,3.98-.21,6.23Z"/>
        <path class="cls-2" d="M480.81,1419.05l-1.81-.64c-235.7-83.3-399.58-293.31-417.49-535.02v-.43s0-1.39,0-1.39l111.95-108.04-1.19,9.27c-2.25,17.54-3.34,35.85-3.34,55.99,0,58.44,10.18,115.79,30.26,170.45,19.41,52.82,47.61,102,83.82,146.18,35.87,43.76,78.57,81.38,126.92,111.8,49.18,30.95,102.86,53.58,159.53,67.27l6.16,1.49-94.81,83.08ZM68.17,884.26c18.18,237.93,179.37,444.6,411.21,527.31l82.42-72.22c-55.11-13.98-107.35-36.37-155.36-66.58-48.95-30.8-92.18-68.88-128.5-113.19-36.68-44.75-65.25-94.57-84.91-148.08-20.35-55.39-30.67-113.5-30.67-172.72,0-16.95.76-32.64,2.33-47.68l-96.53,93.15ZM1173.91,1248.95l-81.08-70.86,2.25-2.48c84.89-93.3,131.65-212.92,131.65-336.82,0-32.58-3.17-64.72-9.43-95.53l-2.11-10.37,120.37,116.39-.03,1.43c-1.46,74.18-16.45,146.53-44.54,215.04-27.2,66.33-65.87,127.17-114.92,180.83l-2.17,2.37ZM1102.19,1177.54l71.2,62.23c47.51-52.51,85.02-111.88,111.53-176.52,27.61-67.32,42.42-138.38,44.02-211.24l-103.25-99.83c5.05,28.09,7.6,57.18,7.6,86.61,0,124.44-46.53,244.61-131.11,338.76ZM807.5,338.76l-11.2-2.14c-31.68-6.05-64.81-9.12-98.46-9.12-19.81,0-38.32.99-56.59,3.04l-11.54,1.29,9.15-7.14c5.19-4.05,10.66-7.59,16.25-10.51.42-.3.86-.52,1.24-.71,2.04-1.18,4.11-2.18,6.16-2.98,1.65-.79,3.51-1.59,5.16-2.3,3.73-1.58,6.9-2.65,9.97-3.37,2.16-.9,4.32-1.46,5.8-1.78,3.69-.95,6.62-1.63,9.23-2.13l.1-.02c3.55-.57,7.23-1.17,10.95-1.37,15.03-1.52,30.26-.09,45.21,3.93,9.09,2.34,17.75,5.82,26.45,10.62,1.03.6,2.05,1.16,3.07,1.72,1.06.58,2.11,1.17,3.12,1.75l.13.08c6.82,4.4,12.54,8.77,17.47,13.36l8.34,7.77ZM697.83,320.93c29.71,0,59.01,2.36,87.31,7.03-2.17-1.59-4.48-3.18-6.95-4.77-.95-.55-1.94-1.1-2.93-1.64-1.06-.59-2.12-1.17-3.13-1.76-8.14-4.5-16.3-7.77-24.88-9.99-10.62-2.85-21.38-4.3-32.01-4.3-3.63,0-7.31.19-10.94.56h-.16c-3.38.19-6.89.76-10.29,1.31-2.48.48-5.29,1.13-8.85,2.05l-.13.03c-1.26.27-3.13.75-4.93,1.53l-.28.12-.29.07c-2.77.63-5.67,1.6-9.14,3.07-1.69.73-3.45,1.48-4.99,2.23l-.25.11c-1.81.7-3.65,1.59-5.47,2.64l-.22.12c-.11.05-.21.1-.31.15l-.16.16-.43.22c-1.74.9-3.47,1.87-5.18,2.89,14.42-1.23,29.12-1.83,44.6-1.83Z"/>
      </g>
      <g>
        <path class="cls-7" d="M961.83,687.54c-2.35-3.79-4.94-7.64-7.45-11.37l-1.54-2.28,5.1-4.93,2.15,3.46c.9,1.45,1.83,2.9,2.76,4.36,1.52,2.38,3.1,4.84,4.59,7.37l-5.62,3.4Z"/>
        <path class="cls-7" d="M1011.2,845.02l-6.55-.31v-5.93c0-3.81,0-7.75-.19-11.49l6.55-.51c.41,3.99.41,8.06.41,12,0,1.96,0,3.98-.21,6.23Z"/>
        <path class="cls-7" d="M693.51,1233.13h-1.26c-107.77-1.32-208.89-42.9-284.74-117.09-75.96-74.3-117.79-172.76-117.79-277.25,0-53.32,10.8-105.03,32.1-153.71,20.57-47,50.01-89.21,87.51-125.46,37.48-36.23,81.13-64.67,129.72-84.54,50.3-20.56,103.72-30.99,158.78-30.99,85.46,0,167.35,25.33,236.81,73.24l3.3,2.27-72.81,70.61-2.21-1.48c-2.44-1.64-5.06-3.08-7.83-4.61l-8.69-4.83c-.22-.16-.55-.34-.91-.53-.44-.23-.92-.5-1.42-.83-5.17-2.59-10.49-5.25-15.88-7.67l-7.66-3.42c-5.07-2.07-10.23-4.18-15.28-6.06-6.38-2.24-12.88-4.34-19.28-6.21l-2.44-.59c-6.12-1.78-11.94-3.26-17.78-4.54l-.1-.02c-4.35-1.1-8.89-1.83-13.94-2.62l-.12-.02c-2.72-.53-5.93-1.12-9.07-1.49l-.23-.04c-2.78-.54-5.76-.91-8.87-1.09l-.2-.02c-1.61-.19-3.21-.34-4.9-.49-1.56-.14-3.14-.28-4.77-.47-4.4-.4-8.44-.74-12.48-.74h-.29c-4.21-.38-8.46-.38-12.96-.38-8.14,0-14.91.24-21.29.75h-.15c-2.83.19-5.77.38-8.6.75l-.19.02c-2.67.18-5.56.56-8.28.93l-.13.02c-3.67.35-7.28.89-11.36,1.68l-.23.04c-3.26.39-5.98.75-8.92,1.46l-.3.06c-3.82.55-7.76,1.51-11.56,2.43-3.09.75-6.28,1.52-9.25,2.28-3.21.82-6.98,1.81-10.69,3l-.11.03c-3.63,1.03-6.49,1.92-9.57,3.14l-.32.11c-3.46.99-7.15,2.4-9.97,3.53l-.14.05c-2.83.98-5.69,2.1-8.04,3.15l-.13.06c-3.81,1.5-7.96,3.29-12.69,5.47-.4.2-.81.36-1.21.53-.29.12-.58.24-.91.4-8.65,4.08-16.6,8.28-23.68,12.49-5.19,2.93-9.71,5.7-13.89,8.51l-.09.06c-3.87,2.43-7.84,5.31-11.68,8.1l-.09.06c-3.5,2.37-7.19,5.16-11.62,8.8l-.91.75h-.23c-7.08,5.64-14,11.81-20.58,18.36-3.71,3.59-7.23,7.18-10.79,11-2.83,2.93-5.51,5.9-8,8.86l-.23.25c-.22.21-.4.43-.59.64-.27.32-.55.63-.86.95-2.46,2.93-5,5.96-7.28,9.08l-.15.19c-2.67,3.13-5.18,6.49-7.46,9.99l-.12.17c-3.78,5.08-7.19,10.08-10.12,14.86-5.05,7.78-9.77,16.22-14.08,25.14l-.07.13c-2.39,4.44-4.4,8.93-6.2,13.12-1.96,4.36-3.75,8.97-5.48,13.43-3.34,8.62-6.28,17.71-9,27.8-1.57,5.41-2.61,9.9-3.29,14.2l-.06.27c-1.3,5.26-2.16,9.69-2.67,13.94v.18c0,.41-.07.76-.15,1.04l-.05.17c-.02.07-.04.14-.06.19-.79,4.61-1.36,9.12-1.73,13.78v.13c-1.18,9.77-1.77,19.93-1.77,30.21s.59,20.44,1.76,30.21v.13c.38,4.66.95,9.17,1.74,13.78.02.06.04.13.06.19l.03.03.02.14c.08.29.14.63.14,1.03v.19c.52,4.25,1.37,8.68,2.67,13.94l.06.27c.68,4.29,1.72,8.78,3.27,14.13,2.73,10.16,5.67,19.24,9,27.84,1.75,4.5,3.54,9.11,5.47,13.42,1.83,4.25,3.83,8.74,6.22,13.17l.07.13c4.31,8.93,9.03,17.37,14.04,25.07,4.02,6.54,8.38,12.46,12.12,17.4l.11.16c1.93,2.89,4.07,5.95,6.64,8.81l.13.16c2.49,3.15,5.06,6.4,7.77,9.4l.08.09c2.49,2.97,5.17,5.93,7.96,8.82,3.6,3.87,7.12,7.46,10.8,11.01,6.61,6.58,13.53,12.75,20.61,18.39h.23l.91.75c4.43,3.64,8.12,6.44,11.62,8.8l.09.06c3.84,2.78,7.8,5.66,11.68,8.1l.08.05c4.13,2.78,8.78,5.63,13.82,8.47.99.58,1.9,1.1,2.98,1.63l.3.17c2.67,1.66,5.62,3.18,8.47,4.65l.14.08c4.02,2.33,8.04,4.25,11.79,5.98,5.03,2.43,9.67,4.46,14.25,6.23l.25.11c1.65.8,3.37,1.42,5.19,2.08.6.22,1.22.44,1.84.67l.17.07c2.29.92,4.65,1.87,7.15,2.8,8.74,3.06,18.3,5.92,28.35,8.5,6.21,1.54,14.46,3.47,22.99,4.71l.22.04c3.25.7,6.89,1.27,10.54,1.67l.17.02,3.5.56c1.51.18,3.06.32,4.57.46,1.58.14,3.22.29,4.86.49,2.89.37,5.85.56,8.71.75,6.44.52,13.21.76,21.35.76,9.5,0,16.65-.29,23.21-.94h.21c4.68-.18,9.81-.67,15.67-1.51h.1c5.19-.59,10.22-1.35,14.97-2.27l.14-.02c2.59-.39,5.03-.75,7.48-1.3l.11-.02c5.03-.94,9.94-1.89,14.77-3.19,4.88-1.32,9.86-2.67,14.72-4.17l10.64-3.43c2.12-.68,4.58-1.58,7.1-2.6l.15-.06c5.42-1.87,10.97-4.17,16.34-6.4l2.42-1.17c3.95-1.82,8.02-3.69,11.85-5.54.11-.07.21-.13.3-.18l.12-.11.47-.23c.96-.46,1.87-.93,2.79-1.4.94-.48,1.89-.96,2.88-1.44,10.99-5.95,19.94-11.3,28.14-16.82,4.18-2.94,8.56-6.02,12.69-9.06.61-.49,1.27-.98,1.92-1.47.61-.45,1.21-.9,1.78-1.35l.09-.07c3.93-2.93,7.89-6.17,12.46-10.17l6.72-5.92c2.29-2.03,4.45-4.12,6.55-6.14,3.56-3.44,6.93-6.89,10.19-10.22l.1-.1c6.95-7.31,13.09-14.42,18.74-21.71,3.04-3.92,5.86-7.75,8.38-11.41.19-.38.45-.72.77-1.01,5.32-7.57,10.33-15.6,14.89-23.88,4.8-8.17,9.13-16.86,12.9-25.88,4.2-9.55,7.59-18.45,10.38-27.26l.04-.12c.98-2.7,1.75-5.41,2.57-8.28.29-1.03.59-2.07.9-3.12l2.35-9.67,2.36-10.82c1.55-7.11,2.73-14.52,3.5-22.01.77-7.26,1.36-14.83,1.76-22.51,0-1.01.05-2,.1-2.95.05-.94.09-1.83.09-2.7v-5.93c0-3.81,0-7.75-.19-11.49-.4-7.71-.99-15.3-1.77-22.58-.78-7.5-1.95-14.91-3.5-22.02l-2.37-10.9c-.84-3.84-1.89-7.63-2.72-10.5-.97-3.57-1.96-7.21-3.11-10.55-2.82-8.89-6.21-17.79-10.38-27.28-3.57-7.99-7.65-16.14-12.13-24.21-2.13-3.94-4.32-7.98-6.64-11.72-2.35-3.78-4.94-7.64-7.45-11.37l-1.53-2.28,72.68-70.27,2.24,2.97c51.02,67.78,77.99,148.07,77.99,232.2,0,99.21-38.11,194-107.3,266.91l-1.54,1.62-2.07-.84c-21.93-8.85-45.6-13.34-70.36-13.34-45.75,0-88.53,15.4-120.45,43.36l-110.51,96.63ZM697.83,450.65c-54.2,0-106.79,10.26-156.29,30.5-47.82,19.55-90.76,47.54-127.64,83.19-36.88,35.65-65.83,77.15-86.06,123.37-20.94,47.85-31.55,98.68-31.55,151.08,0,102.7,41.13,199.5,115.82,272.55,74.34,72.72,173.38,113.59,278.97,115.19l108.61-94.97c4.57-4,9.36-7.76,14.34-11.26-1.57.59-3.13,1.17-4.7,1.71-2.64,1.06-5.21,2-7.46,2.73l-10.68,3.44c-5.01,1.55-10.04,2.91-14.91,4.23-5.12,1.39-10.16,2.36-15.31,3.32-2.64.59-5.27.98-7.81,1.36-4.88.94-10.05,1.72-15.37,2.32-6.03.86-11.34,1.37-16.21,1.55-6.75.67-14.08.96-23.75.96-8.32,0-15.25-.25-21.82-.78-2.92-.19-5.99-.39-9.05-.78-1.51-.18-3.1-.33-4.64-.47-1.58-.14-3.2-.29-4.83-.49l-.13-.02-3.48-.56c-3.8-.41-7.6-1.01-11.02-1.74-8.78-1.28-17.19-3.25-23.55-4.83-10.26-2.63-20-5.55-28.97-8.69-2.64-.98-5.05-1.95-7.38-2.89-.6-.23-1.2-.44-1.78-.65-1.95-.7-3.78-1.37-5.7-2.28-4.71-1.82-9.47-3.91-14.56-6.37-3.81-1.76-7.98-3.74-12.21-6.19-2.9-1.49-5.89-3.04-8.72-4.78-1.24-.61-2.29-1.22-3.22-1.76-5.14-2.89-9.92-5.82-14.18-8.69-4.04-2.54-8.06-5.46-11.96-8.29-3.41-2.31-6.98-4.99-11.15-8.39h-.17l-.89-.71c-7.59-5.98-15-12.57-22.04-19.56-3.73-3.6-7.33-7.27-10.96-11.18-2.83-2.93-5.6-6-8.18-9.07-2.82-3.12-5.42-6.41-7.95-9.6-2.78-3.12-5.05-6.35-7.08-9.39-3.83-5.05-8.28-11.1-12.38-17.78-5.1-7.85-9.94-16.5-14.37-25.66-2.5-4.63-4.56-9.26-6.42-13.58-1.99-4.41-3.8-9.1-5.56-13.64-3.44-8.86-6.45-18.17-9.23-28.49-1.59-5.5-2.68-10.21-3.41-14.73-1.32-5.35-2.2-9.91-2.75-14.3-.11-.35-.17-.71-.17-1.08v-.05c-.04-.14-.07-.3-.08-.47-.82-4.77-1.4-9.43-1.79-14.25-1.19-10-1.79-20.41-1.79-30.92s.6-20.92,1.79-30.92c.39-4.82.97-9.48,1.79-14.25.02-.17.05-.33.08-.47v-.04c0-.37.06-.74.17-1.09.55-4.39,1.42-8.96,2.75-14.3.73-4.52,1.82-9.23,3.43-14.79,2.76-10.27,5.77-19.57,9.19-28.38,1.77-4.57,3.6-9.27,5.61-13.74,1.83-4.26,3.9-8.89,6.4-13.53,4.42-9.15,9.27-17.8,14.41-25.73,2.97-4.85,6.47-9.99,10.34-15.2,2.4-3.67,5.03-7.19,7.83-10.48,2.42-3.31,5.04-6.43,7.58-9.45l.23-.25c.22-.21.4-.43.59-.64.27-.32.55-.63.86-.95,2.56-3.04,5.31-6.08,8.16-9.04,3.6-3.87,7.2-7.53,10.96-11.17,7-6.96,14.42-13.55,22-19.53l.89-.71h.17c4.17-3.4,7.74-6.08,11.15-8.39,3.9-2.83,7.93-5.75,11.96-8.29,4.31-2.9,8.96-5.75,14.22-8.71,7.19-4.28,15.33-8.58,24.14-12.73.43-.21.83-.38,1.23-.54.29-.12.58-.24.91-.4,4.87-2.24,9.11-4.07,13.01-5.62,2.49-1.11,5.48-2.28,8.43-3.3,2.91-1.16,6.7-2.61,10.37-3.67,3.25-1.29,6.36-2.25,10-3.28,3.86-1.24,7.73-2.26,11.02-3.1,3.01-.78,6.23-1.55,9.33-2.3,3.91-.95,7.94-1.92,12.01-2.52,3.18-.76,6.15-1.15,9.41-1.55,4.22-.81,7.97-1.37,11.8-1.74,2.79-.38,5.75-.76,8.56-.96,3.01-.38,6.01-.58,8.92-.77,6.61-.53,13.54-.78,21.86-.78,4.6,0,8.95,0,13.4.38,4.27,0,8.42.36,13.01.78,1.64.19,3.17.32,4.68.46,1.64.15,3.33.3,5.01.5,3.32.2,6.51.6,9.51,1.17,3.28.4,6.56,1,9.35,1.54,5.17.8,9.84,1.56,14.43,2.72,5.95,1.3,11.86,2.81,18.09,4.61l2.45.6c6.54,1.92,13.18,4.06,19.75,6.36,5.22,1.94,10.45,4.08,15.5,6.14l.17.07,7.71,3.44c5.6,2.51,11.05,5.25,16.32,7.89l.48.29c.22.16.55.34.91.53.45.24.96.52,1.48.87l8.15,4.5c2.04,1.13,4.1,2.27,6.1,3.49l63.28-61.36c-67.64-45.69-147-69.82-229.77-69.82ZM924.47,1086.57c24.82,0,48.6,4.37,70.73,12.99,67.06-71.47,103.97-163.99,103.97-260.77,0-81.46-25.73-159.27-74.44-225.27l-63.37,61.27c2.05,3.06,4.12,6.18,6.05,9.29,2.42,3.91,4.66,8.03,6.82,12.02,4.55,8.2,8.72,16.52,12.37,24.7,4.28,9.73,7.75,18.84,10.61,27.88,1.2,3.46,2.21,7.21,3.2,10.83.84,2.93,1.93,6.85,2.81,10.88l2.37,10.9c1.6,7.35,2.82,15,3.62,22.73.78,7.38,1.39,15.1,1.79,22.92.2,3.91.2,7.94.2,11.83v5.93c0,1.04-.05,2.06-.1,3.04-.05.94-.09,1.83-.09,2.7v.17c-.41,7.83-1.01,15.54-1.8,22.93-.8,7.73-2.02,15.37-3.62,22.72l-2.37,10.9-2.43,9.98c-.31,1.06-.61,2.1-.91,3.14-.85,2.96-1.65,5.76-2.69,8.65-2.86,9.01-6.32,18.11-10.59,27.8-3.86,9.24-8.32,18.19-13.23,26.54-4.74,8.59-9.99,16.99-15.58,24.9l-1.03,1.39c-2.43,3.47-5.1,7.09-7.96,10.78-5.79,7.46-12.07,14.74-19.2,22.24l-.13.13c-3.29,3.37-6.69,6.85-10.25,10.29-2.21,2.13-4.42,4.28-6.83,6.41l-6.73,5.94c-4.69,4.1-8.76,7.43-12.81,10.46-.61.49-1.27.98-1.93,1.47-.61.45-1.22.91-1.78,1.36l-.11.09c-4.2,3.09-8.63,6.21-12.91,9.22-3.92,2.64-7.99,5.23-12.34,7.85,19.15-6.07,39.62-9.23,60.68-9.23Z"/>
      </g>
      <path class="cls-4" d="M703.37,992.94c-44.86,0-86.96-16.83-118.57-47.39-31.64-30.59-49.06-71.36-49.06-114.8,0-43.44,17.42-84.21,49.06-114.8,31.61-30.56,73.64-47.39,118.37-47.39,27.74,0,55.11,6.68,79.33,19.34l96.37-93.37,67.64-65.21,27.64-26.93h.2l227.39-220.05,30.85-119.89.67-.64L1400.42,0v156.68h162.26l-168.26,162.69-124,29.64-229.32,221.92h-.2l-189.65,183.37c16.38,29.72,22.86,64.43,18.26,98.04-4.87,35.61-21.32,67.84-47.57,93.22-31.6,30.56-73.71,47.39-118.57,47.39ZM703.17,675.14c-43.01,0-83.43,16.17-113.8,45.54-30.34,29.34-47.06,68.43-47.06,110.08,0,41.64,16.71,80.74,47.06,110.07,30.37,29.37,70.86,45.54,114,45.54s83.63-16.17,114-45.54c25.18-24.34,40.96-55.25,45.63-89.39,4.52-33.03-2.12-67.16-18.7-96.11l-1.27-2.22,195.22-188.75h.2l228.7-221.32,124-29.64,155.29-150.15h-152.58V15.5l-155.34,150.38-30.85,119.89-230.63,223.19h-.19l-25.74,25.07-67.65,65.22-99.82,96.71-2.12-1.15c-23.78-12.88-50.87-19.68-78.33-19.68Z"/>
      <path class="cls-4" d="M741.33,2583.25h-311.26v-975.63c0-1.65.53-3.37,1.63-5.26,1.04-1.78,2.2-3.16,3.66-4.35,106-85.9,432.66-336.04,435.94-338.55l.93-.68,14.17-12.47c14.57-12.73,35.25-20.62,56.75-21.65,1.82-.17,3.44-.17,5.15-.17,23.4,0,45.96,7.95,61.89,21.81l40.22,35.12,65.84,57.43,71.28,62.35,68.22,59.4,59.5,52.01v338.97l-28.11-24.34c-.29-.23-.58-.47-.87-.71-.45-.38-.92-.77-1.24-.96l-.25-.15-.22-.19c-30.55-25.85-70.65-40.08-112.93-40.08s-84.42,14.92-115.44,42.01l-145.94,127.65-120.32,105.01-9.49,8.36c-25.22,22.15-39.1,52.1-39.1,84.33v430.71ZM436.64,2576.68h298.13v-424.15c0-34.15,14.68-65.85,41.33-89.27l9.5-8.37,120.33-105.02,145.94-127.65c32.22-28.14,74.75-43.64,119.76-43.64s85.27,14.73,116.98,41.47c.7.44,1.32.97,1.88,1.43.25.21.5.42.75.61l.14.11,17.31,14.98v-321.62l-57.25-50.04-68.22-59.4-71.28-62.35-65.84-57.43-40.22-35.12c-14.75-12.83-35.73-20.19-57.57-20.19-1.64,0-3.06,0-4.6.15h-.16c-20.07.96-39.32,8.26-52.81,20.04l-16.03,14.1h-.3c-19.04,14.58-331.71,254.13-434.92,337.77-1.06.86-1.69,1.81-2.11,2.54-.67,1.15-.74,1.75-.74,1.96v969.06ZM929.75,1705.89c-23.08,0-45.6-6.03-65.13-17.45-33.24-19.28-55.29-51.59-60.49-88.63h0c-.79-5.82-1.17-11.25-1.17-16.63,0-21.75,5.9-43.03,17.05-61.55,22.69-37.73,64.74-61.16,109.74-61.16,21.14,0,42.19,5.2,60.86,15.03,24.71,13.08,44.42,33.96,55.51,58.79,6.92,15.43,10.43,31.88,10.43,48.89,0,19.94-5.03,39.74-14.55,57.27-22.09,40.37-65.1,65.44-112.25,65.44ZM810.63,1598.91c4.93,35.03,25.81,65.59,57.29,83.85,18.53,10.83,39.91,16.56,61.82,16.56,44.75,0,85.55-23.76,106.48-62.01,9.12-16.8,13.75-35.01,13.75-54.13,0-16.08-3.32-31.62-9.86-46.21-10.5-23.5-29.17-43.27-52.58-55.67-17.98-9.47-37.42-14.27-57.79-14.27-42.72,0-82.61,22.22-104.12,57.98-10.54,17.49-16.11,37.6-16.11,58.16,0,5.08.36,10.22,1.11,15.73h0Z"/>
    </g>
  </g>
</svg>