<?xml version="1.0" encoding="UTF-8"?>
<svg id="Camada_2" data-name="Camada 2" xmlns="http://www.w3.org/2000/svg" viewBox="0 0 179.65 276.48">
  <defs>
    <style>
      .cls-1 {
        fill: #02258d;
      }
    </style>
  </defs>
  <g id="Camada_1-2" data-name="Camada 1">
    <path class="cls-1" d="M167.71,48.11l-13.95-12.14-14.57-12.75-13.46-11.74-8.22-7.18c-3.12-2.72-7.56-4.29-12.21-4.29-.35,0-.66,0-1.01.03-4.27.2-8.33,1.74-11.21,4.26l-3.09,2.72h-.03S22.75,58.46.83,76.22c-.28.23-.46.48-.59.7-.15.25-.24.5-.24.74v198.81h62.3v-87.4c0-6.78,2.91-13.08,8.22-17.75l1.94-1.71,24.6-21.47,29.84-26.1c6.45-5.64,15.02-8.76,24.05-8.76s17.14,2.95,23.52,8.35c.17.1.35.27.52.4l4.65,4.03V58.54l-11.94-10.43ZM76.48,75.97c-.15-1.07-.23-2.18-.23-3.31,0-4.47,1.23-8.65,3.39-12.24,4.38-7.29,12.54-12.18,21.86-12.18,4.41,0,8.54,1.1,12.13,3,4.91,2.6,8.83,6.73,11.05,11.7,1.34,3,2.08,6.27,2.08,9.72,0,4.13-1.05,8-2.89,11.39-4.24,7.74-12.66,13.03-22.36,13.03-4.76,0-9.21-1.27-12.98-3.48-6.43-3.73-10.99-10.15-12.04-17.64Z"/>
  </g>
</svg>